<mxfile host="app.diagrams.net" agent="Mozilla/5.0 (Windows NT 10.0; Win64; x64) AppleWebKit/537.36 (KHTML, like Gecko) Chrome/130.0.0.0 Safari/537.36" version="24.8.3">
  <diagram name="PÃ¡gina-1" id="obNHevhXj59deXWZkDsW">
    <mxGraphModel dx="1912" dy="2829" grid="1" gridSize="10" guides="1" tooltips="1" connect="1" arrows="1" fold="1" page="1" pageScale="1" pageWidth="1600" pageHeight="900" math="0" shadow="0">
      <root>
        <mxCell id="0" />
        <mxCell id="1" parent="0" />
        <mxCell id="I2T54oOXmja0ORRwf_OH-1" value="" style="shape=image;imageAspect=0;aspect=fixed;verticalLabelPosition=bottom;verticalAlign=top;image=data:image/webp,UklGRqA/AABXRUJQVlA4IJQ/AAAQCwGdASr0ASYBPm00lUekIyIqp9Mq4VANiWdu4XHg4ZqeP6nzK49MqLmne/RHly8gv5v6++UvnC+efwP7qeypkz7WtSnvj/pes/+577/m/qHe7f9n6l0B7ttQL+nf4H/velPNo+Z/3XsDfmxyFns3sDfqr1f/9/ynfsf/C9gz9iOuD+9Hs5fvCZ8U9bFr6cyuWXSTy1NHgWn/jOew7RrEmWe6EkxT1sWvpzUxbtklD5pUZ/Xvb+pm//+S8J2/5GzdgeWudiQV2m3yfT2fp8SXFq7UfyIQEqb5/GE2SB68oiTFPWxa+nNTFu4ZmIZ4Jkki21gMdRBnWs30y6FyD9p6h5NNM08E6s/oiUPas1oyV1m3Ro+/DTx6rBJb/+Mn0yTgmZ4NGnmYlqmaGAKdIT2ag4/euZJkKWpWWrDpsS2wH0sQ19OamLeSYapod4N+shDB3WV19odS0OdnwHkkzwHvnaSeuTaVMKMpO+ebJHAK4vcm8efL2Wf6wqPr6YtwOOUokVvaI7S/LfAJJuRzA41fTWF22XaNn+pIT9pU/lSnEoTSXtTJRBc1MW8kxT1g4cWGuQAS9YTeDyFS3vxFLxwu8NhqpxejXivdSoL2Hr75e2WN57yclfk9z1f8lJbXVceioHWTvTgDj2Wqyh903wtUoi/mBXefiLxSj0U3Ab8nTfQtJ0pd+564YmEluCHqG2oCn8ZbY7wGCO6PcU9bFr6Ul4MNC7b7psycgq3YQvpK42fWRSAoGHNa97lvfZw7/Zu6vdGD3BbTwYOaO7W5Rxg+obfGR0flgJ0DIeWhECGBquiZY7dQexcrO5aKPffba2dUeKWu4DRRnEy/73kDK4fXMvitoXeyPfe/+2Al+YyE8qlxRHHbf1jhXAtBbbyTFPICXP15ME/HPR/vv1nTqpSGxdhXS/GgG0wT8tXkvXm4b8zZySV8eLHuRpFuiqPzSbkXn6XImF631C1sDUjb5CS6ub6KZSE1fJOjlDL+CNSxROoL5ptJcpycnMfGeN7q+z5ZO0sarwR4UGKyuugtXlHKYU+QtKRogqeXxX/hmhZr/YhmrSvA0UAl4xZzvZRErg4QOepZMzUmUCSL3NajPvo9egiwNFYQqLxqvZj1kNlDtxya4bz5U2SOju0+cBJOMvuyJeZ5v8i6ZmEZVZGSBERKzZN9f5NQDuNCTDeWOv1BzE6T9cshMVEZ6u4SsqjpQfnzlKqETyIzYLuGDX2aslOwsnJcUQ4LmJYEyQRkpBXyeR75jqwd7rufapzsVwyuTLY8uxw+nq3o0yF62LWJQxBVBJyPouWvFPjwvbekiqZQNsid1k66T1/xJ4S4AfkWOSNhPPXT4r67QehXrLgtLoQt0GPM+LgByEzLqzXJ3kc4nU5mCFyJXlwfWzgXvM1cguqhsJbE9BvZyedBunoPAxHrEBrTQ/9bV+rNpEIEKI9DiCTrtN1W0J3A6BBMkaBx8z9XPjqt0nNvFxogQe7CYnoDYP5kDK0ZQBHRdFeRCQ3Sa5H4apZiCp8CL6Kxb8BO24xICFTOm2uTgPoQxMojcJViV1pjaVppe1l8WB4GJ4gFwIMRmp9a2U+O5FUSPji2Xehx5YMGU76iWf8FDmY+G+a0MQa3bl8In/C4OpLtrfGzcYcDSlneAU8Wg0bdkRIlD5vt0lR/bD8Jnhn4JcCwkjrkHCQsf0FTdJdPjoyXQ7jg7H/tq0k5KoaeBp6eRqxv2oe8jXqJFJct7RbRn/De6vOiJHyXZY4MR++9mOTLlghJZ6nGP30GpF2qNXxXusULlgNGBsvm+9gK5G6JDC0Q7O5mo1xw2N67wHADEiUK4D6+dtKV6u+xIklNuJzq2cYHyIO0RLkuUxbnSnCb8am+8eNQ2wtfXvtF3sQKTDb044Uypaspj9wp6QfYknrX0szkrndMFJISSpPP/025zN/OyvYiLImj5jf2TqFoGRT8XJhxXXnosXT1TxLvRe2Zm1sG4Mq76LUZVW/Lg+JSroqiBsuExhaCWJE2yvcpYZg9hhzvvDWtFTtObbR7+e1kEwUv+xtliy5SHo+4ZDIlnP/0W5EGTIBVhV+pi3kc2xfZhMGutrsCI6ODnPxx866+6w4NRd6/ZnWM/gBECpgh24vRoaA5qzId+M9gzZHdUYOHV0hQm28/zqK7MN41ebrANOGjQK4aqQ3QdVmbcZy/pNPFXeR27p7HjAkUjJdscl1hDQw+3VXRqT+uTZhWXp3VMnaokSKE26HeE4crP/pCQEYLDFkvpcjd0GPw1TYmh4vQkmKWEbZ4RngG2N0Y3f9jznlQZhYNRtBT2sXfI+kj5J4YeaxXZyjdlxs1FUEyg5ogdzBKoxtALaD2oLNBQI0q7k92E/G33+qUQ57j7a75F97lOLLrGX1NR39EgO1h1o9Mvg68BZdi99EWn50TqH1PZq8jh19mlJp0T+Ri3z3QkmG+FwUy4Hs5tNtfmO6X8pbvqf9dVtdEZOdPdp/KpQa5oRLxjmtdzQBL+bk7E/uLK4v/kZ5ntInxF20OTWaIP8VpzZi1J9ja6zkc3XYkqwje0iEM7vgCTVQza1Owv5LuCwYfy5qYt5JRXkGB/57bMUad/Z9V21yNOnbIpnHXQWfodj2JV/aDfOildZpiIAIyh/aDnfvnTWP+2ZqndppqP2E38L/4IJv317mtgL/RnenNTyJJinrYta96gkEl8sVLIwo4Kg7PLxHrE3UVriOVG/kPfvyoFTssJFRLZp0ULAO9IDZMNyRId2sl+WkZRM409GNcdD+pi3knQQ19OamLezCE7hzMCcvG5WnHljY0qFv3htrJdM4Go1W3JM8lbqYt5J0ENfTmpi3s2HV1i+pmbE7yTFPjiUAA/v9vAAF2BQTzAdSJ8NV616/Iaz0kzoo3deqM7G+3KxyAmWJKPAAAAAhaFFbsEGvythFsCbyN2Otv6S3JZGbgNLbfI9G8fT/uZTStu5s6ybeDrCLfEOdy7vW6bqjHjxFBDI6Bci/XuVLF5xSBB5Xb3bB/sSQoq9m7fyxaHuY3Rda7RRRmEUWzgl2CpZAnzfJfwTsEOrNGZoxu34MyOy80/g4GzQf5ddgm9aBRjw28sjdnNsCSlj/ZeB6BGD0a9U7UEWagkvbPSjaZRns7aqhSoa74ll+H7H1M+Hmh/Sa9SlKbGmIekWaJHRC1+WQgoULiVdNGVo08CCKT1inFM+iCcAE/yybMl33lN48J6JCU+TfiCJrgSQCBXPUOP7UmxXUYLvXCbFmUZeKucbY6ceKujnfnius8LdDnAYIOpUJ7sY80PPgbFDGHE/2qGm2pnYEknrX55+5mpQf6tZnyxG7nP2bPI11NaAqOqH+r1bUTeP2ipvTpgNu+voFnhO3jtufLMU7iKdGjfczllXH9FMqMPaYk8kHYJlRXlOOJuYV0O4ZbSWt1GGsk8uQDSyg8bgWlkcjLg0AVy7CGAAE0upFiLLvhI/zl9qPC9vG+UIoO5sBrxsLUVdE/jecC3rO3q1xwYnwujfXFlhGMRUaUyQlSYi4GC9maHBkzJgmJSWxdV/iQUgMdnQgpNsqJHC7U3/IboYRGhRLKil+IKHdorZtCpC3t0FQShKO8iguIpKfy2vBs/pNHGsMM+KOIxwnYVMK1o8Lma4G7NIhn4XaOKbi+GHIIHkpIO0qbrOgdDrCLoYVVK3ERO6+Y4lvyxisc2PBFwK//lAoSFn7Q14CRDkw1aHG4j0C9YVyVEAgoqSXOU8HxB6DC/ua1V97DHWyd1DFL7O7AngPNRq8+zcRBpu/Mbg31T+rkLbvBkhuflkbeiTMwaK13C+6KEh6nbWE794vQVCMDkJLPTgbWkzPgJg81Fvgph5Vu3fzOfOF/3GsV9EF5ssKktwSmnnkUsB2ZBwnrchhAF6VCvfM/SyB3kws7W3LFoQu39pWvQkv+0/f45+lM8hISmmgVAe9QVpwF63+DXxtuscY5bnZqgx2ydIcL1C9MiY8MeWAyNkeG8le9nUtk4dwUJo8ZZ18HbJLRn/CN7Q6S36JoZR8Fv4ZRYdbGI9owNJrdI1FdFI/vN2XVOtLHB5Nn70lgYtS7UDj6Xq2MH6M7S4YVaG/8RcEja8C46kQrLZFPP3sAqFb45hn8Ya3HOBdVJslP4A2aTW9jNNBQZB9SxpxxPjxTPkmJLWe8VTAS6/jl+qVgX+UvCKFKcxfskCBUcohKrLqP5OKX1fEOf6SPd9gTRmRwu0xHhhaUt+OMwl5g0wF0QJ3TlfxJv0onWQ9ezl5RDkeYhmRkZ9u1GfFvocGPDOyOjaM0YBQR/bf+NOLY7D0OfFnefPd8gBEn178s1oOtSWkzrMcLdDx4oyaqmwBAAALHt06Xcn5exJV1ylb/inuRBvP1+g0IGTelCpijaIkYlzGs9D8dmPAaOOtxsD6t8JEr1y+sFGeZk/JsUbHrEZNbK19oZUHg29gNuVjoCahI9t6cf07oPmFTllwXJeWWbncQKm1Bly7L2/HKOvy1RoZbSbltcl48NMhjrvMmdGntlkenQdXtJK+aj+j6S7EP9xhCNfrcOGS5yVaehLe4pgvY56CGOwPzdeGVglKrJyS9hYYctQnxXWvAxyRG8OVxkRZM4Je3U30L7/AlJNh79EZ43hGvpNh5YKv3hs+R1SRKBn+IGf4XprZUPRsfcuBaYhKM9LohUe619qqy7oLqGWisFOwv/rDK/TkN5/zUl0t/6ybeAkb3Ztt9U3CAHHIKtQz6A19yk4+/uyn8lVXSfpZ00fNDrVPPcrr9OXLj9hgy8zNUzdUz3NqeUy7L3IgawsPNyJas6yDSxw6Getnq+O79FMoWZDp4W5oho3YBNHIFilGTflrs4hSLlucOeziI5bKm0eMfA8WbwYkHDYP8GId/xh7VD9LnixoLo3lBYylf/wzZxUu18+ZadbbhzXErZ/T+044cUXu19dF6hb4f3uA2d3D0/+cv6+HlfzURCXrxupzi6FLTHyDt9Ix/xJklj/7uRcpeY73qW+AFZSiyHSLwzZYoAF4rPEIeV9d+G3oWoyVUyMZPq8lb+cux4xDr1WZM/Wx3TlpTat9bLaL7dAKWyIc061viKJ7pbBO+91YSVWfG631VfYs4Lhqb6dUsSGnHcPRDLJcYi7ZVg+b2/mSVAkl0LmcWuxOPPKVil/dUA7WOx30EpxV6n2FlCs4IYm5mX+9EhkrnCsJUIPcWLLaMvYxrHfT7MdSW+uRXOkEG3lmkq5z/YbSRBFOOnHfB9iVU9w5v/MRtuE+zc8PXByhde8/3XPsVBpzMwOPt5RKxFsSwDKcLru114N3mVb+bI+Gn6GpKz698gsNlScVyoY5/v8Ar0teMIzAt7LWUUTDa5qNwya3235gg5Oem3FpU6QUVAbCsaZNctBPkRF1hZlnVL1tKXEQiM3IAPPu/XlLd9FlrChB6fFEgD6z5vdQjhlYaWCaJKTFJXCL7sFgsDeT1g9Fz5Fu/pccd3m1rX0vYAtfQ1YhtCJ+KR8u7YPc+QTHNwWtDErTXE2b7P7uzxZmcNAxSD0ae22svUa+Pz9mbTZTBcUOpJ0lLxEVUYD+PIzao6F6a0CnKyeb7fGDM/RceymncowkuxeGTyQz0+hUdwYatAQ1j+9nH7v3gqfqh1r42XtbldD2OFGPhsbqkxTN4XTClBbYWhBxBbpvNwq+R59d7/gNw0zQCylbWL9YDqWA/1tYTlg7gtJ4E+MBzR+F/UtdDGnaZOWdpTxie5/stOIukWjg10PuTeXSuQ2yflM2udQuB0BNQGHgvLpdcbKXT3kJfpgBZDLuKpw30IHzPiljl/XsehxGwD2QVidgNqou+VQKXWyxC/BlV6PPXbqDcoREu3aZgOsCL+5f+UtKsUOwPwUr1bUF4ScKbRIevJIaluzlrhXvk2P0pqJUncW+pbARPCSLq8B8CTA7OSEzjbxGixy84idSy5hJG5Tg8crzpYjfvIhE3gFQ1gMRYBQ8akNE8TZDXYU7U44FLcdWeEsORUCoXdwnT3nSgHU1xGFtLWz9opqJ5ujiTGxfEfA6O9ASbSvcb4nK0e7uXquIAFkMN/+JGl/4QGFg3yp06SwP/hrh3HBy/pfytGFsfjz3I+N9FBP99xUwmh1nHkM7r7XxtDjgpU3clMg8r8abfnzYDK5L4hPhS7u9LPs8LQOKQlKg7MAx5GdIXGGR0olhMJ8zcrSacucx3qGc3d/9IQBQ1bNfKdLjK+26HU1SY1AvDHcdQTkm6N94sKPcvP16CJGItXPcQsMdNTVz96DfeKKn3Zm/k96fZTIwmVYXodWR3SckSMtuh/u18AiimDsrtG8N5N2HZ8bQO7mWT5h+dDgKFtd+SqnM2PmEokxXOiN0zrCJMIThSXt8tmYm1oKbkq+D94SBVVXUWD6FeFrKVTJR/atYvYQ76n7bUhy/ZkEGqYDfwYIRC/eK0nrcp6BBpCXI0bPG6Y04+35ZxcKRbV3UKqmdhz8voF/83WsBc78ePb7tHHGrmyMdFhQegHNeGU5mYwI7fPWf2wsBMc+uFH0c3WSFfX2GvaBThD3EAAHv7n9icxXSSwTW8zW2jsI2ALYv8fb4zbY1Fgw2Lp2J+OjE7x4ciK0nCa8emdhB6jkFnJDbZmX8IOaa6f3on3Go7oVq2TbasRbjfJUzjrdltWiqA+kc8UcQB7QT/V7s111gYVP2ij1imC84+pCsgqeOd6DIyRV/b6SP/j5w+7CugpdxMaBjTDquPHBPd5UVkn1dAjD8Ewui6GU4mNGyt3ACrZ04gCGMxWwv3EwrfgjlShk5QSy1JwrdOQdCz9VCuX24GqU19WknekKgCqagVr3LQNxRTv5oCJ/gYfBBle/Yzh61FDQbakZZ31lfuzXXwVm5OH3BUHHpoEd8u/TaOx9AQz9R7Q1O8JSpfMNaSS0hwEREFfA1x29jNwKtIgVMgzyz7rYF4+UlqbU8SsGUcCZJzhWYf7S3AxAAwus0mSZBntfj6zeL94kClTO1JEXP//xjx3w5I6Y75MFm5+QnnydpLpgpgIkUsJuyAIEmef1Ma6m6WpMF42BBYkDHGlb+MPxdPtf6mCdK/O5rP74Z8AtBlSzTNlsJxItndYka4/2DDvAbU821RDNw85FD/7cG2vGrCQr0uiLRnS6sRMqW5mkrAibHxKzJfGDhC19+obkjddjrqAY9ZcqYyXKWSeEUEgOYN/J5WH4FYX3XkVZ7RMFnWjYwdC9S3XBUNqEFk/4Rtl5/RRi84SXA2NppK/ky6CeuKZrmhYH5XNT1q8uttV+YT51F6QVNy84mvyl9cXo8NB0eosRUgJF/a4wPuQv/X84ITuzIwbFjkdRpyQkrMNpl6/c4x3sQJl1iQDH5OMpbHUoopTnuEPJ0+k/W/T9YdSElRQgVzzUGcF5f849S14NonvS0mciBdo7Lqf5ntVk4imlPnuFxHkHrf6K2uV07Bb2+By/P61XsqBLfQozKqAVhumPJao1LVt5A+ThJPf+x1tsFh6bQ7+Kwm0OQnA4DvcmzLPy74dVfzvrTtUXojMM85oDZGa6615qf3NTf6TD8wunNrLMFlQhbSWPs1Twgt2/+FjzV6ab2dXSqgJroYpMEdrDqwRx8gLwFJf/gbzeulD1f19MVA6Kkxw/xJyJPJ6Y4cry0nCPMQ4ijeWdnphOYVJWyCr4MfJUsELeKiW+SIJShTLcEeRyvoCRo/K0GovykSAmsqC0+frt9H+hnlJcIT2QeYA1Ug6fZSUobGRFshkBnwlVJcNfR68jTBmtnnqAVs9NUHI23aRoPVpGZn4hptom0a+JgJEY/6xwociA/6jA2SRXm6dBUO7VUZs7iw+vvvZB51pbVS4DH5Huc1GRmN7/APTCndKrLm+SI9W/tSzd5lZPs3jSLE6DJ5/n52HLHUbb8B5EuJI0ad3rWNYuZykQTHMhCSnb3GL3X2CPftyPAWiVpyIVPjjzbmnbavyflUz6rsWFR12psFKAAK+HyFzbwzGXK67K6J1PtFmGjgjIyYNcMZ8EwNZZD9eG79OwFmeIlrVaXeZ2DJpSv/70ON+TqPkcxB2nVBHEuoiBMx54q1Q591oBwBdTRkBufJlBedGw/7YE4QMRNj5GPvzfTZ9G9hAa197P9acEikxZMgLgL3G+05k2MlA94MUntKbIMwxVZMryPlVN0Y7zNiwjPsF+1dYfigJVJelBp5KY0x9cr6jABnw3YpiJ4XFo5K5crB9shktDUhd7KRcoQZUgpy0d6MotPkL15W/We8fUzy10SLpi5IXO2nwyNGnkpYBcf8h+6dtARyp3V5o2mArUQ/St3EEmnQN1Ux3tJ6ezcrZCMUp9Rv1QudL6ssY+sMxYb+nXtMz4OuAO/q6Om0YqtVYkqILIqd9GEPdIlijGaTPyZjR8eH+fcEmedfolXwqoHjHzIJV30eb4EtiLxxynQYhd4qbxEUAmitqUzBa1ZBUM3HJAbP+/P5b2fUTadT3FPCIh5+k6rXEP6zUyRU5Rk2Zd9NH/82rw5uaQzlF+pVpHwLY2Kv1JunoyetsaZ0IY9kiU0P3YBJZZiac+yvrdKOl/Soy7u3kYFJjC1OV02gGZ8kXm8yO7JmLAgOOlgkrLIzGfIKWq5vKNTpXoOImeVT7W40g9l4eZc+AQBHoQwLo/l9IjXO3wjIDVQTW9pJU88wL0AdDKPyqDcMKtYcVexv521KpZdOnPVCox9L5vrHVqX6nfKfNN2UC7ZS6I7JBG9yu8GmLspEXDjiYNJpLOmmTUzIZuoQRvS51lZ9/rWs9lAQwY/HvFnbl/gqpuj0IFSdmX8ZUh/7rocM4vepwbXYnPWE9MnuoBT0wSNG2S1Jx9F9OX5ziHKdWQcvsPtN84SaLiA0xXjDBZPcyhlstM9CnO/KEW+mk/HrNS/LAY1R98oYYOJkCCMhSn6fY8hCbmiNMkbTheApS4SdGoMf+oPmE1y8Xa9i2Z8ucNjeCaZeDFDqsoC10JtBxOISibgxLGHKZ5GzcuXdm7lkp+dD+b4i6IL5EDwmP16RxbkNoaKaDpzo3JG93zf4136XKpYVyEdhrOKxxwOIruVfDxEAW0TNwsQ6uxwY+M+kglmid2G51KXClsZcLr3s5DUBJMmMBl/p+EOAu4HiXRWSHifW4oXKaGb3b8v0yMwVgnJBd5pC8HHZZXG9tUkZJrdfoU1sgrLphHP23JRY9YwVQWWgF8gXMCEK0h/AoB6OfnTUqZFZTMas9KV5pr2zxEr+ytYHQZ0dE/3csJFJYuoCz+eya+yO/UG96XZtZcH/ooTCHuxtj7f/jM1aSmFOu3iB0g6OwJDOS/tizdiPN2VimTsRzrDx2f8y1zGP+tpelwU6ZCNpTai1A6oZazngHbCdv9yHQnuk3kXCzQlRXtBxHDZW00EpCT0KzFa58hKrScTsCoGtMgUUT90uABbX/JW4IuP/6DYXDxLJEIt9++jEfuwBwxjKHlxQcIqZ1nRMz+g1/iujnoaUDjdPzD+zESy4iHHR7LGuARCfCnHWqn1EKm7qijwyYLDCOxHuDbfWzojzbS+kM80ZKRIcmfB2l308KBM/KexIiGyWJCcBqccOaZX6f29z40bwtQCsIBFq9Y0ENR8ap28ncLFNJ4iG2qwoBN6zNz6ELDUqP0a7p0PZvTCIhd/fBFVwNhy2Uj6K0wsViemmD7mUqg2kHKKcKOwVINmZFTMJ0UUqKIUpwWcaKUlMNBkmtaBg1xcmO/NppTmL/+up51jobPVzJM6RSCXxcsp2RKC3UTx0PAdgLnhAQDBJ4S/0Vzou3D0KJ6pe1E7KlccpSu1pUk/hteShCg7nt2H7eLwP13t3NwZ9n+ijWIgy0cRxrJuVfHmpzsHGDA03m9CN5KYbHO4wHt7NuwnMFnXKDjTY9wK9K3A7/b/lXlOTSMe1+X9UaXdEAklL8BE8QIh24kHpvqXmYiqg1KqKtvgZHJjSV0WwXIf/Pt6CZwDVa4gFjyqBWUCzMYQRM6Pkm2P0YfX7B+QB33MOjdevHSfzr6cVHEwEMvODwGPi8eJnlDoQF4PF8HXxCiO82sx7U/9t2l+/55d5lzMoT+3hGiPKst/B2g+4qH6h8zyLu6GPoK+g0FBD4efrkQBPneHFkpXF8WRQy/Aih/KHSAaCYXx1JFlXJtXmZuRKpvewjPa8zol5+hmvCMZTx4CmJXePQbVfudzTCytJg9b/fjy6ITF5GRRv4/2mlBaPYmVXF+OTED3MFPE/++dBfI6PLzRKs6vyCr/IMBnNybHTua5CrlYZfektM1Kmx6tlB5oPdCxUQcB6rLy5T0h2Y1XuDAjJ5OEbB+zBWJ1Xy3DoU4eARy8/JYfhJlNP+QI0rrM+etb/gyFOCcKUeRaPk/BWmookV1nyHbUXpBQ7DAKhu27EWWrnBhv7BXa2MkjNvzVchhPo18qUwP8D/h9pdkvGtjebC6QiWXWG3DQbbC4jqaCGP9+zJcmrT8muiEOxXG5LohiLIh8JRjJPj146yt9TaiDu/l8AZSFBX3xNP14VlzsRZZGWwcIt4jBg9TlQRCkoDhK32T/RDyetz0lS1VYxPxWJ5twZMZL10RH+t9ufT7G1jVSiRDqYdxJofWNprXZbONgBf96vui7Sat8FY/jlvU+xuRXwBmhRkEC1A4ouETWpgG3WCO0mFfw89ZtnBeTj3uajbV99IrXJrewz3C3/9zG1aJTt01oLnpsssoo6Z+og9nET6uO+GLGXqJsk8PbA9LBcaZ7Yx7uZDSlZ6MCJVutgzl4p85HJKbBEUKP8YMrhnej9PranGuZTBZFVbooRLeQ7PzKX3LFn+S11IYW4xiEj7C/9Ede7Dh591HGueaH/wZGQVvDcnGe2vcN1f9zonRkP9+QyYA6vNpc+3nL3y8CR76/cnM5XZffZgwujrbjRb9WBML0fnH+ah/EfO90ebYzqJJ1m+XpVQ/8oDylf0y7NqWn4Aw9jcbKxL3T+xw1LWM/qBzuPscDzt2FtBWyFnAvcX9VmOQt23Da/4IH/VY4ZM1SffrmVeqWMILckp4gb5/+kJnQeW60mNHLM3mQht1/uxLu80mHNwkfe4LyL89lGcmVnrS5oNpoxSJPnMdJjT1NRdjyDJH2ZcgvFY+tEE5wKfU73dwKkPackUnNI6G6F+Bk9y47bjHrDXJaipR9A3PpxJLTZMMlx0E479IDyFUyi2GgLmq8lmW+jH8XLkfbMpXg4SPGwGsFeuf+5UNRH0+JjeW5Uk6rLPQkYTEy6LcdM6NDxD2548BwVwN1gtsNrHKL7MAuz4shd46yQH9MyQguQmDmjrRNlZAZTg5XFt+eG/Rogqcc+dwhC2uNW3nLX74LrHWzM302b2Hb3ii7QZ+buB01bizhlILhila6Wne8MMm2QqoWsiGBPNMflIHUiuB3L5KNWM5JQJ3b0DAZw+Y7SZeJTktrVZ98l2p6Uh44YXN9zCg0DL2nw4uqpE01aL4N2Hx9I0JFfqP7+EHbuF4C6iy5Yamt1w9EYp5rkP/5WbM6RaVwU+VO6OQUxxtyfr9sYqndUktI0g9ba4CaPhE/8GTP8XknRqlKl4jzLI9EZf9/IndBRah+IXQiL8TrIFkNuIh6z/6wD2/kT1Xweqxi1W6CpaZT+PX/38WaYwrJrjJdnMybcpLHjFBjlhue/JlbnayIC23Lwmsai0pUN5n4NiljVz7wP5Wdq07U6R7P9/E+DhwYXx6/vhuXX/jaeS9ziIJhOG0kt+rbzzcHHD3ytekul2AWQq+2g9NngVpwXfTgW4LjI23iAaqiQqj3+VLhZpHm3zRP4cmK1SFsD6H+m4+6M2rwWkA8xu9jGxFca9fEFll+kQG6hoQbpJdFtayx0kzP84V8i/yHZ9svuFIIplBgMPoc3rNE+3+IjrBk/uGUO7uIGDi6HAUBA/JK+MucuMs45RQ2eg1GH1ueWgssuB48erihC28wf7sXOZO3ZM5Njh598pTdrqVAwP2jWV8fKzF3I8JGPDkd5TLWgwNQID/eTkrhPxDAojiDlUf6BJDAXGpg3OOiu/3fXLCY1QWeRhnVqyL3xCXh/Sq4OpwiMF11mVjimkQ/rxHgWWcQspUuSO0yVQ4J6rGSUMUG+RHYJSo34Ox/CiVe5U2rvFv9aeDigYCNWBBVsMgZAqtvFbSoq5qvKobP5FvFtKDMF7V4QVg+A3MCwzFRNlsSHhpL9IieucF8ZNdsVLLmJybtDlIjHtntWahghIeaDaUqfAsI0iLi7aHrxF5cftOGC2aBUxGm9quLzilPRkaCIfIi4D8ycYx4fHYNsv3xcy0aSkvXfd6GntGqCH2w+hYH9Q3xSp24GlXxRVEOzguOHHVfa893sGnKBrIIv9nuWrzl3Ao4LFubt/NgDnSTcs+I4ibvg9KpkCORclJfPWWJRxcimBglaIW87Zlvx39TOj7cfYBKdy8MyGZYbuR1b+oUUTg0Od4AD9+9SMUWpSeVDtidGoCDM1mA9EOywYJXlM6B5+1F+QcvcIMvS+5MEfqeBtXsYJIzc1u3cbAX1FySUImfxGhg3Xw/LyjqqE/2sB6Rkbx8wpnfJNfK4+vjN3TOkzepBI5RxVUQ6AUMVykJmJ4yLefWYn5W5jX/jHyi2U/Sdu3+mga1ZQRRjnF+3YRInVHlxsrZb5SA4n+MbQba4KcMpyixqzkfukguS+DXFEw7tg08cHiS/NdaT40NhXaDmShaXxy+XK2mIEZOsaD5v90DXKCUfRcUW6D3ytdees2A1c0YiwIr31XjZv22vyay/2DOv//5ecekBKT8/igU/JMHGOBY56OvqPs1cOPcI2Qb0zWqnthByHNkcScS480+wNwRrCN9UO39NURr2e58fdJyXcQ00tFk0RLIrUjumiFibwColwvUkgjH2W/MVo7LypQwpgeYamFvumvSlh+iu2pvPzuBV2Ui7S9D8fWrK7Bblws7qcu/t30PMkacPbfSnSrPOaf0VyD2z1ln9VWI57dfAbiTtJZXuN2UOj6sR3XEnHFp7ZjDE6i5SRv4xiTjaK8yn3BOuLIuQ4pVD2cFOVGkAHHz06/+VpweKBwK6K9cJU39a3HlQlcqAnQ+BQhS6GXr7v7CeGNCDRq9n2buLcydY+YcKjz56PpAMveukbavxbcSlIq+y7WquxNsw4Tt5vJ85RWrrBijuP3hYul5dZl0Ph6nsyGzsgfBPqV0gfDI9mwNSSNbEGkQqj/nvXRnjJVRGLDhKe2BdJ5isGMzy20CiWYOPidZ2HrjWW5pcqfAvqX1YiPabwbhrKgFJzo9GdBq+Wmn2V099i410H1eUzrD6OlfVkPi4JaZyPaaT3f2b5zbyCzW0jGzueiHcaUQf0yIkgaEYh/F4oKKHHhiudyJjl6Go4+Ad62QzlRtGO4+8PW3RCan40hYyQSOjNOZpo2WzTsmyH5CKBq6TL2gPqCHkfkxePUY3K6KUmbi5QSbgDEUFL+tIG0kcVIKyo8oFqXXsxbwTUj98qN4jqQdqPn1sS2ngO28R4l7Pro/w7qeHcThf0g6BSc4hV8vF5FdXYHv8gLVOzNIK5ANCeC+XCY1bNiE1qTyJgr0WvE7mWJGM8AlBYMwVeCanU73KRqwNEN0/BKSbL7f+DWJ/V7t5ElIp/v7G1Yw9qnS4AyWGBP5Qj7j0XO8oyUtZ+ycAg9GYY9394MX/DOtyRYwJlJUNnAA47efi3ndttmPizmBMYpedxIdELA4W6Ub0zYKAaZ5EXQliuxayR6rTGo7Vsac+E2QL3YcUOx9lcjVhbOX9R3dG/v0xlz5u2uMjDTU/0GvOMKVgPiJ8SFjZY1U56xC0G71Uht4x4U/NJBIXXs/Nv4mlu87HzwU3G9NG5mfR9/sw7VG4UY8FWDpP2WMCRoZ3zlXk66XtTauqlr716nNc7OGcdMfqb7afYcMj8AFNVTQ7ox3ZUQUPU9pa/WiJ4ZPvxoLTBzkW08rqm+CSwVc6HnyO+LTdVOMkumjrHqilsxfYH96xEY5/rTyrg+/cqwJXbAFlbVLQLLEfmyBOg9SwW57jX5j4gj/wpGeIAbkwjV5RUZeCPUQ43WgeVtxMzs42tbOl815Oo9BuTUBmXHoqg3VEaKUkoDlgB6Dapa3ICjfOQU71G1rvsad9mYi82pX4nj+iDXvzyDDrBxK780HODCErx9HVH+wibxw7yiWJht1y10QdOxnaaCt3Cxx0nVkV81OQLFqJ5+x9tSm8CAcdCME/wqvr5X4IUINfKWiGfmAQygvh5lnZhnp8EOrRi7WsB2ocMEC1aDwmn7EAVEdQkLbjr2PbiuPwzg5lpfhtD9FLWPrCMKv6pQ9AHHEduyPdLF7fJ/lzFSdKhZNQ2iKFqGHB5KKJmOFjLSWiHyHy4HH/L7BZCUuc17WjFd68XhJDJ/nYw+dUrzPnaC+zTPquHlOh7wAbphhueQnIInks2xMnoO8CEUwO7mqwwjXZRoDT8U0T3xg2oP+DDgyU379limVWNq5jC3EcgF+RjkEEuLpk2PGV3rFGN91x4wKdyC7GvYuU8CTqApIbHTy6MPcC31cuQeK7ogBfNVkZjLHjp6ZFdRt61jl3IiXktlNwR4muvxSH9rI4HdvIA+5J9uRxZupBoSPgMT2An4iwP/PF0n9zQVhTWwQhl1kQpRpxLLh3iJG+WXlZrrmSu6jsYg1PpuvOdQyPRIZioMvJjgYEFMTO3verS4yhK/hTDZwjxVZJ6oO9uiNNmISWsS4mdrGqn7x7Zs3iTeIhQSl8AAYl5KZ7gKJ2kQuHquZYkvrucf30fvo7nSn1DJrFQPHQaCVEQF56bymMmkj8tjBQkoFxJFKU9HtEqDVXw1g55iHnzwON3YyR9MyyxE1krfJTJtz+90LyC3smlJyskPXpVUkJ05KNglwhAYKupu8r3f58tIvJ4RogdpiaTHOIrYr8GkWqreir+xqF/2tFutaUmGsQ+MdoIC8QXlJV1rLEDWdSsJB42k6GZC+lkiMsEobigaISDdkZqKUg9v5as/+OUAYROU6vEfJIQkPMINlfpYPrr6+styGAui6y28nhIgGzeJdvK38dhq+PKIYWNd1aNoj+SEGvsiNoJiPV9qarRRhwu3oJ9KRGIs8E3RSw6UcA5OOp66eTPpyx9kYwACV0awlpD5sXdEigmcZpp6aoEKs9qf9zhGWi6iS/DpjtYJYPSX//d5DdwkLzM7khAfRIoW/W5B1JXQLW7cbCCl3KkiwiZEwcMCkBCieIXgLkW7f1BACr6/fvrSprHoFYre9mooocHr88BYGcnQXibBmax4tigP9nJkMYZRui6ZRwn55neYmeXLBESdW8BGUOTPGYZPl5W1zlBS/PglxTLLuRJafZ+mePIvRGbZhkP1iebJqGPBkKEFV7jedI6mzew+PsNJoieg5KzztjmH85MsROsGRxzwCFcuqcPSw4lWdtEaLJVBLS2ahe5z2Mp5WRT5bF4KrVCcsRdcUvo1tNxY2BE8s4KEbF0hbZLm/Crnf6Rna+v/f0+G3P7yGt4bpZjIAKvIxvrFM948TIk2i0WQ9K6kaTlg+z6df2Vsl9ugw1opOmf0Y1CPobMAr4YSO+pk/fzJtgqnR3FLtecxV5fmL6fTMk2AZH8Ma3s7UpWQuNX4YYREYIIIveOMelAHA7JcAiVJh96mLwZqV3N8oxemtg076dYlqHboVIriGHRMePgGH/8VqERvkmd7bzXrcKg0NLA2lQKjZy7FB/YrWZpugzdbuY42DGapZvqRy5TPaeUMBP1hH9Iuv+LObM+o7FEsQqfjDy3NpEq1tfONHPMmvjHbj85KtBWhDegnoXdB7lPLOGPxfeRWu5qE9YkqzAxf+Matk2Ou0Mt9pQ1TRR1lYz2gdDlepIMtRV6hq8UDCeJN9Llj/aIRiG79Cgelq6l8VQcVOPtTOVfPvDSKC/curvdZ+6z+GovO5thu8N7biBrmoxOqOkPEOjS9inFFGCE5wQoW9atxbiMWpgWF5Ir+yGHESN6OpvZ+TI/PEW3U67d8o2ycXRNDVIn1gcPRVltVmgKzdbPO/anJHn7VDQIILSwm8xghRhhlF0fHQHCf9duX7dn5HzMHzgEn+frIkQbt0nZ7nteQe/QN/ZUtgMSn2QbyOxT8i7wCcCa2lzZQqMbF4pMj4mB0oBNZWJ0+vDuTv8yxupuQ3wHTPACmi6+ty8l9kfZ21/tS8g5p09RAZSIExKdE1cy5eNWL9gRe7PNQmUbzA6LizrWULqR569Oy6Vn/wKWZp4nNyDqJP5oY9swOE9bHE0836U5XUktgA6hn9gcwtH/rRqPkU3ZfQSYvqxCD9mspJt9cWBqAzvToqvAL5iXt9r1P4qfUbDTjesBq4R+dPlc6Qiw4alwItZt+Cim0CVWvOWbzF2he/37pPsGmCQxL2WC83K8+iGAKGQ41qJkpVk+YqrjMpnu33aJG9HbjbxqXBcW0adi3MRayiwAovmI9M+NOBTdXGRvFNGDG4tqyL6mLFWTtO/9/L9yin5CHAT76GD8BwDQE9YvsvvybU9bAIvkaKc/ZOc2RFx5m4Ojl2jJhMO1tGtI36gYhDPdEKojZDWdMc7lSBRyp5JjPilmy9pN/hQvlq2EafVmwjENn3E/mP64hau+gSEMWZrXzk/9P09NaF0bYwUAfSdfVE1DevTRFvn332nzg2MutsTLZrzdDSrYP8vViER8klX48gkTT3ywiruLqrD8r3hkarDA+tFETJEbiTZsuIpi2xhctbh/G7yZO5sWbzf1QzZtI3MVBBSCuBqq7o1R2m7ALc+VlGTb/N23FLk3EJgZ2dSXJMA9BGIGdEE027VQZit/bKcohReBwj/IDAAiG7LNKFH2Bo9LLjR6OXZsenvmyl4SQ0IPaJpve2hER1hgQMHVov7wbfZWt8R2j+EYAgmc2g10gkj8xkO5btqyCMrbr3+a1MOACIBSPObRDFSXoKeTFOk6sfEmm8ozP9U+JFWI53hXdEOWynBmwcjyBHbzTGDYHzD2E3BRBtOeKrN4kKkPIBvwYMa2subnhBprhqUQIxOTYBhn1QT2i5TCcvZ/V3s9PdTZ/QrJr14/lRerohS2WgTpepD/2ME0JMWiTFDNLJdqUJWGUxw9AVfawuYpsQQR3Xynh09qmdW3gc8KLPZVDk0BpPZipw9yXOAagyjGq6dBL6zrmE9KMMkv3HDbb0rkh5+J6ZYrzwdnvSFg2G2mfteU+HA+5qZ9qnsUt/UH3zj5C6DAx7P3nZ4qo9oM5uy7hD79M0tbgUzv5PmwbZVwRL9LffD61yHjLlHB3GIQbaVTtqQ1m9jyIqA6IdmcsZ43FdF9N5Q7+NgV2fTXRKX8Ay61N6Dqg2Is1u/IJHgJ2DDZ8EKVYeq1yhYSDhvdpmSHpZ79lZ2vtxyXBzocQf1Clmuhn/sgR/eXWgZgEZqR3pm/66+KCzodU/YkW6uhqkHzjZdGrZwd/utO7r7K8jOwOWfaikyz7+Cvr34WSfqicArMqERnsI64qk4eeWxLmz5CWNFzw1fWLlJ4oqpkRO3FUmyvbNj0m/wvFdIqIdJvrp9apOXUGkpg8rUURflWXWhU4Xm9t72l5Qwj07BN7l82rO/ZCRO8JyVvIh6fZNwINhpdRucbE1u5KHJqp/Mj1Ytc2fgSFupnSWzZu4Rx9xORg7Fxb9v7QXV0hPGI5a3b9/q1rrCXehoMURhc4ax69OJJCXwmHbaLmdCG+EEiP0t1MTMf1YIR7cPCaBeNfkLadGOnVMWk0/C/afQ07mtHFnrhMrAHEvTemZVpj5M4FkkGp3rZSmUP2xBePDr8xQiy1zfxAQxEUnqqguSBkHmR03CN1aWN3DqDrlFR40p0ypL0Dos3ekC0wxuo3hC1C6B3f7u4hcPrzTOA0jlxqPwZanGTcgFBg5v+PXOyu7ctFZOuwkIgLwrga5Wvh0Zz7MajdwryRWLi5Fn1QlVQfgjSVLYRyGoC/J417yG4A+fdu0hlcK7cgv5J21mJCJLKU1Uz3mowB/kY34O/B4OqVx9VVt10XdQ0Dy9zln4BGD+MI9k7IEhIKw+eccQoyQq5EQmhLpMs5iPRk7UT3QlO9Y5DXxH7jTURL85kVS7o7AGzsLsJ0eAC3lioRiK2ltgndfxmYLxHXlWF5pv+eNhoSXC8wRletg8X5ayfp4C1pYdLmNfbBXGEv2WOR0yrkUQOCbge3HRTcvH6MQum2GzxpEU6VvU8uZl+C8sau3dltSwyE65VpP+Vsh0aw6LtlP3vd9e0LiRH7jK2HL+OgZbJFob+M/GdjX7j5ftBsm2sgF4/q4HcrjcxKjjzgdznZqgTg5+uwAVqrzK55k3CCUXcJQdN9CdK5PLJMnLuAyvulm7EDNMV8yXlTkKeqBh8RT0z1wrHcxa+mPLaK/jHRgwCuzPZxrcE45BPYj6ztLz6w8D2Oa/FL4eEMcgmCnWuHI4py04MijqoWO6VkrTbOffoKG8LQy621Rj4C//gEANhAnSiPs0iU5PM2Z63O1ZiXniphb0hOq5mreTggWyBTGUDtsEI4Rz7/rEE2Bn4l1rd37vVMPN8+cSsQPCFO1/em/Yu5ufSEmarCXtwZ3/LY+kjFCJ7RbYxepTDGbk1zmTOCVrK9Mp3DaJCMdUSA3tGJ5vo1JLhAC1NBJuHXCI5jWRKyU7CKg+JLqtc1ZIoAFALtyX1s5zwRN5SbE2nabH1BWiPwNFEJGeL2BIuAG4MeBn1bZTVyeDIPNksE1p8sz2PaPUa9p9tsRPvbcP7oc/kyNgpAmr9GWOwslc81O/+HkWV4hHY7/hRaOvpoT6zPY/n+mKCJ5LogG3YxB9ShuGqk7DRRMI1BS0MN0CUKenc8EhX3zFge9nmhzQRsVJSigkT2iQ+Swx9mlZ0JXHzRHhjrtafY6mVQxkkS9lGmESXjRzGMJt0lw3Pzu1/oe8fIr4D2uCwrbxLcsE6KLvO8ygU/8FsLuuAX8EDXGqk8FbpsimPKuYV1w3ncZ2XXuytYksqeCo8Zmgd0ZpAQDm463wNCLAD2UQ3A9SM4iz3+0dV6QpmGeArD41ouavxR1x8Hj+Pp1SkBL1OtvQtdlvIH9ehx8C+12NQA76t2PlVKxIBZKfjMC46qNsl5YNkywIe/iDGCva69/zXfV3bFKfIC/CZTVwmvVz9WLrrNll+DoiWEjWuzb8BRPrPw0T6H/vvTMIhrWS9j6NZJSpRYv/yy67aH//likEldpEkFdGsuPwxd7XEHwyEs3dfkBjlVRWSKoeHFSsvg7ZELBC1EnZ+z/aaJjQyEGjC2OQ6cr+oyLWxAEZgNKRJYlfIa6qXmeJnzfkkpRRq4uYw+AfNWH7dwzDZO1xIy7t4OBVEZ5Vq1/+GTr0hm2xRlem15l8CIR9DVxG26xBDBZm6UBkMIV9q0LtMqgTlzOTe80/z+dAA2fi1WZZ6xFtcnruO4I5moBZyoQIWz7tEaPrP9GQmsluEJ3lCXp2Wz5lkVwl1R23T99cqHBpA09f7QmGhJv0Qm/P+9wkd6WcYuGMW1NZpzVz7Kb/DMn73H3Z8jXlAmgsOxdwoQyXA2aWLGT8tKXvAs7T9+YjcpdCT+SFIKbx2Njm5fXBqwfVdJgAjEKdcklN6KTzC2w7wRqW5F8brnbdJupMZWX0z/kIAYh9XgDn4ztZzkpwEI9eDoCETAYf3ZLGeLkpzNaLTQ4B5oDKgiCytntYlclSigypeatLM5Ats5sEqjU+KFg2vwU/opNVYySKP3anIPu79RuUfXxalydHsdHHGSQvusOmL9ubqv8V5VK5EEe2m4f6/Fq0EaFC6Y9Dj7eV7qOZhzK5TqwOHSL3ovxAIwxYdxQP5QHsWLWWLXOU3hB4n0d4O+5luY4vqf2u9yNuS6Zjzqtu+BsHyu89AIGJv8r7q29PJR7Ecsh1WMFV2RynNG/vgspWglm0MWqckulUJ6HtZlWBqWcB9g1vik+7eEMJaWF8M2bXy/hwRJMmFXV+p9bo+rtBccRTQRHkYXyrqvs8htwItTMfP98CiHHHgJN/oxwOUn37bOJD1HTyhIR0gdkKajzTKjGmZioOgv2Ufp2EG3ppOHkoEvTosZabkmR3OcooKSGwZccCWFNg3w5yR8dmLA+xA8bY773BcGC4Nv1f34o0A/M+A1Thktfl1EZ7iXdOutkYda/EGAS5FYUysjFUvvz7P4lF6nezo40n3/PK+SsQc9QsK43g6AQKIVXQzUobGA5j/IS4SEkKQesDfux53e4b258m3emCcylpD7bzQKSgq5xk1uCUsIzx1ZsEgtaHsCCrrCOXmDNWbz3m+4w6fiZlqURa1SfzdDY0wr3YwswyQd1K0yMyt7oR1jbfH5Xd21kGvQO/V0j0MHbrdcgxRExXMYzAACpRdHFRhm0cu8AsW0CfTa1frb+JJrw1cZygqr+yEu1npzXy0jqEo7UZ82xfqErFuffhyGGEAmEEDBhUkAbbcXhPgxSz9mmw55p9/+dbWx7M0/swoKrkq6Jx7wmyPXZOnUviwRLELqEG1QYI/FaLs4tXZH5ZV8Af9u6acHFBUpEp0mtvsMoxlpEQ4C9fjZiNtTCbIWgVUKw392iPnCd6xwkEYGJB1GidtX8TPZa/kN4BlHnAPmRwfsNSjOcMyOxqaOq1NRR4tAvqrUa2ZEW9coRuj8wGRSyScySrnvF/XQVAsNqyRFC1YUlclJYY+SOp830FDrSFJ1X1oOeeY+6MS4cVW5dbh2VlNzCEZFfb9+lJ5F5qbz/ZgnDBMqYkhhGyLbLHEkbHQrJWYh0k1Kr69PP/NqVr7UvZi9rzi7f17wYKBLn23sdNFNpmM3Fw+c393Hm562wDqycti6h5QvUQ5N7BMDMknEbHDU89w3FCuazTdGQzc1GNbXPf59uUFDek3f/j6Fyt02UnX5SStclL8AFcqIkAKlmZNhlEA9GLWcx11q4dnUoD+a7ZP40CVaUF6gxotCM7ZZ3ZvSMb0K8gXpaR9qIWPnxKvGbynBjq8E1h/AUUBHp0sEVg6xRcAEXVhu3NjWD3t1KoTUE7A9BR8ALzrekPwwAAAHwCnrDjChmyjUrOz/CBHGOZsbo79D2ESS8qhe2d0vxixvjQrGWW5b7Fvv+ZD78jKuPYMCWzcWll1rdPuD8qjTnQ72TeByXA/IX4A0w3WFYVq8wZqXR2J461nKSHfUijGBlh3fGAYZ20RBrTfTUOChJMxyTgeMqg4zc/VuMx+3VOhRBMfsmXokI8lfzcQdw9v49THHeIfZj8jYyDIr/DrBuv1ZypMNIWE018jyU4GrEAeDzBwdbL1OopaHnwntemIw3DEpHoN+TO4ilefPqSzdzojw7mnlvtt1hdI+rXklLGk7ZLBQ5vPxsE76yuUvd1ZbKplBOb8aT3i5b74C6OfwoJquBPzIWHGHqV/9voTO5Hc8rnIg/eFlEWCN1pvWi+Zb7961zPTXEAkgmMg9L6bzoVv8DXCcVua6FDbZBEYsZ173YOWVrYJtwfeuaJ/TIA/3VgLnYmNi7E/UvsIXthndxl6aAP7PfPCz0ukdxBbl6vpxwUKV4oq1C5U1bBQ/qdct4YPUQOL1j9ue0HHembXmAxWgUvwAAAExJUCbcYOIh+oTXLtFewcKeTodvDtnxSTUlAqzVf2rNO5QB20dNi2qSIZ9OEG/wZhYS1+/b13vTkl3OW/TBTCvfjEgEmM0QX5+Nu+SvEwb8Ez41C4m1PGA8YJF4gCUgqhNUwd1FKYKLJgBEgwAAAAAAAAAAA;rotation=90;" vertex="1" parent="1">
          <mxGeometry x="740" y="-1600" width="303.64" height="178.54" as="geometry" />
        </mxCell>
        <mxCell id="I2T54oOXmja0ORRwf_OH-2" value="" style="shape=image;imageAspect=0;aspect=fixed;verticalLabelPosition=bottom;verticalAlign=top;image=data:image/jpeg,/9j/4AAQSkZJRgABAQAAAQABAAD/2wBDAAMCAgICAgMCAgIDAwMDBAYEBAQEBAgGBgUGCQgKCgkICQkKDA8MCgsOCwkJDRENDg8QEBEQCgwSExIQEw8QEBD/2wBDAQMDAwQDBAgEBAgQCwkLEBAQEBAQEBAQEBAQEBAQEBAQEBAQEBAQEBAQEBAQEBAQEBAQEBAQEBAQEBAQEBAQEBD/wgARCAKNAtIDASIAAhEBAxEB/8QAHQABAAAHAQEAAAAAAAAAAAAAAAECAwQFBgcICf/EABoBAQEBAQEBAQAAAAAAAAAAAAABAgMEBQb/2gAMAwEAAhADEAAAAfVIAAAAAAAAAAAAAAAAAAAAAAAAAAAAAAAAAAAAAAAAAAAAAAAAAAAAAAAAAAAAAAAAAAAAAAAAAAAAAAAAAAAAAAAAAAAAAAAAAAAAAAAAAAAAAAAAAAAAAAAAAAAAAAAAAAAAAAAAAAAAAAAAAAAAAAAAAAAAAAAAAAAAAAAAAAAAAAAAAAAAAAAAAAAAAAAAAAAAAAAAAAAAAAAAAAAAAAAAAAAAAAAAAAAAAAAAAAAAAAAAAAAAAAAAAAAAAAAAAAAAAAAAAAAAAAAAAAAAAAAAAAAAAAAAAAABAikkKyxtDMtfpGytTpG4tItzf3O6R0ly63rrLkdunZHEqJ3KPA6Negnnm+O8PPVCX0Y80SHpql5hlPS9fyvkT08t7iAAAAAAAAAAAAAAAAAAAAAEs0hx620Wwa6PS07P2Xtva2cZGGPgXVC4rGMo30jeNhsdaXXY7JbzWLxWb3ya5VLlcLvnShVjrFPe9PuenPN18RWsylXEXNZLG1LjczMmFuYz+nZCyyxFxc0SrndetcavGQx2ajSqdMyTIWLm0uqyvc+AbRw31cZoAAAAAAAAAAAAAAAAAAACWaiecdc67xu62jPaHGNop65FrZbfCRl33CYCqNp129b2LC3AvJas1xJcRnslsb9rNK+1+W52rF61grNzhqUu87fSljx6UaFxSLOpaUuvO/hSzpjKOXlssZc9Oa1lc1mY0HJYXqVaPN0W5475xbb7f2ch1/YMX6+XbN08p+lvF3ywgAAAAAAAAAAAAAAAAAADmPLujcZutk1/GbjVhtutbfliszWtoo31vaGVlktqvqdKBChKsv8AC5HGEtPJWkW1eehVtWuacQxGVtdMTt2nTbzuNfRKkbhSwFfpm/nyFzm6z03B5nNwM2q86647fJwxL3GfkmU3japtWp9sdLp84YvT7DntGXb8Djp9MnkdcqZer63nP0F5el0MbAAAAAAAAAAAAAAAAAA0fzV6y8hNW2+czzm5fXmao+njiZcvBMXTy8LMVLl4GHZiNmJrZGNYrCbhPGmT7fica23ZuYbL5PVm8xoV+ZW8w8+JaZGzsd5yuW0J147TkudZnpzz+R53T4erfrfUKM1unO8nYbxiN00bM+rz56Wg7c61NLUJYU0nlpyVWhQlS4W0sXO7c/hm+v5+Odj+d6wzoAAAAAAAAAAAAAAAACx8r+i+OrwjLYbJW9TpU4fU8NSFKFlWFCFlWFGWriFuLiNtGLhQnJ5EJcbJUx/zPZe09Wuee9mtdfgZqhrOZkyOTwOcthgdux/TGCl6HbduOnTbjPnXNtrzuFzqOD2W1zrITYHL/S8d1HG17K1FR1mMklOypJbUS8hj5VyUmOpWZb0t5LzXPXtNZ3nyfcCgAAAAAAAAAAAAAAAcut9kxy+O7+Wwl7RjsHkfsfOuZMHDtyzUmHklzUMJKmdhgZLNgm1e2s3Nz7GZ11FxfH+L1dxn88y+P0egrbg8Oe+7UeHwOz0+ODr9Lko61S5Ujpdrz1W909Jgm4yakNrt9dhGXtrJWTymCsevPd62gx9PDoUOfT103d+d+scXy1mrHo0ulaT1Ll3Sdg9E+b/YWWPyJ4/SCgAAAAAAAAAAAAAAAWHLOxcYOXcV9MeaJrI4q4036Pi2LqfG/RPi9eT5B6a4Rrng+b9v8/pfUraE1Ukgxoilq3ljd5WsECKAihAjGEQhAjNIqaEIkUERgCCWp4yC7s7u0ojATSzHVfZXi71Vm+dOr8t6LvPP+U7Zz3TpfqLyzuOsez2q7Vy6AAAAAAAAAAAAAAAAAOPdh5kWPlH1TwNrnGpbDr3fjsXfPM3TPP29cec9r5AnTPNHX+SXNFGCgATZCwykYqARggRQjUYQjAUIkAEUQhNEkVBTVBcWd/YVGCInllNi61xDt+bx/qvK+s7xrmtwx30vndA2LXdm+b9PMerfGHT830YLAAAAAAAAAAAAAAAAGLykDzJJjOjteR9c3LSLmbYdW2TLYNV67yea2zme06tcwRloTkipTK2Vw15FspCdIqdIirLJEmjJEmQiITCEtQU4VlUYXCLdcCWjcwLeNwLaNwJtq1SK17mwmkjb3MlbXlNAhL0abnGSPe2/8y6bYFAAAAAAAAAAAAAAAAeRuz8pyrXn3S981PMxNzVpWZjEwhLVt5oJCE0CWKBFLEqT0J4QjAJVToQJoQQQmqWE9KoyzxinGeJTjMWSFYlCetGWirkoxqilNPEpxnEsYgRAWGTx+fr3Nvmr7RYFAAAAAAAAAAAAAAAAeY9Wv8DNc91baNWzKYEJ4rTjUilKNWJbRuJVoq0ShGtBKSpGWjCqspxqRloqsCRPEklqQWWMYInpQWtCjEqqSKylGqkKaWtLTFWEkCpGmsqS06S3EKEll5Xxl0dD9FeXc9Z77YfMXIUAAAAAAAAAAAAAAAB5O5Z13is1pWwa8TN467xmN15aIqwpTFSWpKqMYKlJCMKgighCp5YwIQmhCBKmljZAQQiCYhLGBGMsQjC1GWKRQRNPJCypLKsr0Aje2OUue/d7n3TcAAAAAAAAAAAAAAAAAA8y8D9IeY5aeNrbAavbZfE5sJoQWvLJLLUgprPCAlmlmhFLUYpRNLAnhKQhCWZJMJqUSeWMpGMsEnnpZvrnDt4l9vl0ltVhlhW1a1x60V7a8+kk01LGq9PJUUsIXWSzrCNhzMaNlJryz6L3lOpvAUAAAAAAAAAAAAAAAABw3yV6p8y5tK9knrCYzLa/jdeSmieFNU8ZIlSRIV6MYLIniU4VBInEsJxKiIJhLPtvXPN9XhOL6Tzjv82WNz0Oa576kwnT+6/rZ6try8L5L7T5v9n5HmTq/DsJ016Pv/Ltz8v3+psZwS8+l871JmvM/QYlxHSbzx+vkGG3njXPpjsrgN28vf35EzQAAAAAAAAAAAAAAAAAPP3BPQfnJq1uLW/k1zXdk13GpYVGbTVllJXlKcKkFpwuprLON7OWDI25awvJ2rJu28Y7cSvPRV9y9fIeq2+rT0dIhj7Twfd5/vmDx/0fhbtgLTrf0fk630jM5LXjp1oz+XpDD5nz96/PxLVMzjPRiyXtf5ntoz5G59nmsOh6pun6L4l7lsDL083bsjoHTPjfY802m+atjXtwfL+iAAAAAAAAAAAAAAAAABw7zV7N8dzWGv7S7MNh83j5LeevkVxEfQ3XY8g7P6zgeW5/UMI8q4P2RxnTzVVrX+kL6bITvfbJPrUbDr2J3O502j1e71z4Ba+iq/Xjwrde63+2VuJ4eTpjcrj8rSe11fpz3PXeIcc7Y6lxylLjUZY3fPVnl55/oeSpVo7H9v5WbyGuZTt5mDobdJ0Xcdap/G+tpevZCfz9vXo+d9AAAAAAAAAAAAAAAAAACx8J+7PHU1p81/Yy4GyvLWzZfXesdDia0r+WI2vlurw1Lqayk03HK8376d4uoVMNezWk8v3PQ/mbYbzrnp1vgtk5akvqdbGsjChLJjb/AFbbembnGXHDLOs6H5+w3u8u/wCkWsvn7xgefrCrd3Hq81G5hP7vNLXqbB9HxUISbR6/BS12rj+nHK7fQpcusvW9Gw/m66h0TlHZvlfU9OD5X1gAAAAAAAAAAAAAAAAALLzx6H4dnXBaWLzVava3lme5chynqWVTxb7PwJ4rl9B4/Thj0Vu54/8AZnNe66lKndaPmc8jPt/0fPe7ngtm8HosNd2+0y03brfMaltpO9+bTonTNOr1tXNcjY89Teeu4+aat43NbtzpXM2U9nmxkuy4H0cYX+Th7/BNZz7315U9OtrP1+VtWE2yWa4tuh+b0Q5Rd4K5wvoXgXo34X2e8j5v0AAAAAAAAAAAAAAAAABixpvOrtfO19SllwVpdU7KveeGZDc9fZzxZXs9n0/Gl5XqrWeLblbP0rnGH6zsescqtvT5d/wOsZzvJ7nI2/h+ljdb2rGebXMtryWz+fpzDr2nWsxndk49junDru1+ap+nLoHZ/K1bvz9BXfmuWulw53nPZ5+s82qa77/m5nZL6Trix0iWHu8kcpS6di69b07+TYLW00Xj6LrE17r0eal6W8uesPy36Tq48PsAAAAAAAAAAAAAAAAAcF71xdfPtLFSrSq0KyYbLYjL9cVbvMZrvNbzUcXrp0WpyCHo83ZLriVsd4k89Wvl9fpF5jp+D2+qaPli659vVdHgW58Po6ziNp5r9D87uuT53Nrn0/KcZrY6dtsuQT7nS8PqWP3nZNdrx68aVxk8p9X41e0trj3eS13Grqffy3+DhHtzp5CXNTpeUpbzObulb2uOuEU6Os2uw42vnWv+0fG3tX8p+l3geT1AAAAAAAAAAAAAAAAAOb9I1yPH1C6t9axdG9yEaJuWmZ76vzMriu3R+n83hk/as7p56k7du0vleGyd/wCvDy5P07snLt5WvvWumcOnG6XrLzt0zzCaZ+j+HJGae5taORpebrjLfK23yPp0Mdd0fl/StpquVm7LPVMb9f413iZ9sm7q6p6j7/BVt5o7yylzcpbV9i1rOq0tHpfLdnzTP6nnrNaRqzpm8Bk7HnrG+7fA30F/L/ossOHoAAAAAAAAAAAAAAAAAY/IQPGuD3XRruyy+vZlNHz2DzP2vj9rx+mY76HzfUut8Gk+f7vTXN+L2XXnn/Vni+TfP0neeXKXk9noa981U5fVvOOKzm0Ndsvf5Nrm1i9jOWetw8/bOUMVN4/Xf3+Lnszt1rtt7PJm7rUZeHo6lR5fL147paavHn12bI6Qzd3yfNY8umyXensbzWw6LDj1zFtYpa8bdjdWmjjV99HPBfvnNCgAAAAAAAAAAAAAAAAAPOHnj195rmtOy+Ums1CyurKJ401lSFJLVlpipGksqSyidKIQiIQjBSMIhEslmhMAITQJYRCYIoCMYACEAmgEYwjEJoKihE7P7J8tepYCgAAAAAAAAAAAAAAAAANP8i+0fIDWHp3NA06yu7WRCMLIQilgjCyKESCMpECCUjCMAiAIJZiMIiEYRJYwESBFCJGaSJNAEYREIwiZCJAiBXp/0l549DwFAAAAAAAAAAAAAAAAAAU/IfsDzTLyqjY4erG0u7WCEahAiEIwsiRlhCaWwSEYUJS5WlNchHGkyMMZKZObF3xWgsKvoYqe5vpbWpvNSWNTUoLmrvnaXVW51m2hTn8frjGUTywlKk1CBXjbSF7Gwgdu9mfN72xHThQAAAAAAAAAAAAAAAAAEOGd00GXxtf30q6PZ3lnYjAQhGCIRlJoyomkQpaVNx9vi0eboVh7/Bp823Q3jVJ9rn6Y1afapunLVqu0LjQtgpZfz+rGTbTR9/zdenzjWMJPmFmMrX7XOnjsxqPn9OCtMliPyX7G9s0AjOU1UU4XMxazXlUqe6/PPrwy4oAAAAAAAAAAAAAAAAABgc9ax4TwtLEN2dtGwYvadvArwowKssgmgRUmoqyW3aPlvf4OmY+ws/vfncxLhKUuwNbp8um0w1Snjpt8dLkx03iOgw59t0o6pDnvaaWtx59NgpYZz65Wnjocut7irhw9FOlcx5daUZ4rKLIxqZQw7Z8xGgz9PzdbB6j510WAoAAAAAAAAAAAAAAAAAADxjpP0Dx+b4B1nasKuFjfwss5ruUozVRTjPCgIRqZbMwjas3bzqPXs0cGejMpZ5fh6qyseQXtTJ14Yk+gWRPnXf8A0ernznzX0AHhvL+zR5CyXqseYM16FHD8t1oc7vt2GAv8gJZgAAAAAAAAAAAAAAAAAAAAAAAQiPO3LfbaPFmU9fq8s5H0qOAZjs6OVZXoA1jL5BUIgAAAAAAAAAAAAAAAAAAAAAAAAAAAAAAAAAAAAAAAAAAAAAAAAAAAAAAAAAAAAAAAAAAAAAAAAAAAAAAAAAAAAAAAAAAAAAAAAAAAAAAAAAAAAAAAAAAAAAAAAAAAAAAAAAAAAAAAAAAAAAAAAAAAAAAAAAAAAAAAAAAAAAAAAAAAAAAAAAAAAAAAAAAAAAAAAAAAAAAAAAAAAAAAAAAAAAAAAAAAAAAAAAAAAAAAAAAAAAAAAAAAAAAAAAAAAAAAAAB//8QANhAAAAYBAwIEBQMEAgIDAAAAAAECAwQFBhESEwcUEBUhUBYgIjAxIzJAJCUzQRc0NaBCRGD/2gAIAQEAAQUC/wDSBNaCCpsNAaeafT77uSOVogqbCQFXNQgfEFGFZJRpB5TRkPiyjB5hTEDzaoIfHFUDzqtCs8hkPj1sHnoVnckHnlgDzm1UFZpemZ5ffmDyjIVBdpk6SXb3oVMuFBMi0dCkTDDkNRkUFAej7Do7NyinMPtSWfazPaUvOZSXizezCs4sx8b2pg8zuTB5hej4vvDB5VdmFZJdKB3t4YO6ux5rbmDsLNQJ2xWCatFBMKU4pdORM+VGCiMNhfapBmQ+kEZCLX1LsHtmWZNrUp7iFFpm0Lh1MadJhUyo0Ncdg2TpWjquBtCGo6G3qmUQKBNdZbprF0k0E/ViC+hs0LIbtoJRmRmjd9Rg9DNSGVk1SxJzOM2zlLL9rUWqbVKG5xEekavlSw3jjpk7BqYp7qVI5KUKeptrFDIebVQPISUGMkPtoaS1CeUjy9RhNEy6TtHwIqYq5b3FGIWTpy3jZ2jY0NGAlCA3HdccKDIMFXvaHAUQKuQEw2yBMJ02GEynGUOWMk0v2M9Zd/ZuJXIs9P7koOFNSlxSJ0YlER6qJSHNBqoKc9PoMMSCjvyIvmsLEMj7gvaj/FxENmOWxRw7VyIhu/j6OnRvKJinHBWAmWileaPCwkTJpFDfEVc+I05Mk7DUQiS5IeW7JEfew3zPBKlGCgRpC26WGQTXxmyQy2gWKGyLkJZG4jUnthE7xmuYlQXOQSXpEZaTlsERyI3IiYkh3iNOUwb6zCpDm2FJ7KRKbbjLJHOZV84iOrslgqKboVDPWJdRNhME65HRJSvfjN+m6ie0uJ3N5HG5atOug1McihyrMauGNrg43ATLoJtSQhLxBJS1EUJaQmA4QUy20lLSAZKQESH1IW5J1fsnGx3Tiy5Vvg1vKCXH2h3Dxqb7QmUWMA1qmxUmlde8pcQ9TimkoddInr+HpTRLq3CW5RvsuFSkQKsSPLYZBdOy7E/6j8Cw8xb1NKUbVoeRINRJ3tWtcqvlGatseRJqplbYx7WH7PmF9YVRnkl+Ki7sZcxbZtuxyTvU1FbNUJxZ8LgeYfceS5tSpKnmUI7UaOOKU/LN/bJIji8iu3eI53OySULOMUNuQSYe5btKQXVpbN6oSlxVY2hy0ru1eZ52w0/ysafUTZpMnHNORPFviuA1NqESR5fKevKp5ldnXaO3VQ8z5tW8Z3EMwu/hbSyUxYSGrJ6DLdrHU5DYKHn8hxb9q9ENWSyRKuHpaVPNqM3ouzHb1VLMbcQ837NnbG5k/wBrb3bLvGSanRno6ER5aH21LbdL/wCJOykyJMqS+4p5xtPOh9C5RcZLI3k2Tbq2nFGlx9hJFPU0E2Rgpuwk2SWw/YqJRXMTiVdQVF5pC1lW/OSnCUOVQPeYSl8gkpg/qhWuNk20w28iDKgsR+4ibJenM7eMpc81bUDnOGK9yXJbU3MUpXdGNrwWlxwMpdYUttS1dq2O1YHbMgmGiBIbFReSap6PIalMey5a2S6l2ShCEPoVGXJRKx9MxtxKLZ9pJ276h5nLB2ViYOXNWCkTjBqnGW2aZcM3XtpBjs3DDkB0m+O1BMW5iKqYxMrY0Wc/5BBD0KriymqyqWJ0SA0tUGtSy6ypoNssE2TMdLkZ6tND3YNvNuQ1B12Cy6dq0a5U9hbs2RGnqsn0zWJ8UiOpk8Eg2WTGiC8TL7Go1GN351T5GSi9ktWifjW5EyzuLu+X+hcTsX4ev2SUNSGrRCwaStDRoUkp7DSVvQJCmFVrTSk0boJmh0UqiQa5FKkKmRtzllqhqeTbiLyr1nWDcpDNq5HHn0gKu5YK7fdJ53cJkZLzdbNVLZ1MbhqNQZgzG4ajcNw3DcNw3mMQyNPssv8Ax5ixwSi1Nuc8aK818sfx1Go1Go1Go1GvyHoZI2pClqSfIORkwexAORHSZy0aqlyNe9eI0okuJS0oSpcxUpmluJpHiCRHxVhtUqhnDdfQBBkxrGOtnYbpqgSCcJRbgkwYMwZjcNw3DcN43jcNwJZkeK3xXML2OZbNpss+jaoh/qJkoN2kqCU9i+o3DcN43jcNw3DcN43DcNfAw8Wx2YUhI5WNWnmuQpLjizcZbUVfIlhlic0pTcta4q1oJw2VBKiZcXaNvschGe4wStDlym3iZbNlJqfMlNuuFC3Rj/pDDsyIwnmJRbtQYMwZhThA3TBqMbhvBupIKmMIFRkfk06JJZmxfYsojKjWuUxikVidY8909kPEFqkYueqFbgZmNRqNRqNRqNw3DeOUiDk6Owkp1cH5jLzSHoxJXJgkDsKxIO7q0hWQVxA8jrSHxPXEDyqAPiyCQ+L4AVl8QKzHUHlroPLJZg8rng8ptTHxPbj4nugu/uFhVvZKBzZShzuLjNX0hsiyN0gWTOD4lUPiLUR7F6Sa6C4REkyJDC6uE5ZCXVkxKs1Kiy+kjPc3eSYxByWPAht10H2LL2VPULaysqq+jLj2E14ih4lYqrWbWUxBneaxR5lFMeYMDvWx3aB3iAc1sHYNkDs0EF3baAvIEkS8hLWVbKmtzJDritxjUxqNTGp/Of2tB/8AX+RP5pkfqSqrkxyzVovGWm3U2m1ufemnzTplax6if7JOZ7iJjLhnWZlCJE2dIW1HbnPyKfIbvzmfRurVZ4xCalR7ajr2ozzCkLyuOVWDsJYObKMHIfMGtR/IR6CT/k/i6jX9D5C/OLRzkOOsrKpsISym45ES3VTZSJVnaSEqsKNwu3wvI+8b9kiF2OS5hF5GrJBpEY90BQrVGmTh6P0LhnfDfb3PdSY3G39iT/l/jGX9P8hHoMVuokCU/m2NOQJFjCkSYWT1sandtozclxSFDF4ZKjNOPRXceu2ryD7HlP8AQ389ruo9+1xiCv8Aoj9RWsIWWIpVy30b+2u7UyOprTZxz9PnL8zS2yPva/YP/q/IWhCqQl2RY40/FreBfIWMoKkRVQWlW8GaRY99MBxshQ3DlJPiyWZkf2LqDCXLoKCa3aV+XwuN1xB9l+AhW1VBkl9XOTupViqH8SR1SslySTZIcSaVfNoLQtJn3tDGg0MbTG0bRtG0Hxdt46eEZW12dP3U25ZO2F8UjHivpbYmW0ycKR5BQkPtGHCJKsIyM4Ej2KzZKRAwB4472bRtsiUg0sqb2hs0boTKFnMarHC7NtLmV11TVI+dvbvslMOzDToZpIh9I+kfSPQfSNSGpDUhuG8xuG4xvUNxjU/mMy4/lbQve+mxKMaTM1spNKkbgTatYEqJHa8zrNTvICCbtu4GC2cq2xn2LXyTqLlcXnr7pPoZ+hHodVMVHck3J9o9INb13PTYL9fkItQZJ8C/MxSVSfn0GhjaobFDYocahxqHGocZjjHGONI2IG1A0bGqdP0xqgbkjeN5jeYJZkN5hK1EDcWY1UPqHqPUQ9TV04TsxH2LqNuKQ481YU9pKjuq4lGfGoNtp1NMTjNn1cY1HAoGwZDhHEQ4i140jjQCQ2QXtcVtbH0D6BqkhqQ1Go3GNyhuUNVDcY1Meo9fn0MaGNo2jYNg2DZ6bSGhfPD/AHYMjZinsWStdzY4ZPOZhLUh+I6/IdW4bjhjcoEah6j1Gg0Gg0Mi9R9Q08EkD+0ZA/DQxtGg0G0bRtBF/A2rMV0Ge8vGYkiBQexWx7OpOEuKhOr/AHO/u+/oNBt+1oY2KBMuKHE4NihsMbRtIbUjRsaNj9EatDVsbkDcN43qG9Y3rG5Y1UI+pvMT46mcFzJt5PsefOrhZrMlNVWZq1M1+h6+BEY2qHGscTg4nBxLBtmNg2JG1A2NjRA/TH6Q1bH0D6BuQN6BuIbxyKHIscjg5HBvWDM/4BqIhyEDXoOQxyKDCj31zzLUZM1tKah6TIqvYupidMrvtZmPKdfFebTkeYZoXvcG5Rj18NBoQ0Gg0+XT+Ef5+wZeGugNwxvBq1TqQ9BGQTq8Cwyst5MLC8WrnPY+p5aZS2ta8Sc1Dbq0CW7uHIkciRypHKQJaTH+vHX75D8fe1+zC/fiNcVdReydTSa+Iq2Rx1io8NTfYmZPIXpwtjiaBIZIHxD8jdr9/X7WxY0MaDTw9DH0j6R6DVIP0G5KiUeh7xuMbzG5QJahH/xxE7IvsnVGKl2TG9Iay2rhkXbT/wB3yoJPgQ18NDGivl1IakNUjUhuTrqN5DeNxgzUCWohuUDUoeog1siYPhmcQXj8og5RykhdRLSaKpCYHbPbyr52xSXGzbaekGW5RlT225uunvRY8OVKckUN1FX8OXxKThdycCzqJ9Q7XI3rQWiPZM/+qxL0gXLaWrGCesSf6qVtQalI3biG8bhvMamDNQ3qClEZarMevyF6eGnjp46eEusnV3yMI3Kw3ymrpYZlYG/QQJAu8YmsqkLeYV5ipAqqpEmjL4QmSfM8cOgr7TGmokheGFbFaVFkiUUxce1yNdcT/UVxSYfUBS5qeoljFas7d+zXTNmqd7L1LWbFjMYXETcfqKgHrDm/nT7OnqY9BoNB6eGvy6DQVuNWNgKelr65zP5vdZGI8WTJXV4Fczzg4xj9cK+pBAvDLscj2MOU2baj0SFbdrMl1gIsmg3bEQi2zKziS1MkzlMptK6fE7wrfpiaUzaibXO8Ja4w3yX3svVgv0chIltSi5FViC8sm/fMvl0EaHJmOQcIsJCq/EIVWUSdRv2EF5mPLRiEqZJh4PXxUyL3HKZPxRPtlwp9qs6+HKUoiBENBbTGYMGyc531jTQE04YQlA0IR9d9c4pDZvusNtS2Yj0G7kE1ew4U+Jc40cMYajkyj2Xqyn+12DiXKF1Ws2q/8TM/G0aAkjYY2DjHGY2jQwTRmOIcIJoGyQNoEyYRGcWcTDsjmiL0wsTDOIYnVkeQY5DQ5f5LJKVWyJCqaBQ0UF/KMWhk9nVm6PLcgtxDxtCHIWINpKLBiw06DQEFKSks6yJhwPP7jWRqIiJQIKjJZbREShqNEU48yjRyUlaIkgzQqg3LjwUoVBcmnET09Rvyz2XqujWlaZKTXrSfdVH/AI2QWqNnrxkONI2DZ6xcYvpgZ6eZG6C6YXyj/wCMbwg504yJAl4dkcJsNJbUaI9QGjxVsRr3HYxt5hdhy6yp8n5jZg7SmZDmUTNH7WykBiHKlKRRPqVCw99YZjtR2tA+XK6RAi8PQWd7X1iMgzt2aFuG4Zj1BINSmkIimlBtr0MzrYrcJEYjsJU6waly2HnZDrEY4dAw4lV3OXGar+mLZryn2XMKxNtTVh8dhISaLKmIzgPfs8IUCZZSKjpknSvo6mqTtG0fSQ1QY0HUi67eEmO8sN1b6wdQ3HRBqimm3i2T7busyumj1+M5LftR+ltmoN9K4pD/AIurB/xswwCxntRFrGIyWGUKm+ET9QfgLkNtiyyisrkW/UZbiJdlLmPbtfFqOtwN+oRtaCSESMbYdkuy3X0mw3KcS6KOojSXGbKC9YVm86PJ3EIa6Tp1yP2WSklDIdYdzZ6FcU5617v+P/eP0MrIJ9RS19HGEmVHhsXPU0yVLyrI5xqVLdNKXUiJfWdeda69k+SIjRUD0IWNPAtXkpShI6iWTtnbQm4dHWHkVWPOWzEawjylAyIyYJDbcJG1jUTneNl++roTdpnLbCJ2Yz5QkS35KvFDa3TJLDANJg1qcBJNRxohJJ6WuQGGjrkSH07amtetJT7LjBNs+aTbuQzEFpIcdZ6SM62/sskvTqHX9pcW7ZOtUpF2Dn+P/eC1aK3H/DPb52ytdUjkMciwZmfh0vrPUegyLJ2qUO3+ZShFtL9sMY9aSjjYnESEVNY2Xl9cG2IrCuQKdJKUO8x7zBrUM7v+KZItJDoUtSz8dDM+AkBJOvJJSGwTQShSzZYYityJLs9UaMVemVK3hCTcXWLbhIkOOCmNMNm1lqdTYL1b6PJ1leyyfRPU1hB0xr31lCX9vX/jMV7jfl/IQ5BkUR+Hd+P4BJUMcrTqKTUw+8TDPE5JeVJq4RY/HRJY0Diiabcs2iBTFzlMMGy1oMusSrqnC23ZEfQaCRgNJMlJwDGUjKWK+NeD0CI56IWrXjaZCluPBJbQxHceN1yPXk2zInOJhsUqZc5cpZnqIEFJtu7KxqLFeJdsUXH4Di9rUrU2OkDWjHssn9vUCOuVj61KSKDVVa5px/7wK8asqzQaC2oKu7bk9LmzP/i6WI3S2GQg4RjkE0wvM8z2jaMsellDj41YyyiY5VQk1k+Fv2jQHDimc6xr6tG0HsSOos5Ui3gWmOU8BWX4ukLzzFUhfUPGEk71MoiS8+b7jbC3CStpsExqCi2DkNrF75UEhFrD0fsmkoiVjrjhuxceakynZbgQg2AhPkkZps69qgZRRVUyW9LemPFrM+iB0hT/AGf2WevYicyiQdnGVDnY5tOEv9h/mNKkQ36XqWwaYd7STyI0q8FKQkP3FTFEjO8YjjEbJplz4gjmPOTEq5h872SumHpU6WFNtIL4nsIhO57coTKze8kE7YOuOY5T3GVyregdgZFL6XVkKIvphOZgP9MK9Ux/p5V1xO9P6J1zJMarIGSuT8MRYPowJERd5gq3c4t6K3kLyJk8NfzaDKkNtMQUtnMvH4uLzUHIsGKlClGo/UxFjGo0tJqChNaLoKtV/Y5bd+ZzyeIkoI3nbgkpi9K0bca9kn2MOsj3WdyJrtjlXZS8glImXONLPiX+zi3GiNqExjHatGO4QwDtX1m3DupgiYtHI49dAhpXb1kcncjWYcnSJI5mEBVq2kquXU2DkvGIDDxYZElk506SYV05cC+n1gkQW80pK2xbzKTeTslzpaZ2WZJLSd7dm+b8+YZrS2NJMsbIsYOPOujQILepuv1Up5uM3tfmPYu01EeyHK5Vl4xIynlMIj0cbat9SGTfEm4ehRW9+2SZEIDRqXbu8r/TFG3EfZOpSVdxIksRUv38W0XPbLTGfUOfsaSlKO5a1SxOeCKCQ+I2NVaBHh47GR5niDITkGIkZZDi4+JcbIfFWNj4oxUx57ibgL4flk5itZKJ9iWhlDnIzbTclo7BOW5M2bec5SgI6iZKkI6j2urfUoJzjH5ZyJfTqQb1ZiExHwsSVTIVsykehEyw6+qJHbiocsC1bZclKjwGI7NjaOTfAi9YkQ5b25tA+hQaQbo5kPh91cx/eQ9XFpV20aQSiTgCNuJeydS2nXIHlO9b1WxveiJjwsX15F/tjVrz6Y9NGSEtRoxOWsRoOXT6gp554FoDfSgLmhczUKlKBrUYMzB6GG3XWREynJYYjZ/ZGMttoWQkqHIMFEfHauDgUCjpbCn1GluLoRydgMiUaHHkBS3XlMVxha247b0pb7EOvN0f01c1KmvTF+EWI5LcU6kwWxDcSP3JqcduJNo6ggfoh5XpDa1OycLWw9FYQjixP2TNmOWt1D4lkbkTFW/rc/EeclEZc+WZL51nxODjWNiwbDpjstR2DQ7KOEQ46jXXpZI6eUiM1iGROJsMZuKmMD8NPQ0g0hRmCjqUe9DJOGtR6eDMZx4MsIZD0xDI2rdUVRwpfktwidccdURDQRICpJyH+QbExmYzCpi5kpUpT8MsYqHTStX5G01KYShltojefs1f1OOo46H2S/a5a11BoWv1bSKhrhNX4Y/xRunEySzL6fx4MenwI3oLeDY3asYviEaVYwccwyzXaRSgT8rqKqDimBIJzJpCSV1AyOqjZHW5KlcbpxZp0rcxkGXjoCIbQtv10SgLMzCgoglClG1HbbH+pUh1RR4zjqokXauwmnCVvMz1GojQy0NT9k9OciVMSOw9McnTk7cUq41dDtLR6W6ojInHNRHSsWLnE3ELQpCuWTVI46v2SejlhXDXFYF6kn0EMy5F/iNobPTk3F3+buMlmOYV0q/osFxyxpXcbnM2l5Z5tcRnNDdXf+S3FZUwsYxy5VkVJ8ZFlzMLL8ty6nua+d1Ax+Y3keQ1tvH5GyCnG0l3UcgmWwYfktsA7FkHNQDlEY5jMIZMiQSnSUTbANw97EN18MM70OTNFqNchze0R87BCNNq2RIvGXiiZLX10RduTjruQqWyizNCrLM7i0ju2sx5ZzZRmb7xjnfBuOKHqITanZDSONv2T8jKmOCcbiGwmVHcXFV+o4IzrRNVGSron7O9O2mQcusatE/MLOyQxfPxSVaan5m4DsXR37w76QO7kGDkPGDU6YQytwattBalLNpLGqpiGyNRKG5AJxI5CDE3gU5PUtxNtMSFT5JhMmQhRyJCgbi1fwsOi93kfs3UZpTDjsGbLU7Tm2ddDdbfcH5Lw+kapG5I3pG4bxvG4xvUN6xqZ/wS/g9LInPk/s2exeSCH/2RjLlfPQ/uH/L1+x0eTrP9mydnmrlpMjV6tRiMnpH7vb+jrf0ezW7fJXWbXDOSWpRv8j/7v4OnjoP9/wAnpBtTD9mcTvRkjJs2CQj0cd/PzH98/wA+Go3EN6QbqRzoHMQ5xzDn0BSCCVpX9wvU8Tsnad5C0uI9mzuNxy5NhHhhi2eelPfj1+X8/OZkQN5A7hI7kh3A5zHOoc6xzuDmWEK3eDyvXasxxOGO2fMdnIHZPgoC9CgGCr0goDQKE2hslDXw1G5I3pIcrY52wb7Y7lA7lIKT6sT5G3pzKkTMR9m6iQlux0VLCTKGwhb33VMSHB2b47J4dgsdgY7FI7JodkyOzYHaRwcRo0qYkckeI003xq1Jlwdu8O0eBQnR2CgUEdkgNRYyTs1kTKd5tcy9ZBERH6fY0EVJ7OnDXDhns2XxueARBf0k/wDN6eOo3ENQayMRUtutOVJ6disdiY7AFBQOzbBRWR2zA4WQ42g2ltHvjMuPBxZKPX5dRqCFzISIBpUai0PXUhoY0UNihxODgXrwLBMLIJjaqw7G4OVSKqtjU9f7NdN8lfLmtMSnZ6ng5MHdEDlKByljuHBzOjlcMb1mD18Eq2m6st8JRCDpwkX6Zg/nIL2ODlJDZyI5DvYoOfGIHYsA7NAOzMeZPDzGUDnTDBsko0IS2pbCHFkhOm0hoXzo/PSEv7n7PJb5Y9qf9w1Exo239Ps6GDSZBoliLLksgrljgOzaB2YOyWPMXwdhJMd9KHeSjHPIMGtwwr6xtIi0+5p4akCMlDidMNUty8E4xk7howDMnCZ6Y5m6UfpJlCl4hh7GKs+0ZD0/yZqxexTIY6JLbKX5EJCXO1MdsQ7VA7dscDQ4mxsQNpDQgfqPx9zQGaSHIgIhzHQilunTbw3K3Q302zJwmelGWOAukGRmaOjdkYT0YdDXRurIM9IcYbCOl2GpDfT7DWw3hWJtGjH6JsNQILA0IvcJ6ULg2R6y3Ps+g3JCELdNFJdOhnFcnfNvp7mbob6VZesm+j16oM9GpmqejLIb6N1xBPSDHCDPSzEGib6cYW0aMMxNBR8doIoTHjoGhF/+AyjpjImzXenOY7meluXuhvpDkqlN9G5xkz0ZaCOjlIRo6T4mkNdMcOaCMBw9Bt4zjrRMwIMYv/Qi/8QANREAAQQBAgQEBAQGAwEAAAAAAQACAxEEEiEFMUBBEBMiURQgMkIVMGGRIzNQUmBxBkOAgf/aAAgBAwEBPwH/AMl18tBU1AxjsnviJ9IWodh4HZWrK3QRFrQFsPlBvqAvSrYrYmmIcwnGP7QrZ7K2IlvZX+iNlWtKoe6ulZK9S9RQDgmm1pWhC2lc+nHy18t+JcFuU1p7L1q3LUVe9rX+q8xawhJSa7V0gRXnLzl5xXnFeaV5rl5pTZbNFAitwrb7Kx7IbFSRCQ2jitOxUX8NukLW5GybKlGl3zWg6imu1dGPDkaV/Ow6hfyuutkIi76ivKrkUzV9yc3UKK0kbK65olWqKpWB3TJg3ox4TSBp3XnM915jT3XmNHdGVnuvOb2Qc48mlRxlwt2ya3QrVq/yHxtk+pfBxr4NnuUMNnuU3EivdPx4mDYLHDXM6QpjQ6Q32TY2E7hOx4z2XkRDkAhGwdlVdGRqG6ijEbaHStZpcXe6BpHpXXXp5qAZvmfxa09L38T1J/wE+PNUuS38KVKlS0rStK0rStK0qlQVIrZWFfSDxsKwr6PbqKVKh4X+XJIGCyjltCGbEe6ZkMf3WsO5Hw5eJ621atWgsPhGRl+qqb7qVoY4tCZDJJ9IRw2xv1zn/wCJ7Wu7LLwLGtqwseOtVKWI6PQN06bKaK0pnEH8nhMyS76SvidP1ik14dy6YfLfjSZjvfyCZghu8jqTcnExf5Ys/usbiLWwu+JJ9XZSZWDB/LbZ/dT8VyZ9o9gmtdzcb8MiTQyhzWJCYmepWn5DGi1lSMe+2LUQVE4yMpywDZPWWm5Gjk0L4uTtQRyJT9yJJ5ol/YLS9xtx8S9rea1Of9KZEG79054bzUkupZL7TXJoMrk1w+1YG+rpB82/iSFfshfiDae4tFhBs0v1bBMhaxWAn5A7J8l7lTZIbs1PP9y1l2ycdLaTZTFEfcrhF+SSekHzhE0vWe1Ickb7JqcC4UE1ugUFfgX9gnEv5J7dG7lLKXnSxeluw/dSG9kxqiZrdvyUrg832XDf5PSDxtalqXqWoNHunzv7NUMcmWa1IcAzms1gik3g2R9zh+6HDJ4+TU7GmbzaqI5p0lbIzVt3QkIG6lyhFzUkzsvdxpoTnxhiu1QPNA2UZRo8tqv3WCNMA6MeMhoJj2jdyObBH9lp/FK+loTOLZHYJnEsspnEpm80OLV9TQmf8gxzF5MjaCnzI2vNSbf7TeIDs9fibm/cncTf/wBnL2TMmOUHzI6T/JaPQKU2fR0RCyi5ta5eafKX/wCkTfNNNImytVC0FVupYe8I6Mc/HiUxhjtqvMIuloy3DsosfLe3VYCifkyNcddaVjsnyGazIedJ2FIHHU80svFbBHqslaitSjn0lRZBOzP3UNN37qbKZEE+abMdpGwRezF9DdynAuNnwpxNBPjcTQKhx3SO0/upKc6m8k2LS3UmwuDS/wB1is0Qhp6Q+HGGOfENKjfL8MIw06rWpznCXyzqU3xsrA1raKw8TKxw4Ft2mwZLQAwAC0MbKILS4bqXEmkZpkem8FDj9WydwePk20zgsIHqTOHxR8gn4zjszYL8Me4+pHANU00vwkHcuX4XH7ocLhCHDoW9kMGAdk3HibsAhjxDk1eW32VD/Axy/pw/P1Beaz3Xnx+6OVEO6+Ni5dWOf5GblHFaCAjxVfiv6o8U/VHiZ9yvxF2oblZOW+Rgoo5rl8Y9fFyI5Ep7rA1zzgH+h8Qx3ZEdMT+HT7ANQ4Zk/wBqHCMhDg03cocEf3chwY1u9DgsfcocHgHNDhWMOyHD8Yfao4Y4voFdZf8AT7/8E//EADMRAAEEAAMHAwIFBQEBAAAAAAEAAgMRBBIhBRATMUBBURQiMiBhFTAzQpEjUHGAgVJg/9oACAECAQE/Af8ASqlSylZSspWUhUqVKup032FatWUMwQCpBthBo8rIPKaGgUnN00TbYi8le5y131YpOblPUUFRVFZSiHFBp7rKshWRZfum003aP2XEPYLMfCABRDW80CxZowi5jipBk5clxChKUQ17dERlNdOd9q1ZWYrMVqqKDT3WlKrQiKOUFPIJ1CyRAKokI2dgqFVS4Y8IRDwspHJPiL0+Ms6UC9EcN916YL0wXpmr07VwGo4dpT4KFhG+y18pwJ5FEWKtMkLBS9QRyT3Z9Vp4WYZcqgOZv3+mlSdHmFFPYWGj0gQOYA7qVKlW+VuR1brWu5tX7kZAOQXFvmFJk/amPyGwszXC0NeSAVLTdR8KbDukH3XLo+yw7C5gpcJ/hZHeEGO8LhuPZcM90cg+TgpsQGupmqkk4h/KtRTPj+K9dKvXyeEcdJ9k/GzVoocRLI4WVi3ObLa59I95bAKRleBoU3Ey/wDpDESkfIoyvPdZidx/LpD6OYUbiw6KeQyuzHpCnyWwN8IodJ3TazC+SlOD4f8ATu0ek5hHkiEEOlveOjv6L3Wr+u1avdf9nvdatWrV7rV76Koqunoqulvp73X+bFE6U0ENnPPdO2dM3spMJJFVrhObzC0RN7rQ/sUuKZHp3TSSLTntbzKbibiyRD/qZK9ndYPaWoZItozuHtUE4z1KdE3DYR7s2bmpNlMGrCn4Rrfm1ejEn6ZUkLo+fWUq3F7QuK4/ALgTS/M0E/Dnif0+yjw+Il+RoKLBYaDWQ2VJK06MFbsJDxJLPJY/EtldTUAo8JI51BYaN8ceWRFocFK0RSW1bROjb6Tvur6g0ox3zK4Ua9g5BZ01sZ+RXEYwewbgmwvfyC4bIvmVJOX+0aBMY550UGHylYeMMTh/KNRsT2k81tDTKOpoLRZq5K02JzkIg35L2BabnjLoVCwSPo6Jz8PB8BZT8S+TTstSo8MSfcmRaUFDD3KGvJBtaqiXap0XFlHgLa/6oH26Q/TatPFUmtzGl7G6XakvNqm0Oaeb5ClGQ1wJUrjI/MqQCbFertExjYxajp+jUyMMFuXufzTG1zT3dlNJw26c1CzINea2r+v0lbgLWTyuEuChE0L05kNqPBxjmU8xYUZqR2tg36EWn7Sg/Y1PxrZOZQlY7vubETr2Qw169kYWk6KHBmRRwNwnxFuKayUvQblT35eSqk2EmTiO/wCbtpaznpL3QjMVkPZDDPd3TcBfycnbPgHyKfhcI3yn4eP9q9KTyJX4bNeZqjwkzh8CnYKTu1egzftTcA06M/lOidGRldabxJD7lBgtM0mgQDvjFyTIsqArknLkq1rcXULWP/XPTbJw7cRIQ5XgQazIz4JhrVS4rBxuy5SVM3CxGMZLzLEvw+GlMYjHK0zaEbgMsYslYPGvxEoaGgD/AAsgQap4A4WpoANXqYuOnZQYV8p0TIYsI3MdSmtfiTmfoE0UEESAmPFWpphE3N/ChaWtt3NF4Jyp8jS7KsW4Pnc4dIN2w5GMlJeeyc2L1hlLhlqllDGGDiDKf5UPoY5C6R2YdljcXhcS5rmurKnT4Zzi57iTVJ2JweYODTooMXBE7NGw3/lP28WjQapu2pKzOoJ+3Jyfan7Rlk5lR4qMav1X4pG0e0IbSHcWvxnw1HbEnYI7YmTtpzuCO0cQe6di5nm3FHEynm4riv8AKzE9LX/1eQlCJ57L08nhDCSnsvRSVfVlV9eDwwxJIK/DAhs1vhDZzfCGAb4RwLcvJYfCMY66XpgvTtXAYuEzwsWWwxE/WOpvfgMQ3DvtyGOg55kdo4cd0dqQBHa0PYI7YZ4R2uOzUdrv7BHasx5I7Sn8o47EH9yfNJJ8jfWVur/Tb//EAFUQAAEDAQQFBQsHCQYEBQUAAAEAAgMRBBIhMQUTIkFRMmFxgZEQFCMzQlBScqGx0SAwYoKSweEGFSQ0NUCiwvBDU3ODk7IlVGPSRGSgo/FgdISU4v/aAAgBAQAGPwL/ANEDi8DrW3a4R0yBX4ZWSN4tNfP3KCxkb2rbtcI6XhbWlLIP85q/a1kPRKCv2jGeipX66f8ASf8ABfrLz/lO+C5Up+ouRaD9QfFYQWn7LfisLLaP4fitmwyn6wWGi3/6oWzos9cn4LZ0ZH1yH4LCwWcfWK2bPZh1E/etnvYf5J/7l46IdEK/Wz1Rt+CY52kDSRt5pAZ/2rb0nIPZ9yx0pP1TOX7RtHXO/wCKOstj3fWcVUyAngQt3U1UdECEJ48YH4SsrmPimWiB4fG8VaRv82EncnssthjDRlrCalVMFk7HfFeKsg+o74rCOz/YPxWGq+wvGNH+WF+sj/TC/W+xoX7Qk6qL9pT9oWOkbR9tY2+0f6pWNutP+u74rC1Wo/5z/ivG2jrld8VddOKnjJVPeXF7xgBdVSyzt6aLbtUP1G1VGax/8IWZHWs3LehNG8T2imMb5bmKiktViZHZ63X0mDutB2jZotURlrG4FNFtkZLK47dai50UzRAZFaIZRsi/TV9aLmviilGIa03qoF9lik4gp8wjrebhG9lbpUhtNkaYyah9ytDwUnfUGvFK+IukBOkawtbyqHgnWhkRcxppXnUZutaJASLzqYDimB0sTb5Ple1HR80gfXbieMmu4daN7A70ATmqkimaoHexV2QqXexXbqOrfSQZtIR0RpDZhkdsncx3wPmwjmTxFR7Lx3rxbR9ZVhhZTicl4a0NHM0VV2a2SFw3NC2WWpy8RP8AaRuWea9u20JNaxl7GhRcbTFhxW3pKz15m1VbNamTu4MiQLrU9pIybDktq1Wv7NFU2ub6wRlhttLo3ii1s7nGOPicyq6pnYvBMAjbyedbT2heO7Av7Q9AWzZnnpctWI2s9dZw9oROujw+kFjO3Pc5YzM7c1ym4LB47CsMRxTYa0FcuJRAcT1rcPrYqutjaDXmV8T152qvfJ7FedaXGm6q7/DayN2JwOO5yu0otunrKmFeKr7Ny2rtCgMOOATJ2v5CtFpyMbi5leHBN0TbZPCt8S4+WOHT5rKgkINTer9orGq1Vy8zpW3DIOjFFxjtIJ4LZitZ6lho61u6UJW6Lfqm+TTev2bL2oMFklYwbqZrxMg6kIxBE5vSqS2SMA/9aiq2yWX601VclEDGj0KH71LBaHUh8kx0q7pxWqi1l0HDYb8V42QY+gMltWgj7KMlqkMryfJO5DwLj0lDwTAsxlTJCZpxCDxv6EacpoqELzqes4Zq85tNmtdwVGzRjpOCN2RruA/oK62Xf6Co2p6lfAeDuICum9s5FXbjj0lNMcLhd4ZLCzFXe9VfePBu2Xs4tQaBeY8Xo3+kFqoWl0jsgAh/w9/XRXe9WNrxeFS5D9pUrB2rXSatzAabO5aq/UHNoOC76iN14deqOPFXZaNtUOEreP0h5qc3iEJKYsKHMe7yly3dq5R7VmVyivGuWMz+0rAzGnSrurmIOGKxhjZTO85YujFBewbuQfJJLRwqKMWzZpn4Vz3Jx/N42RU1KvRxR0u3sEA50Qrxe0Jo10Zv8HVoi785WduzezQP51jxNMaii8ZXrWy5za44IEyOJHOmy2hzsc43OvIayy7G+jCUdXYQf8hX5NGvF/BpDDSqq2N905VF1Xi9opzhGOzta4gVxcr1qLBzA1TWMtUbA4AghmaDJbbUuFW0bnzJn6a4h+RDezeh4aclzcBgNv0VG4ulMcm80w9idZGPN5hvR/1wV7WPZLG7sKEzLlBg8VxBRc5rcMqFVpQqkRkDeNQD7kYp4iQ4UO+qu43H4xu4qjhgmW+ycphy3EbwVHbbM7ZfmN7TwPmiGz2C6wyCrnkV7FfOk5cN2GKOjrfPfgtbCIx6LqJ8ZTCaHHGoqizvSMm85w2K4cE9zW6vHIQ5J7i2JpcLvI2R1VWtdNCzV4tuMBr1VQktFrZeDi6jGt9i1T477SA40FOvAKQx+DvDavYD3J5micbuWBwHPgntkkljoORjXpyV4utbqeTedw6EHSNkfeZWrnHEU/8AlANiJa00btGtD1pocJI63i26M+nFa58xf4K/QO9ieW2gx3cr7l3uA+tbt8GrQeOWSc4uwuGgvV2uxas2eWY3OXHez7PYqR2WV7QwcRUq5HYLzKjaLjWnavAV1bsungquOHOr4rU7hxXhJTTPF5wKHhMDweU8kkVw5eXtW3cvUyF04oHUOyx2QEbzHUIpRNnhdi05cQgDNSv0DgtXS0Oo6oNynT8ULNLLICDUGmLSnR1c5rsaXhhxojejJvUqdYMxv6U5hirexO3vQdFZmgNyLnIWhsV15G3Q4FGSEt2hQg5FVpBd4kLVxtvucdzUI5HN1udA3LpVBOMN4YqWiW8AaioAVXShEOeKK88O71mwlHD6SbLE8OY8VBGRHmeGenINE7Z3FWS1szjeHdhRkj5Em0OgqkkchcODgAr1y7gOVTCmW5aptC153OHw50GvGxdxBJdg0qpjB8EG1acc8uVkm2cWW88HVtLm0b21QHBt0gOPWehOc5rXsDrvKNCKdHFF96jL1wOvEhOv3HeS3iPo/iqBgrWovSUyXhDBVtS3Fpr8E4+BNBvuoNM1mqXDGow6ablSW0Q8rOOSmC2LaAcCS6UnHsyVHWtnLvcpx6slG6zWnkl248UBO514ijmgVV1kc4J3hoQc+zzVZyTgN+fSrmpFK1G+ixaVgHdi8W4rZbI1Vq89S5LU9s9Gznkue29GOpOj0lJG+Nh2TFHdLueqEM8bLzCQ3I1bz86a9tmvNBx2U8RPuR12WuzCdG6CW800PgSVs2G0H/J/FbOibSepvxWujsbYsaeGwd7lWSRnRmvHtHqtWNoPYqOtD8FfitUrTxBRe+eRznZm8s39qxB7VyfavFhchvYm0c50GToq4U5ky0QPDmPFQR5mmcfIbe7EHHJSwFtHsl2a50UFskeG97VheTzZIPhlr9UrVs1l3Ogjd8E03Ztk1bSN4oexbLrX2PXLtftW021O6f8A5VBHMOz4rJ3s+K/FeMCxkC8aP66k50bg94GDa0r7F+pMb60/4LCCz/67kGW6yw6veGyHtWo1UcVOL0CLNI4Vo6u5MhkfAGO3nMLdvoWyCiDLNNC47wdy5Y1n0cV4yIg5YLkh9RW8FellJj4ZUV1twnfsq+WSHhw/FXtWbv0k2ZtmBpxK1jLSY2ZBjQ3DtTLRDZ4i9m+maD5oHD1AaJjCylwctzcVrI3A1zTrDav7Ql0T/e1VMjx0KgcfndTaHfosp2voHirzTUHzK6EjlNIUjHZtdRNfXxjAVJZX01brZZ33TkcT+CIGW753bYD0qjImt6EJfQz6EBepTerhtT3erF8Sr0kko57oRY23lhrXxJ+C29KO/wBJw+5D/i7ifVesLVaHjmj+K2bPM/1nALwdla361UWsiDQeDj8UHyN1g4OVZNHmvAOHwTWwWXVgGuBr9yHgW4Nu5EXudbNnbj1r9WAHqosfGyh3URNGtqtiajxi0gZFbdBKzZkHP3a/OM0PbH80Dj/t+HmXJWhowDtpRWnfH4N3QnTNzbJEexyhtG57cOj5+hyTm3NpmFa0wWPtcVU3QvHMWLwOpUvuJ5o1RsUp+qAqNszseBB9yoYJOt1Fi4N5gSVR7sk6waJgbej8ZK8YNPMiZrZO9p31utW3ax2lyr3z2VCrZrbNh6MirIG2xgzaW3XoTMaRXAg5gqiFtaNg7Mo5uPUqg4FZqnzgIOIxV2V36VBhIOP0vMjdEap150Wtv7uhRzgZtoepS2Y+UDTpUkwcA0FpPVirDI+NwLNY3HgHYez9wZJ5L9h33LwcV9o4Ox9qpLo2aZ3FzbwQJ0RcA8oQGvuXhrNMxpzLWOJ9yLrNZ5WPGT5L59610VjbdO9rgmX7G8sZ6N2p9qLiyRmNfFg/zLw8176t1XhIOdGRl03uVzpsTqx05sCtmRq5TV41g6CgGxivGipFHWpvGnFY2UqhgoOdGyTRuuN8W4CopwV5z5geYGivOmugb3AqoPy81msSsXjtWMoUVuiEjqeTTxjd4UVss7r0UzBIw8QR5j0dpsP2WvFneOmuKfhyMVTKjqK2QVwFSB1hXHEuLHTHHmd8EWcD87eldQVorzYH141To6UqMKkDFN11uja6npBftGP/AFAsbez/AFF+uxdq/XI+wr9bPVEV4yQ/5aymP1V+qSnqb8VQ2CQ/ZWxow9cn4LDRrP8AVPwWFhh7SV+q2X7B+K2Y7O3ojXjGD/LC/Wv4Gr9ed1ALHSM3atq3TH66qbTL9spzTI441TGYhrW0wK5cq5cnYF4x32QvGE/VVI3doTLa+0QhjxXnV1znHnCOsnkYBnRRwayR19rjieFEYYsrgKmnmAdqrM6lRvLm/BRRWl74pIH3o5Y6Xm8RirPYISSyzRNiaTnQCnmOcMzbRw6Ux5/t4R7QjU06t61x/tW3HdIVivOpHJbzC8fRewffRSWaS9eYbq5R7F41YSBeNZ2rx7V48Lx3sXjCepb1iR1uWDmLlHqatRQ0Lq1qmh7hsNuijQMOpZ/u3X93ymgAlR0cdiO8rjA2vFPlZFdqLzgDezViIwHhB7FLdyuNTu+cI7SxsZf6JqadXmWaH02EJ1ldyrLM6LqrUewhPeBytpGz8qNzq9BUjnkCRk4eLopSjcE+2sjMesN6leZQCR5cypJaThkoTaYxJU41C1kdiY08QsMlZDYzTXQ33dK8avHOWMru1YuJ+QP3jr+75TWhxB5lqd4iu+xOdU3a8FLLdDXtrnwUEbgLsd9xx+ip3sxZeoD0LZK/NNtf4aMeCd6beHSPMukLBk20NEzRztND7C1NnoTSrStsZqdvD4IK+3MMd7lCAi4hHpWjnAZ2fH5hqP7vX6fyo32iz2i6Djqhe9icH2qSLZp4SF4TjDpKG6TzqSzv1klc3thcQpJIRdbQ0dJm6vMtmuOaln1pxNAyibPC8skjNWuG4oTijZmbMrOB+HmTR2kcmyO1buvD/tVoh4tr2Im7vVoNKDuTSRv2g2l057lFCQa4J3MrgKsT/L1N3D5lw/d2+ufk4iqawOLK8618umLTV2OrzHvVzXO6U21y263yPfiGX6Rt6UNa4WkNxGxTH7023Stj1R2Bc8npCGeLir4kcm2yJznM5MrPSamWqzvD45BeafMcj4vGQ7bTzqC3t/to6nmO8KdnouqqNNNruVa4hNks0sM4Hkzsv/j7UYrboWwSVGbbQ5vsp96Ep0XE3arjO4hRwRvsBAbnFGQeglzitpwJ+XVO6B7v3XMLlBNGs2g47NPlBNaMTdVSoLEGPjkZv4hXLsbuctQbKQGjyWigTBXHFXStk4L812x36NOdgnyH/A+Y54iK1YVpLQUjsbJO5zPVK1wZUSNRjyo/fmsV1IERFw5kGQWSUPGfhCU0SXqHNWMaOhLHTQiRxLi7P5gXzQVxKldZpr8eF1xFK4LlBcpZ9zf3N6yWS5K5IWQWQ7maz+W0dPyhcxQvz2cN9ESYrGTFXzaWg8AqF3s7l2eaWvANWHfDlTUTp2phAAFayPAVltdsNZavjJ43XFo93mNnkxW8OhPTkPd7VrBnGUXDr7lULpojq442EjMK+99cVE9rXC7E1uJ4fJ6Fsur1d15Zl8zkslksll3NyzC5S5S5S5Sz7gHBZLkrkBckfJwWfyrJzvmP/uu8x/nKDxtgt1Og4OC75byJYdYOyqmY00vO37lQELJYud1KmttRd7F5SGrY4dJW5coLlLlrNZlcorNXnYkrJclclZBZLIfLzWfzhx7tfmtHc8Zd2uJ8x/lRo44kau1sH1BX3J7HOq+ytkhPVl7CpJLNIWOOBI3hFxdWpWazXKKzWfyK+aMlksGE9Su2ewWqY8I4XOPsVgsdrZdmigaHt4Hh5jtUBOxabKGu59lflBoR5yiMrR0YH+VPR/fMlyT2LBjlyV+KzHauU3tXjGrGUdi8Z/CuW77Kx1nsXIf2rxZ+0vFDtK8U1chg6lu7F+CzXKK5RTcU0NrsYclR6D0i9wk5NmkcOUPRPP5kfa4xtMsjZB0iqNra4CDSNldj67MPbRPwWPdyK5J7FyHdi5BXJW77QXKZ9pctnavGsXjm9hXjR2Fcv2LlnsWbuxYXlk5ck9q8X7V4r2rxYXIYuSz7K3fZC5S8Y7tXjHdqzPb+4Z9z8Vl3NqoFOCa1zgCOK1rJLtzyhmCrHPbBSeSBjpB9KmPmOPDl2E/zLQukQQS2N1mf9XJYzO7U8OAL8Mwtg06FXWO7Vi93auUe3zMO5lisvaslURZLk+1cgKjmq3S6Rsuts0AjjY0kjbIqShNZtC2cPGTni/Tt8yWI+lY3D3oxXQ5sdrvH6NRRckKrDQgpsh8ofv8AX9yJUDaDWTjXydLvwoOrzLo1z5ACbM8NHHFOifyJXPaf4Sida690pxAc4DMprJfIyqVy1yvYscVhGqYD96rdPyOUFS8Fy/Ys/Z3aUQ2cQuSFl3NyzXKKkfTyfuULB5MbR7PMujrTTbhPsKYP/MkfwhFvA0U/Q1dXyto0+TgCuSe7ms1ms+5vW9ZLBqy7m7s7uazRLMaKroqBUutK8X7V4tGaeGYyB90NZ0Z9Cpqn/ZVW2ORwOFQ2qF9paRxFEWwROkNK0YKmi4ncpo/zbaA6zM1swMZBjbxPBOt0VlkfZ2GjpAMAU2Kz2eSRz+SAM1JHPou0tdEwSSeDJutO8qBp0RagbSbsNY+WaV9yNs1J1gl1As4F55dWm7Lf2JkVvhDC9t5lHBwONMxziiZH6bmtTRwHmWyWY/21nkp0tIPxTqHHvk/7U+4KNfRw+/21VowyDUOhXSa0zotgGnOslksAsluX4LNbJdVYE/PZKLv6zPhM7L7A/Mt40+SLVJINbIav4p0rtHCGAjYc7B7+rcFV0Q93uTpLJG58W6hRZJVpHEKnuWjJS2Md+2wyTzueysUAOAxO+ntVk0pPpC5+cHPq3X6rVNYXVcaUpUBrQPpVRtVkmbr3t8UbTffG6uAo7+sVFa5XWXvmWBkVouReGqXeEGG6iss8OjbM1kBDtZCx0YwNRhQA9anbj+nxtjtTxSr6YU6KV+0UJNGAPN6LkuF4xiSr6V3luCvSaCtdltbRJGLzQ2Oj5Q95HOboCtIZo14dNMZGuMwJDSAC3EdOSezSljuWKd07pw2rnEPAAA4UAp1qz2bR1gs1njspbdArRwbXd1qIuiigis8ephhiFGxs/rerGwb7RF/vHmbQloG6Yt7cFaLPJ/Z20t/hWs/u5TH1EAj71aRTIN96Z0fN4dzP5WfyRI5ve0H95Lh2DMpjLFDrLQTTXyja6h5Kmia6rbK1sA6s1ktXZ4Xyu4NbVAy3LMzeXYnsH3q5BZZtM2sf6TTz0wTJ9JNjvt8XC0Uji6G/IdaYow2dgrUb0Qdy5DXdIQLW5lXQV4UU6F4J7mngVS0xj1hgVrbLbpWioGfvRbpSzRzw+mwe9qb+hxMc/kmPZJTpdGWm8PRctTa4Cx3PvW01WCPjaY/f5m0bJwnTLW3/AMQ9rz03CD7lpGLeNXKOqg/mVuk9ExhM+fx+VqrJZ5Jn8GNqv0qRsH0G+Ef2BCZ0UcTv761G87qbkENHxOfbpqFz3k7LAN6faLuDA4xt59yfPbrbHrJXF7hG0vNStbaYMPStT7rfsj71qYSLS4YauJtxg6gtTDoySdoyhYbkQ9an3lNjltDMMrLYW0HW/wCC76tp2qbLBk35Es0xwAUkoGZr3arkjuXdybfyuODgd4CeWP2oDv3tOBCa4Xu9LQGv1YrWMelXjVTMmOtfYqOef72E+V0pxtcYkia3WYcq56TecIz2eTX2auDxmK5VWjRwtIPv8zWV3CZMvOxs9sfH1EEj3q3H/ofytWkumH70xZfLw+RVYrA9yuSpEDJ6oqvAaHnpxeLg9qvaQtkEA9FuJ7Sr9vtjJHD0nXvwWo0fZH2imTIm7PY3BXNG6MisUfF9AfYi7Tf5QjazY00/+VM6W36mW0YOrygwblSKOS1O6a+5arRWjmWcbjcx/rrWu0pb3xMPGrnHoa1VjsMzmNzfaYyxnYv0ye8P7uIXWK5Z4WsHMPkVJohYoJQaZrZWGayV1XpahzuS1eFHhHZD0QmwxAXnGmK1ZZSNudPRGfaUJJGkd9OqOhv4qOy0kN2ABzWZ1zUdqd/yU7HnmFKe9aNMmJ1QHS0hExMvxw2iSyvYfKj3D3qxCnlPd/CfM0b/AEX/AHhaXgpU3myt6QrbhgIfuC0mODYf9xTVj3K9wNA2jkBmUDZ9EWmh3ubdHtW3Z4IvWl+C/WrC36zvgqd82I/Xd/2qrRZX+rL8U6afRh1bBVxa8Gg49zwktwcaVXhdJT9DLN+K2xpCfmNG+5AWP8lI5XDJ0jb7vaSrtg0NFZ29TfuRM1vhgbzAn3lfp+n55eZjqf7V4KxOmdxf+Ku2azwwjtXhrbKRwBoPYvAwvceKAnlbe9Fu25MabI4awhodKaU56JkMLA1kbQ1uG7uR2cZV1j+gZe35JM84vUrdGJToLFfjacKlXnuJPd2cSdyrQS2jyW7mrWznWWj2NWNSStfbIrzn4NbvPMjG+Zra7cr9wA+4I2lsdLHZQGRNPAZDrzU1pNoEb2tL61pePAKz2No8PbAIWjpNXfcu8mHwdhswvdJ/AK020AeGtUr4Rxwz9qsr/QZIf4T5mnsZGJjN08CpYpP7SVsTh6zXBaRZ6MR9zVpT/Dh/3od0WWw2Z88rvJaP6omyabtVT/cwZfaV3R9gih4uDdo9Jz7uLgFg9vb3GaFs7/CWnam/w+HWqtjK4e1CS1uexp3ltAv+GaKtNt+k1mz2nBeB0TZYOaScV9iFqtogihvXL0UgOJTbVBCXQvylllAaf66EDatJ2aPiGMLl4XTEx6IwF+0rV2NVbNbgXbtbFVD8435W+kH0iHZirsTGRD6Dae1VaMIG5/SP4d19q/vDRvqjuVc8BF0sw6AUWaPjLSfKcUbRPO5zzvr8i+7Yj9IossYuim1IVds+e+T4KjUJntx3LAl5dsbP+1qdouCQX3bVrk3ADyOgJsUQpFHkOPOrPNPMA29ee3cG7u0qfS887RZNHt1MFTynbyrfpS0PuP0g4m9wacBTqXecbQ1tmhu04E4lO+jZXu9rR9/mYA7wQtKObhqrSx/tWlNgjWw61vqkNWkx/wBGP/egihYrNstG1LJujahZbBCGjynHlPPEnuPtNqmbFGwVc5xRh0FZQQP7eYe5q8NpWfoYbg9irJaJXHneVXviQdDygYNL2htN1+8OwqBlqJlfO6srqeQ3P+udbFmib0MCwUEukItc2z1LI3ci8d5G9BjGhrRkBu7kWh7IassuFPSmd8PvKs1iknjiZBE1m06lVSKV83+HGSqiyWjsHxRjZea8Ct1wph3KOFQVJfOzE5wx4BX3CjpDrHdfcu3qGQ3Piqa1uzgAEdStlxCvzPJPyLrBVY+Fk4eSPir9tefoxj+sEByWDJoVGjFa6Q3Wtzd8Fcjq2Lk4eVzBbu/XN6rMz/uWogrcGZ9M8UII8gLziUNG2bxzztkZD8ArNoax1MLTnx4uUdlaAYNHs1jxxf5DVLJIaukvPKtU3o2Ut7XN+HmYK3WgeLtjY5B01oVFbhn3m6B/S0insIWkTTOBv+8dwqGS74W1+HkPTl7O6/RzJKWWxuu0Hlv3k+7uYBZrPuWvS7hwgj95+7uiz2ezOtdrdiI25NHFyvOtlnsDDkAwV9tVedpi1WnpiY1vuRkEMNkvm86V3jCePFX7XbZp37zl8VTUuPS9y/UYvsK9FZo2OpSrWAdwudgGipUdnvbdodrHDg3M/DuxWCKTxQq+nEq6DTpVXOJ+RQb1+kuofQGaowCKEZ8PxV2ztq70zn1KrzUqjd29a61VDNw8p/4K8/YhGDWNWumaBaLuwDlAOPrIxx1u1qSc3HiUGNFSU2Wyyl8lPJ3finwR7dol8aRuHofFSMsbC61V8LNu9ULvRkl/aLpH+m7eU8bqUWlHejFD7S/4eZ3T02opGtHQVpKM/wBiYnj6zWj+VaU46hv+7uFWXV8nUsp2d22xWhha4zPeOdpNQfkVWDSepWWxHB4Zfk9c4lZp88h2Y2lxUlptVpcXykuc1m7mVS6JrvpG87sCGkngm8fBXm0pz9x8pBIYL1AqzaSij+jFT3rVWBs8py1jnkNCbGZHPI8p2/uEV27QdWOjf/XOpdKz5zHVx+qM/b7u7LbLS61PkmeXu8LvWNie7plcrRZNGQCOCCkdAa1dv7t+V2rZxOauWSMgnyvKKrKdY/0Rl1lCuQyG4dwYHHhvVKNkm3MrVrOniVrrRfeX8lozcu+Lc8G1eSymEX4qpwGdFRSGSvo4Zk+j8U2yWfG0O/h5+lM0fZWl1rnwP0B8UzRNkobQcZH85TnjytlvQnHnC0lP6Tomdl4/f5mCtmrFSy7JToKt7a4SWeKv8C0plhCPes0U3Rsrx31Y23aelHuI93dEekLNfLeS8YOb0FVsemHNHCWK97RRY6Yh/wBE/Ffpelp3/wCEwM99UHR6OErx5U5vn2qS6yPUMmpgPJYKU7R3WWKwRCSWd1TXINH40X/EtIkN/u48leZZmk+m/FHRzZ477SSwA5g8O7eNmirxuBA2udsdcGMHKd0DubTgOkqCwwPa5scQydhecVZ7AdOWAamMNPh24nev23Zj6pr7l+0yeiF/wWzNO/ohKOqs9sc7d4MD71JaZpAXPeXONd5V/JnpHJHvcB7xm92Q6lrrTJS91kqS12TR8zbHH4ya7h1u+C/Of5pn72u372HJ9KmdFgFrrRRoGOKMFibicC/emjVmSZ/JZ8VS+Jre/lEZR8yMszqk9wPzlfyBw51tm9bZfJ/u/wAV35aTW0P5IO5SflFbhenm2YWnM1TppJLz5DSvPvK1Tcm4IA5vkBVvfxtlP/bZ8fMzTxdRSwSjYlbdcOYhaQsj+VDExh6rq0vjj3u3Dt7rLVZZnRSxmrXNzCbFp2zOa7++hFQelufYq2TSdnk5r9D2LZcD0dzacB1r9J0lZo/WlC2NId8HcIY3P9uStVut1nnEsx2AIycMyarZsVpP2fiqixED6UgCdPPIC7IMjNaDpV2yQBvOcVW0Tu6KoPkI6XFXbPbpC3/qbSpr4K/4aunST2f4YDVrTK9z/SLse1SRDSloighbemnkle4N4DPNO0A9/fEomjia8jlXqY+1WuUaStjjZotZsxMIJpldGKda59M2eN0bQ57NS6ja7q1+5Ogs+lZmR2aFrrRVoLi85UrhTAq22rSGm5u9LI1hrGway8fJPs7VHAY3RssdnbrjG4Nkkkd6WeQHtVl0LoqeQxS6rWvkfXV3nUz6FaNJQmyw2jQsb4WNF2ktWihA30xHanySfm+1WbvbZIkLrY6b+VWKOe2WB8Fgsl2Fne5cBIc93MMFY3aDiZSKJwmeIDEXHCgxA5+1Rfk7WV8nfF+UOGwIwaho66HtVot+jtHW3v8AtNlFl8K9upibvu0WutBqf6yQssEbz6EbN6YDFq5HCt6QbLU6yaMfrZj4208eYK841JVEDcL3ONGMAxcV31adq2Hkj+7/ABRt1rxdymh276RXfFqH6NHx3oWOxH9Hs2wymVd5Rl3DYYg3iVCBm5+HQAnP/vLS8+wD7vMptNunbGwcd/MExmj4dVDG8Oq7lOQZaLJea+MSAtPFaUtcYIbNGxwr9VaTYTgbL3OC5JPSuHQtpt/pVNeW9Dz9yuROtEp9chUcdU3nKv2h7nu5sFeEccdN5XjQ8/RVLNEGc+arNMT1qpKowjqQstst01je/AHChPStXNNa68ajFVhnt1OpfrVt64wVsW+UevAti3RHpjcE3RmifzfCwP1j5GYySn6V7D2bkz8optHxi1x3aGJou7OWFSnttM1oiDyHO1dmawmnO0VTorbpe0FsnKaaMBpzALvz872zXFtzWa51bvBOa60Ty3jedeeTU8SiZp3zPOYDzQ9J3q5d2fRGSxAleMgOSFtOw4DLuBoWJ2K4He7oV2NoH9b+Kq43ulG1Sg97xjbfWgceHQjZLPI5tnr1u7vJJHAb0bQXtfbZBTD+xbwHOu+7QK15DPSPwRMz6RNxlfxPBOjsx1WvZca0eSxbPLl2QhE04NVRvwCAbyWG6FBUcqaY/wDuHzLYH+TckHXgr80gaoTeumKJsW1vopp2nB0NP4gtIf8A2ju4CaDBXWVd0LwfesX+JO1VtGl7L9Vxd7lWfSBk9WF6xtNoA+jBd96oTbpFhoy1P9bH71+yJfsNWFhnHRGxYstLf8pq2rVaGdNm/BftmBv+LDReB0homWvEAKrdGWKWu+KRRWd1mlDIG3Wl20adKdYZZpYmyeVG8tc0qSwy6ZtdWYtdf5TdxWGm7T2j4L9qE+swFbc1nk6YV4XR9hf9UheH0FEfVlKuWj8m5CT6N0q7PYbRZnHO4zL7KuaP/KYwDcyRhCJg0lZbSB6L6K46wyMi/wCntA9JCp3KMCfste7e93JYiGFxO928/AKruSFrrYbkPo+U9CNg1cDOSwd25HWm8lGz2Q0DOXJw6EJJRSNvJbxRnldcbT7IV8NuWSDIekr58rLmCMwwAFxnQucp03NdZ0qL6RJWj/pMLu1x8y2d0FL7HHE7lftEhe7nWCtDg48j7wraKZ2R6Ka84NcK4rbF5ZNYtnbKpEAwKr5CVxWa5S4rDDuZraAK/R3yM9VxC8DpS0EDc7a96DdJ6IgtbeLRccrNaLHZJ4Zohcc143dKrqli0dq3LNVnf9UZrVwM1Y5vir8zroV2zNu/S3qpFStiaRvQ8rbeXnnWstDro4KnIbuaM3JsZaGgOqAFeeKN96D5m1d5DFfld0Dh3brcGjFzjkF3hozBnlynykGDxY/iKNolNIY953ptgsTSI69vOV3jZz4CDlO9IoU8ZL7Gq43IYK91BNszco/eoI6UutWi2H/l2+Zb2+hH3/d3A5SsbvarY4/8s8IqJoZUhgVG7PQquJKyW5ZheOp1LGVy5T+1VNe1bDL1eBqhrbI5lcr7SK9q79OjJW2egOtMVG06UHR6ElocRyR9678t9jEUd4N5QOPysVRgotpUjZV3FVeSe7Xkt4leDaS/0lRm3Jx3BX3mpKgkmx1jatYM1dbR83Dc1F8jqk92843Yxm5CxWFpEQ4ZuVwDPMjyuZEyOuxtxe7cBwTbJZGkRA0a0eUU2zih0npDP/psTbODsR4uPFGU4Vy6F0p05yjFB0q8TzoczFo9n/lo/d5lkCcw+SaLo7kraZsk9yKj9UKOX87QM1jA6mqJ+9Sy2rT8d6KMvu3AK4dKGktO2zvOItv3MiB9InJPdoXTTnuZheDw8A860hYNNROv2MtAuvoDXerXZbJYZr9kdq5HEvGPMTgVarHG++IJHMDuNFLNBo2zRyhsYvtiAdmN6gDgCLjzj0KxMAFGWCR38StFgjc3vizmrPoSUqB1g+1RWeRpa/UWdhB44LV/nT838ka/Zw5trBQWSL8pZNJsdV0gJZRpGXJ+Xzrm7t1jarb238EHyOoB/WCusbcYe0qjReJQZCA6TynnktRs0Tr0lNp5RJOPd19pqGbm73JtgsbBTLDILvGz0JHjH73O4K883eJ3NC7ysmELf4ipPyk0qKMiFYwfepdKWjxs+EbfQYhFXadtPWCvDM4BMsrTli5F5TqHmVjj9GCMfw+ZZmUrsFTDcTeRHc6Wu9xRUfqhSXpHOAsrsz9JqEk7b0cWovinkg1KYzRL2yeEbLQOwkb/AFQ9StOkNKAQB8dwMvddStM2+zmsV6KFrvSug4q0aMswhjEcj2CWm3Sq2nYvOJJR0ZNpuzWcOLSTrG1wNeKgtUGn2z1ZIHlz2kN7F+dDb2d7ssJhD6HlFww9itOkrPKZLBarrZKDOjRj1JlisuuPh2PdVlNkZrU2nQ09pjBvUe1tK9ZUUFg0QLHq33iaNFcOZYvHaqucAF40KjXV6Ats0PDesndi5Ll4srkLWWkhjeG8qkTLjD2lXGi8/wBH4rwovOGXALWSmjPSKpGDDZxynnN6FngGphbnXCqfIXsJzdV4VDMztVDM1ayZ7nuHJbdWb6nM09gRislmmMz+XKaDsWtkic7gK5LURWW43ft5q+LOw04kqKxztsrIIeTHFGQPeg97m1GVGonWcrPBYyFDwz+1bTyetZpkcbaucQAE2P0QB5lohhuLOwq89waEdVK1yHX7k5R1eBs8U+02GSG+9lw3xXBPt9slYZX0ButoMFqrBpOeOP0KVb7VqrbpC0Sx+hg1vYEW2We0RB3KEcpbXsROrJJzJKwjC5DV5PYuV7F40rGV3auU/tV4kNaMy5eBZed6Tlee+vWvDTUHRVFllbcHpbysSVvWIKwar4s8bvWWs1MdeepVRqvsLBzWV9BoCvMmcCtq0Sn65W09x6T+5aOg42hjupu0fYD5n10Ud91+oHSPwV61SUHohBzDSoTHm0E0OSd0qqzXKXKWZ7FvXJPaslkFkO5muUVmf3HH9xZKWVFnhklrwODf5j5nMozu+7uApvSj0+cNIuplBEO1zvh5npSuND1hXeGCPMm4I9PnDScvPE33+Z5h6Iv9mKnZ9NEcUEfOGkWFwvulY6nNd8zuYfKFEa+U33YKiIVf3vlBcru5dzJYhYfOwW+PIOIePSYcwhJG4Oa4VBG/zPrAMnkduK2nXn+iExuoAEhouv53FZ9zJZLJZDuZ/IoFkVyD2LxZXIW7tRq9oWMgWMhWbk6UA7Iz+TmuUFyguUs1vWAK5Kqx1KGlFZJbQ+84OkYPVDyB5nlMZulwa8H2FXnG8edMc1uLUen52/cwOS5KxIXLCxkC8b7Fi8rG8slyFsC67irpICyq45lUurkFcgrk9zFwXLCxeVV7S/rTg1oa2mARkAFG5rNMLXHabVZ1+ZlduaB71o76bXSdrifM9abnM7R+Coq1R6fmc1n3MCmNeMKK9FOxw9qzC5QWL1y1mVvWS5CLWMxVVdaMs1RoADcBh8zqGnHenQO8sUVOHdyVKLAFclcnuZrbdgrTo15fZIY4mv8ABYu5XEqDRlkrqrO2428anzO/6JDlaIn3gI5HNAaM1dYwMHPiUWubiCuQuSsh3OUuWVyise6Q04blLUDkGiZTh81VVe0V4rVh4Dd68cztXjguWexZPPUsInrZg9qwiZ2rC4OpeNA6Gq84klBzcwi/KqpdCyCy+Y0k7hZ4v9zvNEkfpNIVp/xn+9YJ1d+PzWS2gU4xg0ogCy8Arropr/VT3rCJ/sWEP8Swib2rksXkjqXjB2LxpWMzu1eNf9pbRJoqfPYrlBbOKwiefqqsWh7c/osz/gg1n5PaSPTZnD3qrdAT/WkjHvctvR0MP+JaG/y1Q11p0fC3edY5xHVd+9Snvk2i0T01kl26KDcB5ptUtnsQtED5nvY9jxyScEZJ9FTNa3N3BXLVBrBS64Voeoo6h7rm6/msXLlLPuZLkrkhZdyhWXzuLh2rlt7V4KxWl/qwuP3K7Hoa3u//ABn/AAWx+T9s620VfzUG+tMwfevCCxRetN8Ahet+jm/Xef5V4XTtlHRA4/etv8pW9Vj/AP7Xh9N213qtY37iqy2jSE3rTAf7QFjo+Z/rWmT4rDQNnPrVKqz8n7EP8oLY0PYh/kNXgbFBH6sYCw84WhsjSWmN1QG3jlwUhx5W8U+azXKCuxMc88GtLj7F4PQukH9FkkP3Kkf5O6R+tZ3M/wB1EKaCe2u980Y/mVXRWKP1rR8AvC6UsTOgOK/SNOwgfQhPxW3p+TqgHxXhdN2p3qxtC27bpB312D+VbdmtEvr2l33UV4aEY7/Elkf7ysPyc0d12dpVbNoOwRH6FmYPuWzBGOhqwH/0BLpHQdqiGucXvgnJABOd1w9yoND5b++I8f4lV1nskP8AiWj/ALQV4S26NY3iHvcey6F4XT9nb6tmJ/mX6T+UMjv8OzhvvJW3pbSDvsD+VbTbY/ptBX7NfJ68zj96BGgLNhxqVRmgrB/+u1XbPYoIhwZGB/6CP//EACsQAQACAQMDAwUBAQEBAQEAAAEAESExQVFhcYEQkaFQscHR8OEg8TCgYP/aAAgBAQABPyH/APDxj/4d58/Qnwzj8zYuFce59ds3Ylr7kcwfcz4R1+Zs3c/uiH9G6M1Dtv2SLVZ2SHa/h7xp/bfvNK7aB3TCTW9wQp7scX1P8cREiWzkBH3T/ExH8u2TIHSsjHnYn5WWyHGRjJQSP4bzHHHaz7It/bn7MbqsujWxpJtb+8YBYoAOG9XgqdI3UIjWCTza4beeYWEbVgfph4UC2KgukoOWtO0wxug0ByE6wv2Bl2h7fuzMqbNR/L0mrs7P8RLR7P0n9ifERqIdY/F+YyyBmNA8/wAzeBg61Tp8XExEU9POu0R7huZo96J+MQ2Nzj9kV+0ljN3mJ0fNlcOkiu4l7qrI26YN4gUXLYe8yr/0IOij3XLFnNcHOip8GJAVkAmujv2doE5fFgYqJiJsQT19AHklmJIJUs2y6X+New1YOkL4Go8I8lAHMALtRozP2p/dHiGTxgpYkTe+LKSi0OEj8ls6i5ksC64YFPvbEEPTBLYx33K2m59m5H8d/P0y6t0QCFAJQc8xeXfqXiAws/dATDB1r00HsR5g62E3F/GMLAYOFxD0dLrCdtiEPeI0fhCJXWquJZvg+3XiaRZ2flKTPQI91EXYdyXmtkauCNmnvdZU8T4V3SxTvW5TqPJDn7KRDnz+MS5GRbVHuwha6+1csjKpqFBcwNWb0Zoq8WJXybYMNOhaxTUOwQBlcHoj95bhaLD+5hRXWaaPMraCVYpysDSFWgH2xKyPd9OkcAKYIo2xMCIFqr7F36w/iNILBzJ7KIQrZZKa+0CyrGLXFZrY4l4w8qJg6YJycQqm0PuuFhapeR39H2+l/GgXGoa2QIL5l0MNmk2DRIj3UIVotu2/eLjwPwqAvgVrPUsdr+HaZJ4NjaLw2t1wRVwOL5mAN6wbdt/PLMAH4sj0DCWYNVbXbHGaMkZWpeq76lpnqO7+9fMpNEzVN+3FQSYM047aSxO9dFh0INVzcGKwLDVnWCDEpMabQpS0NDVufEfVrXQXeSs5mBwG1ACrrpLPFphvgycwpdVi9pw/20Ba6qb4hnpcHC57sSuNPsEas0lQnzxBR2YBhe+Zrx78PEbrZWGodqllTu9j5xE+Bxj2i0dF51qTV8BWl0e5ozUKgoumcR+AAqwPzNDjqL8yuQtaN7+JiNdc/wBTFmCsue70jw6tqza5maUMaHZ5lkAjgNug/D9KzElpfEbfUfMWBV0azOjKtLlG88zZe9hueH/aYN+xiTQDWnSUVK9NyWGzGjGLNdBUH3n2pjiSO2CxOWsWduVQntMDPHOtrfWEgOYuxn30YrEqCDI3VW5cOIFICyRY1I1sLVPEDQNTudcGNStO0oFmqLuXpHWzHJEZLbzS1oddcTOfGTCbQrV5ATz1hxeuLd1tvCihZCbKph63qPsGNwWxu+8sjG0GIU8dbSfaMhIbg73HvpoyM2Z1lqNBKFvVu0jy7BY4mrxhgjFpqE6CeR3KhMqlXS+OqBi7lGQlEKVxf4dzmOee1D+ILV1Zl/J2Gdi9yzYArSFRFYjZw9SapOW8dev4EqZeSLJ3PWPpCkprqDgOI8tDJoTowQ3LGmhYz4ZgkR9oyoaUoV1N5a6SGj3rAmeOtYDfRnt7yykusDLlFg4ZoGf3sdyNZkONvqutblFbpwrbR1PzFI01MdIu6VqSkVF66nFtSYjqDKaHO8/lkp2dcMiWQdCIPiMjBDcZXXRQAPiaQxxrQ4xAioCDA2s6rB2mPHCBkWqdStI6oph5v71i6l+5V10McoAgCA2gXm9jXzLQgasCnWtCG6D7bFZvfOlcaR1Za8xVdCMmSoh2WvcV5L4mnYMkLc5Za27ql3K0Akpra/72lADKGoVVvOkDfCj5teyNwNC2DoLijIYRKqi8xO+TMxk7r3B8RYKF0qvwZ4mh/RxS+p592YRCQwE0TaYC9VQs6OBeeis3iRRrodMUUC4beRXUvvOSAGFcdZgsLqrZ9p/INccROhHVAHzEg+AzZ6ZgETLXPNcVZBqD+YCbWNR1wTwlDSWrwaDasaLMJ9o6m/SFAw/aNE+j/wDvaxUSs1d6jpr6xHIfHzAoul+chLLE4l7LBVhUbVToDrl7nCVHnaBQ2y7mSthbiYWhqK9W6YC32JaZpOHg7MEZ2EKi0KMOHEHCBtGHf+a7zliRQGV0yViPjvpAdNVu5Xy3gYHCYSKq075hcrtwGGDs+bgwrMCoX3227xtjTWOv7iMtKjVDhlydIFLhGrQ48mJdLWDdDnLfeOKh88RFCmw5C+JV5xYynUVyv5jpcbuHGv8AXC7xLVa8nVqgMQ3hX2RW8LamGIodKSxixxMp5GovAvU1BLn2IUhaFA7M3FRkGT1ilx2TzA23NMrjqHMST2uHJW1RWy7dEcMUbWRmHXeDaU6U+8ZYDtTQS2qqK6WgAmuofacE8U/mVlIg4UNAUBNjJ4DNQVBkw3ZeQecx6/dNCgLBJVuvwE2d8TmzOY+jY4TL7rmo3SZLqgYVf8iWCxu74pCmXOe/YlnDbIS//MeS266gFQKUEr+sTV38fnHhaGxh74uCIo6MMU/Z+5dojvOH/wC6Q/yUNGA6g4uCnPS/oj7sf0RRRlIXOgWL8aG8j2r+yQ3iCQK5q8kKILjXQ1Nt/aYxtYltRie284848TICGqPsjJW8hK73My0AdM5x/azCtHOrNrraUWIa8/CzSTLRWnWnFIHnuqBUwMkoFB23/wDYzUspePhxKmPmK/Ej9cKXzn9xBBohQOuWBlmFdoWNCEauqPJt07TJq4rUcwq5jSdZRUCURjUuWS4pzMdJrxLRH9AfzD4AWI4T6La6K96k7Q6cMWrj3zS4lGwUYGyNPersZnmZ5jymY36V19almhFGo6YDsJRo3TNBa9G71jK2HR1mMAK0BgbRGo/FfSPBCFrvhayajdi3/MkaJRksXxUvtCqmM3raNsRRus/5iw2DDpfZXM5xcKkGzDVLuWbOoof7UxBsNvTehD+Wq6Uuv7gS2NVX+0Fvuxq06ynw6VUgqmbBwSzWk05aMtIV6U79nX0sI3oaRiiUxh5xpFy8XLQB1lmgvLY7/wCccfRadbZjaRJDrmMG2lnfj5qKJhfkYNuUVc7P14l4mJZsehpL6zo9JaWN51S5hPQq1xScxHQt1CdkS4I8iAqwOag6tX+5lCzIpjqE/iGsbr9zKPArIpoqTWukupSak98RjlOqOpVFoguuqpq9aNL+7Tf6+fziAq72t+eUqLne+zBjs7oP7vDvt8CLUYVCq2iFnAvb/WkI3QseZThMnV6NS5hjDnceqXIxZlzEeuKxEomybyi6g43YdHfh9H6FmKC34Ousvzzttf8A6l8NfGNPkJaNsdc9HvNNOHS0tx5U5hXaMNSU0jfVmn090xmr0kAuVFZUOt+47vue0bunakHxT7y7ce5N0yh4g3WYIB20g9dl+Nu2bbZCJ20MqEErcd9YQ1hjSOs2JOgaXtFmytCiPlnbMyiaIzwQN2d0e6qagZbn30lcqTIxp5AkFQLNALW8yU9o9vmootf0d6mmifaolYZt+Iid22IPNQEMiWJvECyLGfQI6EDpmbDEtaovZ3KF3aYzNHB1j5BEcOrCKGwLj/QgqS55YfZ+hsY48h+4ntNVyjx0YbJtY/vaPpj7nAGdza2rq96EbPcJaK3xFxcvO/8A4lYS61hk6jvXabzfJXywtX+w5vNIlEHPvEbaekdVvcfiaD79gV2dm/EzHgR+JpPEcPp2pPzH5RYAD3IPzCl3Ol+IsYveB2l7xYoDush/uO7Fsdv+cipgHb9UU0PsPxMp4lYPXmkQsO8F+iqVvFacwy6e52fvAgsPm9KBur2WBqCuySkobQ0+IsquoURliexxcRJL/sFV3jpgcnLbcPAahoUT0cvdlSZHZeAolJqdDia8CmQgvXH0Mts3SBx81M8157/sl1gyY2ICsbWre/VS25EtKI+Sip2SAvTA+SmdN7uOk9wxT71i0X/sxij2wF8CLal+Jgg9gmOLsrFfI/ZLZMYWw/MwGHpC5oX3c9Yrul+8MGblzqMuWk7+leg4lM29N/Xr6V19AUq3z93/ADoy4SKWhMhCORkxpEAi92LqosAYhBFua0vS87QFGXK6Y/qMJWB+LiqR5dpF7s+II/RBd2DvWJhIVnEEHkrF51+Zw4kwQ8wjiRFb2RBjsLK6Dp1IBRWqQNyRwvnXXHikWWyjnVgZiYhufKI3Hgn7Sn5V58njL59WTNTMdcsHpcO3/wALjn/u7JfSX6MMnf8A8tCWmqBbXMH1XIRTZ0ODx11j4qQcLGY2Q1ym79QNLAZvAD8RjTdBlQFz90N38J2+i39X9HA+LHzUVtjacEL59ID7U3sIe4gURpo7dYGiZWCEICtEvswPRp/0iNMqfh+Y78XpmEWX63FlzRi+l+u8s/4upg/xj0x6orJsNyBfLPzBAj1F7E7G778kbBAmUJWqBHlkeuBT2QBdRfBztKbVaMMGtwTY9YCHZQC986tvogrHLfNdfmRdLwu+UVhfvha4b+I2ntAJtZifI+faEJKCu8rx1QdagoQbqnaIPQHo42gtSV/2mk7zEWMP+Mf8vb/hcv8A6uNz9o9Av14OjtB1ZVhWjKEF7pDgBzXKY1CYAN7ShxGh5awrkFaaay7gDpWhsQtWmRU94JEsLI853NSBJOHcfoeEp8LQZH3CaL5h0aTs2SvTW8LuCwBY06ysByTNR6fuYzQ0B8JIBzU5b5kjSjyqnjEJ0jGJWpPtUamolG/+xY2LCOcvw/8AlXok3lTiJbidKdOKqX5PefwZSFl4tvDRTfqC6RRqno6TFO0PQgvMdDc3mECUFVRZO+YZSh1HxCKWtXJu8sQoA2L6ywejrNXK0qCWmTtb+O/n6HSAIrms1MXQNd9/J8x9YanOzAfY0uhCImxz/ssDOVCWCrv+pmAyMr30mJFqyzHBH3HywS7bb9Dqf8ljejBdF5lHXMmgG3eFVwaSixbLxNOr2jwuXC+LLq2dGZ1fvP6s0sJ0+zP/AAJaq+CdeYavLdXLN5b/AM1G5FPqq+hrMbidJUWww32k0O9BZAenN9316QKBK3yWdglfm90MTWFuwShbuqfuUstTBehu9CUP7dpcPWhf0JBKdGKv3YJqyvyGKMtZ4SD2mLt8wAi2OWTmUQR2Bb8R3aZazep0GiscEDhHtn1ynYWwup3U9NCUZ3qq7H/wtwzqJ1M6udXP5M6Z7zre70jsSv8A59Di1Tq53IrQa0Ev0R1SUNIHERhshc7XtF7ddZq66zayRs6vmA8Mw3msukUCV9DZeL2E67h+GbBv2mFCEiQzsDuOJyUggk7YdCmwIEBpH3l1YGnPC6ljVAgNzEP8TeM8TP6SKZdyx5w6RI1e8o6fL0hFntTgPpHHAS3SARuu4Pqx22XLSl11S+TCzm4Sy50mdYDCGLSCiNpXlrB1nfKcx0g1pdSqVbSuD/lg+Mon9AfP0OgljrAfwjUHP7Sl/AlxvfYBl8tatBBcuPL95o/kmvXFe6op3ZcN5d6RMprpFW8cssHcTZxKMstxiUkS5RDrMTWE30gMDdgbqpTxLtSWNoVh6R1y/MU2lehG53/5v1zxMxTAsGukbTZGp4oQXBCN4s26fQ1KAUfAfEUuLX3v8xsTdiGiBiJ0niPaVv6V1lSpUo1lTxPEomG0SykrpKLldJ29a6RBlYxLtG+JdpNr28QLebZnOB4Q/wAPKms3KHllP2CmbX4U5f4d4ci8CcS9yfiGt7n+JweaXT5b/cs6RXjPjHkCuBFN8z596f8AuTKGl3rLmzql7892AqKYptNsKo5sNfolw4J5tfiEEa4JZ8MMMdi2QX1TPErpcM6XF/q9PW6e8h/hzF+0OEVnQ/MFtdxM9Zf/AGn9Tm8H6Jglfzc15XtN/wCN+47D4y/9Ev8AxpTue8uwDznH7rCn5h/c4vbzr+MOB+xGYw0r5xOr+U6WyipQSvQredpt29LIzHpXpqMO0MRVRzu9BwE5QGTomtLYteWIc8sXkCX7zEFgKpF+X0PpBu8JYBZsv8IMtPlM44BC8Lf3JV1MVtLIcpS9UWBS6r7xHEeAlVuAr0d/Sjj/AIdJRCrjrrMuPUnWIa18xz67+neCqEvmdoZxdR6Ppc2nWAWu7M9IQOVXlcX/ALQpfPXMtsCtptLoD/6IkBQbRv1sTFvFXQmOszg7RS5M6ev0TC37CdYAU51A73nxF0XmEhtAN4YolLNm32lXNTpXOcimF9pXB8kzpDrLiNvQzMXg8zGnrnD6PUmnMxrUxtNcS4L8Zg2sl3/wGGmI1tmY9cet4nRMcsHNe8YZ2nSZCv5gzM150Mxvlajcir7H6LDMmJ1IV6RPqAPx8xYZOKFe1Q0I4DSKZoFYFE6P5ZuZeUQwfCUlfEQRAOoxqpo8S8XBOYuZjzLPTGMyq9M36GIpLLjb1uaGfS2ZmeJm9GNWhDOJlqnMvVstrZ7zv7kNZrdZWWGOrMUmWxlo37RAvL5lHvvWUrQZyFsHmetx4A4mkxWnDxF8unpAolneNNWG0d0M9R7APopzKgXe5PvGIaDvMFf1RTWfJ7wYt6j0v0zOsSt4p05rEvEwIxvBKFPQlWEK1smdpTopNnD3mupnRx0I6j7Q12DYQk0x7xwfdlr0QTWpsCjmHyq8kr0WJ346wsOd8RkCOTGrdN26gvbG5T7q2EqA3skxpe1ky/F3lir5oy1jFrKP7ZwZ/jQycTaQyuNjdlPSrQAtXYIrSKlDdaYVmZDMr4mL5ye8tVHZ6Naem8MvNFDWIYP8eJiFkIUYDwXsLtEVko909AsyWG6GYzEqRMIuEYbBqHmj8zpSH0VhzUdkYNOoH2nGIxG1lD2RhhAXfMCmDmJhtDxcGsjpunWe8bf6jfRPeCbJ/YhkvDXAhAdQaG276w4C6y1usyTXBMxOQxHVgqs0lMrzLkrxPEtxKEKVwvBR1XK5DTeOv5lWwImjZDZSh1HBXHWEDKusXrX5HP3oQE3MvejD87ktdbI3uCSv7SljZ1XKvBGKBqlG9U5ymqOBkv8AopQzwSzehFYtZqlFqmfCPurFQFpAriVl1zOSM/oAoaCi+sU2YaQAV88PFQC/CU4AnhQrn2nBKUDOmxwNMxfEqdQ7IAMMO7apyXC8DiaOTlMm2tQiDaix2mVqFxPlKLRdqqqptWCHp2Jp9F132e1V8LNXm2qsf4maf7CurOgQgayLGsr0dd/SolOtzWBULaoA/aUDresr1ZlWVXK3cAvMw2s6zbErekrHETrDCUJX+upIr+GveKaKrG3Ol93WE9Xu5H5LHNFMQFflXl8QMdcms+LyI8LTd8h8GYmTaA9MWL6s74aZ4i6vUKp1hnUtGOy7Gup7wayNq32IILA1EwR245z/ANlU8kLISfvboh4rsNgdgN/kmixLt+peOpZGBLqI7CsP3iTxyXX+/vGWsxXA5HeUorNqdZwvS8F/H0auWzeDjkfIQNN9nE+E+Iree6X+oNfSFi+hrPPr5hp6do3ASAvaU6yjAzN4efTzNE6mkjO9aeYEzGx+EPLAVTNH+Y2uNydYDsqvBWuSZLkBi9u5eEsjNbwasLWjtfg77WibAMbpn8k5PMoOdR8BBCTSY9JCQzEnBxKtPQIIuJo5iU7fQKhcdZdTQGOrKe5F8BXaPgfbFYKt0gftPMvZDpyEKejUZVNLDDB2i1b4mNmsOw9BmaQnPluTb5CM4ZbFyo6mjoxwy7bsfRlw9SYIBZ/47KFeaqoZicnzOr4Y0VdTiX3iTAX8S2tQ2ZuI7aS1Bk740m1TALhQt20IXpb/ABDXYdPQFt1FCkHWAljilXxEhC/7E+JU2XlPtB8MGa1Lh7FR0/oFux8mJmbBiHbL5Z3M5Lpr9kt0Q1WkcS9XvEnjQ/D3SWjjyl7RlFC6pHFpfLCq8unnUGnmZLrr4lRrDI53PeHpCKhA1uZeS4sZ2Mcm6ACi9ypkcb2My6Ydlr3ekPWOX5R6sQWGHAL3WLjAyFF1o9olkEV51k5yivtP6WRHkFHxKqY68Wj+bQEC0jwKfaC/0d+ZTtBMbYcUv0bgIGC3o+Tb+GW61sWdEDqPgnatQygal2VStpVgV0mjSGUNHK7BvLtnP74w++0b+UygPemrTu4B1bxRfsJeYAplqs6Sh/cpven4Ea5v8Mv4zJun8NJpprHuQdmJ+s/OMl+tgfBLS8vNT8Ikvu662p0FHF/wQVEGvwaBrcsU/MUYbWb2CY+HTdnIOtFueIfWCNAKIVipvuBh5p4H1wIo1YaIEMj2IJngnp9pZVtWItoxtcpOHFQ9VwqasCJjAZXry9IgsGct93l6Q1Q9rusfBBn5tad93QIeWto9bTp6dYrv/wBt9rLzLsbPYmvWb04lMmo2Qu/anepUPV8Riva3zEsrx0QjwM+9S3C3t9r8/Rrfbu5hp94pGv5IdWKS8NzBRdNTbVDGsuJXSaI+NN1XQdVCCb4VSh0Vl8BL2ZxYd9y8voeiWfvTB9I7QzRJsmwfufA8zPh1cRnKdgw2cqL08WzJi5GfWs+8p+mDjwU+ZUmgIdgpLl8PsWzTRl1GK0F1TPLX2lT1knY97r+iF7f8JPZlquxXjRBTzjrD/DBW+6FdXXVwl9j7kektYR7HwMPnL2SYyWF0nqxWJNAWzkblK8TfhccUrVbjpZ6HXBdvxzCl06PrHfbxFcaopNX8II5Mx6yGjrwdeXaacuLu46fLvA4SB9MD7nLLMO6lu+rCpxuwNoLz8QzTeaC/Id3TxL5nXcijq2EEUF+KfJpc0Z9GbANF7hAG4lXRMtjQVXVT8y0TT0Yz2mYPKNLs69V0Dd8yu2jXe+T6Yg1iBMc2LVOdqvdTtEVEXbHSqxW0ar/zFDwY/M5aVv5Ahza0YBXhsUV3ilCzSl+JhwDsVLWdXX7iKKL5eYd66HQOh6X0KMZMD2CH6IJ4SlgMvllm96V83UC4bqP3jea555GydvRuQFI7kLrRttNL4iDaazZ0Hgo8SkFcFFuqHV7XDFYBsZMQbreX15e7G61F9NZeW+m0oMNgfwviOS87uuvCYMOLQ/cJX1iiddEGHovz7TQ4YVz+F/MTAmrd5mrfL47x1q1b68j8EIENkQEZwbGsAz4ce8XVoa697x8Sj4Owcr8koftHKxlfo0pd0W4oX2r0fs+Yh+SUEKaorfENKNWOyxVEI3Ls9ikub6zEiS2B+M4HRd5VpEILcIlanvAveE6StRFRl4a7Ktgm3bWXe2cg95gjyJ8HWc8z5W9fQb7Re8c4bd7s+8MAPDj2uviUuH7l+83MkArjEpxMuyI7BAzJOjzZPFdzNgD0C5kYuN+q92Gigb5MssOsMVRkjK3gACugJdvCXr+fEY6+X5OqgNpdftm0zZhlbuCKKGVoEPXk4f0xQ+7TV2AlbltlN3G62IdSHBY0g4JZRAR46k34EO28Bt9I/wAWVvS3ALh++rNNLZG/t94O0ppwB7WRNgKfRtQK9ftHjfvIl/Yg/b+nvsg2bOxojTvmsHWZsNv4rUxyl3TLEkBvYObEm1VKhfEoyYCOTJFgWU/Mq2Gp/lFrxC3VE2nbsLgYfU7uRloxKgjq/cx+SWbmoVJjDm7jfaIzStRo0IH31Kulsvx2mYaW6s1PsQD65S1as7ZT+BC87/jiAX3ptqPP2IUjD12NqKe2kCP4JzM2LQ0DPOdWvExKG/tMBm7jsbz3n4/VDVgzfh9yUR0VBjsEMaZmmAsUt6Al57edwfxaQbc2MrduIZLyisHQ3+2JGRUW1Xdd2K6RmLpY13QccxYLdJz/AIOI2Yrd05dlq8HWPob0Ra+11wd5/m4JxHQ+87jF2fRjTJzXxDFbKOCWUj9lFEdiYHGu6E97iOk8wQrKcJfGwuMckJ7YbLU97c+2k6JV6937JxDrbBAvDkGYsk2xpPTQeCIHQZoiXZZ7xyhB16Cdyt/jEFL3Yr4UfEDDmXK+cEZhQMDLTkjeI09NrjmsljmmSRaAcuY9EYX2cI50goyGroaEeuaw6MqHdua7V5PtSz0PMhU/zbWpgIGoFxyJJMrS/MYCi1Wh+5Rv0KH9omZGQvsiaZOVb6ya5xWiIhRyQLW6J0N6gXHYI10na+Dv+owqi2UjpwdJcEF/lhXRX2AiUOdtNSsQkzgd/wAbRqqddm89u/4iA2fkLd2OLHuro9/sS71o5p/y8TIuCADPhGYo7Y9jfRmDrwvZhDVCOgYuQeSn40xBf6TL09UeZe6J1J+ukFLseftB7vEF3rGAXhWSZruS5UGvuwIGtfrR/MOpuUh7D7o3hJZDchjLWOks11pDODrV9sGFTUMc3garGkJtmTMAcsDxDZQyUPbeAp1gxB75+Yzs7UP7iUQ/+yFy6It3G/Ns3M590T2da+AXgct0l2llG9vjE8+wkWrl+xrEV1i45IvWM2HIyc9BTsRZ4t0Mml5rWsJ4I0UW9LUaB9oiNBByziGLMM87ovwWtV9XojG5lcN2GQ2cA60TIOOvxnapMeq1dZccQcLYEIBl+0wmsSyPzOhsd2kH6rO4dCVznIQJ9yLA3BFFdgvLjyuksCJZBc2D79Zpzymq36PWPlqtVuWYDTgmvvTnZcRFXq3J11w+ICte87T+KIEcJdLbt+4Y7m3TR+EiLMf7H+5i8eZgdVdHWH3YZ/6b6K2LIhbL4N2boRmp+AirFFM1o1hcyjUac+01DG1XFx5BBPmjHAnsEPTg9EuGYbi6jjqu32CmzlMm9huaqHZP/ZaWnIKP5lBFw792VQ4vOYxHItMdZ2fwjidrNrUcW7pDSg1fxNkeU4swByR25osHU0o/5tITPdH8QhZa2L/DFXdamhgOGZcls+uEV7Nd3iK7mUzIuy0N5R+g4QrBFioayoVLXpl95oQ336g1fViht1Wjj7SDQLpMD+5lY/0NLv4iu00xDxOV+LnKlq2AxtwnspfoGOnlu6SyQ16KPxCIkL03Tm7kNcbQUhq9l5enSNdZS4hq7etx8EyfuXZ/GuGvSzHaX+XEbj/aSP8AO4oz5d4M+or6bsaxVXf+18ysWX+6a+L30P8AYjaPopufnQNsppaNjd8S1GtcdWn2gTrY07kdFeWuFFUz3oVWtpQEV0BXyzMq/cj937TAFe32ZHzohB8ECUc2x7xat3tftUyKOf2SvIHdvzEMEAuC7x8EuVa9T7Qa+zsP3EeMv8C44L8Eyx7KHgjvmnARtFNk6UwC3J/YlIweUjS4Yx/aL9ymfOyfKdD4ScKXP9MX5xK5XVUP6Ujq9bC/ebIgAJ+9R0J8O8sfMpt0QsGMSzd68RaaYofJuxOnxo9AhddMV7BwQLWs55OsW0aYZ5jLAYIEGnO0IHBJjNG51MP5FDPT7znkS6fvZme985erG61bDaZZpkONz/cy8DUgnOnlNWNCtfYoTg/Nj6Kd+J7BoZV3p12QdxVnEfMwAuTsqfhS+tvFkBA8KgIo+uCE/siE03pSz6Cax5V9Wb6sBaDtKTEdZCcwyysVrFvQOSViqb/aIwHS5+wY7ucfX8i+0W+q3Lt4NMSqvclTA8Jyp8ytqj2iVwDuv1OtAmtOsAAH3T7G8pNfpcz/AFKRm1UuP3W8SGdi3kxxyE3J+Jhz+VcEYYTQwqaXDPDDTYC93vNLg0dIys0Mkw54xPLKzxEeT0IDUUa55npEA8hwCPxwT/2vskkcIvLADNaB/WsJNuixtz51mXmX392bS+nq9ZyIb94oakZ85+i4wYRDSDa6Q6s/ab/EzVqXq1M8FRHZr4h6n5iO/nlYalPeGxTzKtJcCcEUy8Sog/FT9Sot85pirAEsxRM1/CN0odFm2tGxSN6ylKxFsHvB1bsrLaYGAdJRgEQxvE3cOkBv++7ESk5jWLmGCWfnWCd2UEUw5NKY7UFtfHEFwcz4eXrC/DO7CS33aPXidr9fysdHvmYJ2zmHx9jrKrAUgy8sM8L1rFw6TozOuAm9nEnJK18quu4HHV/UxEuvu3f7pPLIeD/VCiBV1rKCP5LzKRnNoluv+0EYqvsfouBShF7afmYzVV4l35yjsRzAJGmrGL1My6xZ7/8AOLGkNyCXw5gqGZrRO99pUHyiuVwOzX7TMiJsuUKiAps2QctxKSaLUbees2Nr25nQuvxIefzDzcyRTXC4UNVhZBW1ODoPzGV75vRRxQ8QaQD1IG4+0ow3RDKtYclVDbhtVNsHLrKiMtMMBcswm8L6JhHwgdKlhLMYQKWGnQ7sMAtFjHYbyyZGL+WCG7CVrv8Ag6sxZWMtL2JkEWVWOGahTSOJK0tfpM1w6N/b7wBth+MeJUgQuDCCu5d+ZgkKTtz7rwdZrN6/wH915hJ3Jwf2ZjmBodto7kvPzC/J22hrauCa4CresuDX2UfRaysUDqFkCvwh5IOoTI5lTnRyHvw/w2JviT7USV2KWugeyy2I0oU3A6bwC0w4tg2rwVWO7C3iC0FoeVgyrI1WZy0PWpgvJ2XVZR3fXFVKeiaGuUKKqurBYcAYWtnEUvs62ABHdD4uW6Zhes7t4JIgP1aNQCdodBwqXQnuIYbNFdY6zw5iNpuMkALk8ERpBt80cx7kcUF952RG+CBmYxidGVtC3T1bwzdHBYqrS1/DOMwCukQwu4p2qXmauQQK92JAK9LFDi9y2HOkZVLysYBpWDRDpnbBxliY+zZBFZPGy7moXT5AwlfVNLZi7d1ODZSB4jvz4GY/diabT0py5s3dSy+b3nUgCisA7T20+ioBWjM+3B6sTAgbrKei9oJn4e6mBAO0CxjJZYo5DjPSGgSx0CiiZjVdAXYLXiWW7XId6L8xJn2A91sx7k12asf2OI/0jwiHgnaF32AInl9kTVU8pa6sF/XNbQbRR2InEndh1wLhqW0gpZf6pmlOt1MX6QLlRvy+8rqT1fxLeLsfyxQ3V5Oej06RdzDNKzr6MmNB4aPvPmtWXefR+82/41JfT1uef+MJOpmdUo+jq/BAD+tVOkD7HiVDeCtSHEqLuESaRGADncYHQRq9EwN3iI6JFO3xlEHGkHtKz+idj2me/sm50NYutydYxqM6VH5mJ3mcPoYM+neO6TWa+lCox/xUZfX02/62lTBcZ0o/HtfR1odG6Zzv7Mqs3MuE1GCMIM3U63Nf+K/6O0V7Hj/jaOukZcun08zbWXXr1m0DeYnxCtJfpr6by/R19Ovod5ZLmw4x8j7Po9xjX6Qh96jR6tUKXujLou8xZuqEdP8Ahj6PodPS+fTE8zEvxMazzLl7Qmm8uXFfU9DSVDWXMTHoY9ANYthgKJ29d4EDAzk+F+fo9cf6v6TANAk7OYHWRMFXS8S2TmaHopsV6dJ0fTWHpcv0zGXmOf8AIDWUcSogBEl6GYIaWsxmXxL9b9LJfT0M5K9Lh29HGWdoevmVek3jIABfOlfvf0cdMIvJKyaFvLZfaYMWG0zL2bv/AMIjXppOyGkveozXWd51i8Tv6b6y7ly+Y6zAMvpL9DuMp19yDvCPJ8RLQYi9U7ZkxFulJnXc4jqwqMdIXUJW/pzFu13hoCOpdo9QfYvuEDQZywOj9HrqGj8Ckx3vXGCJbsEw5RcEXEdYxuPMJcfUS0eYJ3x2De9I5c44Y+cv0EqCD0p/Qg7lvxDIjncjRqx872nIr6Q00xpICf6g+oIajBoa3NkvE/AxA6t5gmltW3l5TKelJSWk8x/eJVl9Lj3PifyInENH75etOu4CXCYzsOeAD6NtME0J0p+x95fC+V3SoemsOI+f+PM6xa3g3lfTa5rFxmU1upfGILqDzDaPmDx/yUN+BvGB/sgO/wB4BtfLLXxQ/MOqtuOJREa1M3G58JF6exCVZw8xWte8Inl9iH6xBXQ2EFyGDtLLFOvS945BXoR94BZgdFXT0e00gG8Smz0rGkwj6+sPWgfeEDFpZ1fz30esN1+cHzCfZK2qUjPuJtNoxZcccDfoIRBsz1ljQMTLfSXJmqaBZpNTEBwgFqE2n3/T6Xg9oIz8IHrIWtoBvfMC2+YOMORJihGDmVsHWGgkUbDeX5l9Zb64bTomiY2Qz0kcXDiWeeSZlgF0wSnh9AMiVdpeuNtONwyovy/eaYC+sYtxmtaiDL6xKwsW7RzW0Akl0Q6v0cf/ACw/qOURQujy6TuhKX/HsRBfW2jOJe82R94nE7zUPEf/ACEfwiOA+5FpT5ltUszGvSWEN8rmO+8k1Psj6uIsxcej6UyvTDCHRNswsFtllhfebPeMo/Dc3a7OC0kD1nsTdPkxbRd1OB5j+YQmZwRstZVdYaWSy44LTtDSDGEdIa8Oknj00m0Je0WMt3APf9X0igy0TvUyq6/ewY0oTnVR6PoqJUT/AJpdCX7/AGlfSHRrWOaMoswLqjZCVpGQ4oNs+U3S8j8zPnrr/ibNd3+otoXvNw7U4/sGO0vBH9dpu55QtDaVrClGNUgNpUzj/p9alpgMqn/uRikduYVM1wmBgt0ufaLQNpT+4CVZv4cEu3QrcP8AJYDAuKAHKULKyqLVyuv0nVDiaFCORBBgaWyBQ51jgoaAENdhIQMewB71iUtDjicyhuKHGrKpA0MNb4IDofadCAFQhtABRSVHtN6m0ZUJ3legb1FcMdxO4PRhI3P8RBFQ6B9xik1W4/ezxIoggbDZ1PdlUFuijxP9yz0xSIDr/ma+z3/PQS7HhqixHIvuSaFD/W2XL3Nn3hNdt/RP5q7ggCgHb6gYTJJC2gyvQgcouo8mzM249PTTX/hLx6XwS5r5peb9PbCArlR8j0z3AiHRQJ31fEuYHZr+WFDzR+niV3Rn5jkuJbf1DzDMt0kDBc3Dfvi7l6J7OSjO/pyRPqoj8RhO0pDEA/8A4BfbnUCQHC7jfWsRNO6KU9WbQ4tmw2d4Bhv4M/lvMsT+OzDNzvACoHIN0H+0H7VKu6G88kQ5H7jKYR1X7kOimgc9iAGAr/8ABF//2gAMAwEAAgADAAAAEPPPPPPPPPPPPPPPPPPPPPPPPPPPPPPPPPPPPPPPPPPPPPPPPPPPPPPPPPPPPPPPPPPPPPPPPPPPPPPPPPPPPPPPPPPPPPPPPPPPPPPPPPPPPPPPPPPPPPPPPPPPPPPPPPPPPPPPPPPPPPPPPPPPPPPPPPPPPPPPPPPPPPPPPPPPPPPPPPPPPPPPPPPPPPPPPPPPPPPPPPPPPPPPPPPPPPPPPPPPPPPPPPPPPPPPPPPPPPPPPPPPPPPPPPPPPPPPPPPPPPPPPPPPPPPPPPPPPPPPPPPPPPPPPPPPPNPGOtsvtOU7Ucsk9dPPPPPPPPPPPPPPPPPPPPPLMhX++xgfrtIpW8omSb/Bwb94vPPPPPPPPPPPPPPPPPPPPLJK1Es/1bTqGN5oXRWmXk0PtinPPPPPPPPPPPPPPPPPPPLBFGla0XN8P5S0BC8SvVWFzEK/KKfPPPPPPPPPPPPPPPPPPBZDEfd64rqXvXZz9SoZYNjvDIYYXPPPPPPPPPPPPPPPPPPDSseTdeayavyYF9nSS+R5chTmrSyTfPPPPPPPPPPPPPPPPNs0bVv2u0rd/INLPghY+x6uSGwx+4fPPPPPPPPPPPPPPPPN+dXpGxv+Gw3Rqn7QDgtpNPLJSvs/PPPPPPPPPPPPPPPPPGcWvHfdPPDctuGgEBPvvsvGFHhRE/vPPPPPPPPPPPPPPPPKCWuYK3PNAvvPnruhlhFsvt4iB/BiW/PPPPPPPPPPPPPPPPKBuMkFHeDs2BEqZXeflJh/y843z0P/ADzzzzzzzzzzzzzzzwvXnKaXJq1o2rtrb2Al805Zd3TRrJ7zzzzzzzzzzzzzzzzzJABncAFcHpw1d+UssMt+W1sOd/0RzzzzzzzzzzzzzzzzzzVX5ZMDQHyWXW4ldydY1XJgnmwRR7zzzzzzzzzzzzzzzzzxdPyKQ3SDnW3yR1nu7kZDRHLV6MPzzzzzzzzzzzzzzzzzzzEMba+7rH+ViSa3CgOGaJhJTyPkHTzzzzzzzzzzzzzzzzzxVeMtYRehp+F9Te+qitJznU4qgxrzzzzzzzzzzzzzzzzzzxycpwp1nGOcFFI+X1rQf0sUDtscdTzzzzzzzzzzzzzzzzzx7GKJtXgBGXPNqG6cAbiLev6QA/tzzzzzzzzzzzzzzzzzzxlnJBRDpL/AW/va3/Z8Tdsn4EA6HzzzzzzzzzzzzzzzzzzwbGTztulxldz9oWDLGlr8az1VvlnzzzzzzzzzzzzzzzzzzsDq9eBAab1fT5gUXBcUor5wCEbM/wA88888888888888888oM8Ue8ijSGBlrHbv5Hbpl5yfNESj888888888888888888sVvDgqztUhxVSmoIwcWIkicwqtYL8888888888888888888kS+tYk9Fg4xVMowosE0s8Ifnbd/8888888888888888888TfbNf1aVFzyH+mkTJkxoA8Y10M+8888888888888888888xns5VknQiXtcUkfR7X0UiGYYcAU8888888888888888888PoVRhM3ewHE/ac4E9TXiKa0sXA78888888888888888888sbKd3NdJ/quAKwAM8Mssccc88M88888888888888888888887d9SO8cs88888888888888888888888888888888888888888888888888888888888888888888888888888888888888888888888888888888888888888888888888888888888888888888888888888888888888888888888888888888888888888888888888888888888888888888888888888888888888888888888888888888888888888//xAArEQEAAgIBAgUDBQEBAQAAAAABABEhMUEQUUBhcYGRsdHhIDChwfCA8VD/2gAIAQMBAT8Q/wCLLJZ3lneCOupKvxCCARJUCHK/xAdr8fmOFpPWXJT3jqCLcdouqqdolJuos5IHGAENlTDmLmC8stuxlW/D+cRzPNcOQZTw/P4m8n3Jtp7se8+fxEtD8/iK0Z5IYVU7GVAtgzpfvFqkhpEb8SpAM5O5lzEcMUIgs8KBUMuZ5onVmUQZRMTDmI0Sm7i1uAgHco8pdqek67IciC5j1TuQ74uGceEWIqtgthLcE7R+h6uNAwWScBFSsLIkMhT0YCItebBmcecyWOILdE8hlxZfMWCdDXEAWeD7ZuIso9Fy+g3NSljEcZiyqYL+cyC36p9Jipz3ZXZlDkKlRGMdmWdQTJDDLENojdriDZfgsEZpiVVF1L9CcIfMdo/MFs/Ms7vQWbae33lcbdsQhQ9TSXC5ctlxWUw8BdTs38s/9yGG/kZpC+qxCh/vWIAMW/WABR4IltkpvahPcmNL7EetPwRZfwiaA/BAadDUu5x11L/Z4xFRxCojgFa/PgzcMlQ7bh/BL2JkQ1n9HH75khb9i+8Lk9DftiGo58GYiswcwhqPl+jj9qutdDEp6DRLuCmvBXkYnPR6hfVOhOITiVUC4brpqMuAriZ1MkDoGY78FxFnEAXMboqFqptUq2ZtZKXMs4ZaoKX1UFBX0FOY2gNShKsqlYAyyzFJWqmHfg8pbcxW4UZjRhlHUxdRrRDVy5Uqj9T0f0YSmVapRdR9PCaqVbKMSSjZBDBDLphj0ub1C5TuIszuWUm2H4jtJPXEdawPSH3hMruBbcGVc7I+DrE5xCtx7TzYvPQZcpc2mUBFeCBJqZVgr+4hFhMor9PmEqdGBlf6jbodoCcOUjKrQiqtC2srO47QfL8zQq9nDOGx/ufCqHFTTKSooSxjWJQYoyyFo1X9H1gwIf7lojXv7y96D4YQgRWVUeVofBH182bX80H8xmv0t+3B7EvWl59HfKsBChs5hWWg4uoJL1hdDWorzY5g0V4/x4QyENyszOpRCiW1UxAjcMZT5ly1segBN2vbH0qZVZlqveuPQGtQzKcPR3f6IhbPcwG1RFKVjtz79iKKuIZdH8zKe/oQ1Gh9Ax8sWY4o/jwmkqmcyoazLeJlzKXbK4guYtI7ka6HmRmNvaPW/INxewt7uWIbgC1g549u85EefPt2mBrXj7xbVZ+nl6xwhiCYG+ftKGzyfQ9oQhlfCXg3UIMInaES3Ki1BWyju/aM0blxFjbbHaVcMeCd0uzMMabfp6sboW/wfeKjI93R6RNleXglm7ef6Ev01BG3RD4Iy+R94qBQwEoYd3wmG5dNkWtyrqAgVqoDylesdUryIbDB5jFRonDi/TEFEPm8fMXlXkCBZn3H+5tz4YvoQHyexOFvsM/LMAB5E7On3NSOKU7Bz6zPmDbeDcqaMQ9HLle/aWMR64t8HtHVztAsYVRfvUGoC81f7i6b2iXF8P3m4Ag2r7H2msz1D8SjLyXT5XcrS7P8ZxR97hgCXsfYg807FlfrBgA9mn+MRuW9SP8AML1QcS4VeyL4wNH3iK9oAtjhmB/wub0OWFCVbOfBuoSXbDwZWoXchXL+YX2C5Bq32mQJnCZx7Q59wQOBeCW4iWNu9U5iRMo559NxZ3GuY1A1MYV3W4szK5dzOm3sb/Et6fw/lhW15jKJZggIGYa0NwPbG12OYT4hg9PzF+CRsFuBE3QPCZMxKCqjx6QKQLZGq9YptA1ouBJXNtmbghBvbBiq1Wyu0V6cc4iIFPYzLoo9EvXJ7uD6QtZX1qf2UscSO5efxMkiu2c+rAVS9PpB1q/SFdKj1tvvGrFfrPz1gqMHfnNGfEBMD4lZQR0eEsoWcxrmNMvpfQj0f3fLo+EyiokxKroQOrmP7etwm5uPhHhIfo3MXOZqXBi9eIjtiGz8kQ4/M/AWNhZzjUIdN9bvwsLLzKidDpaEtzPNCWePxPP/AB+IqQyGza4hxQc1NAIpoP5i+kPaf+IgdFBt9D9FSvDDTcbGO5cydMdB24zUapa8o84e594nYHvF6D5idB7Mxjex+Yba/E3xfeblvuzQj6/W5e027FdDPXXRz4UvsjWp6dAvU1OZ59Ht/wDGsy5c8pf/AAL/AP/EACoRAQACAQIFAwUBAQEBAAAAAAEAESExQRBRYXGBQJHRIKGxwfDhgDBQ/9oACAECAQE/EP8AiemUymWgnSdCX7Tpx1kvFjUvFGfUBFGIJL6cDoIvaOwkWFbiJawUxWlS1cX5YsxuZVrvmxNqe8eoSOgpORlYzmFbEpgZ7RqPTjFpVOtKtIdhJuhB3r9oN/f7BGqTDWGWxgzaxMyJMVqrxBxWYZQO8OqhxHvKg5wEUBLZc6jR7HpSOMzay71gjKbENtSrIQtu5zWZsyVLFwqpB6IjLiClSwlg8yjW8w68XlGHI0a8SAMYGoASotCM509JmYsANMHMhzWHMZXzlUWh52yNtqLKvFJUhXzl5ZjcplgO5mGNOUCoMQatn4lcKlY4pekgY2RUTrbAgpq4NEpJVyw2S94wKhnDMbZFaL2v8zJgfBNB1coxyBAwB3TBCFE8QTBFTqtkRVPotSXWEGhdl/qVbpVqvaK3Q3yJcndCDTHn4hxAc8kUFKqXLnaKku5iazHAmxVVznV7E6D2loo9kyiDsEOHhcOQK9oqldfRHKJbULXVlPvMvTywJQvdmWe4zVn7sdU8NVQjllRuUsS5VacQ+kq3MQAWWh5lPKcHt6MazBTFPMW+7Mipi/S5YYlcK+jExLJf0JhEfJQlD3f3mIWOvo2GQJyJa51fQlsqVKlSiUTExwuXLly450lvA05l8orPRXhg3EuLWkt4F4CL5S85l5lkuXiYcS4plsuX9JDT0QQwzXjfESYlkslJZKSm0eIvgtLZmWcIe8thp6KsSsQHgW5QOBrwONcK5/RXBlZ4Uy2WSGvpDeVRBS3eCY5lQ+kL1iMqBKlJ5tj3hFlu0Mou++I6k9pQvGYBoMyqiCZZh6TWLL+gxLlkuDwua+vkP3yhNaswNUaw2uVg+WU9K4yVri4mFo1uICadZVF22LDXxPzA0YXkDmNkNKIe/tMjJ6TKRM8KlSoDLMUTTWa6/v8AEU0r+PtcfaoY/Fv3jzWzdWv91n2NKP8AYV/a6H7hlccKjCcrNZIYlukHFTV9u8KtafiUqHsedoiQznPpW0bSglm0udbhbpEGkHKg7ynW3ywMYzJ5Qi/GEawe7mXeYIxmhnXPI/bAtA2P3KEbYJOrz28c2EWGf7WM4vL7R9kf3vLlNL+X4IGxuX9/SOG5pNItzVogWsEbTcEtMyEZtlRNBX7RdhL2iU1IEem7MN1J0h2VchggJROaHI1/zzCKJ2NPLvN+8/EdA0fn/IOTWNksbfMa5j+rlaW37elGbqXmN3DDcoykE5ZS4wneCdrORLEio2xuYGBCLsIqRrLaRLiiyn3exBCav3fiI7aORq94exmxuwEKdj5jm3bNhrGtyWA5vxHEVrK9Yrp0PSMAhEdEG6onZl9bmqK9pyEdWOXe9GXFc5hcYtrtA7PcYrgPFfqaUfeCObhtscz/AGfEOoa5nF9iZnXqwErNbwavxCEyh5rt0IYxrEFG1/sxotcyxODA5c3vDBcXZB6O6luUSrioEUaf2mmI9viEMz5qak+83heYlxTzEVe8Zo9XswCtnZ+ILXPEFkgObpMGt72oIqOjmCeN4iXt6fEXP6G8IhBzQbJldWEKhbE0TKzX8RTxCvRD/fL0bpNYl5jC4C4V9L0H4iSyBpQUHvHCAAqOM6bzWpcdLr5jwyK3bbRhyGolaHMxLEkbpaHXSAGCBMIWxzU5BpMSwNjSYEo5uko5+X/JpydoQBArALvEQkUS6y1wObtLO28vx40lTeYLtgyxQML6RYzHSA4B3Nbyo+qKS7rlKFvrulimCkBTijV5x7r0UDy67R0+yUGGBtABqF1u41gumaWq+JTBe5r3mmZyMv5jqgHa/wBzTL2gIyuVYPmFI186PsbSzb+X5ijH3IjIxOADx/spCntP8CfEJJU06T9uGLZX7x1zNW/SFrgAVBlwh9RUAjxuOvHpx3mJcPSGsSocNYcL/wDC367jK4HpNElmk78K4Xw1gSucrlKlMC4aIZoz9mDb5/oSUpBjr9ZTp6TREBjicGGI9FUQHZfMBv8AeB2+8GaZdCPaKsj1gO8NxYFAo07WVBuaMV1hcqGCCvSMMkHEEl1ng7wMRjouJUUJhvxZvy+ILUgNG+SAf3xej95ogPEfyeCa6vtKm/uZoTrNuGvA9KwFwE7TB9BiZ4a8M/8Awq41K/4F/8QALBABAAICAgEEAgMBAQEBAAMBAQARITFBUWFxgZGhscFQ0fDhEPEgMGCQoP/aAAgBAQABPxD/AP4aLP8A+aj/ANUT3/8A0oZQQVRjaD8sBWh3i/mAiyoS02WJ/OWdkT0HvA7LW7MPp5yD9zEov+5hhFdg6TgRnX5gmVyVf3FMkXxnySeyq6C/gl5i+HPyJ/hI+TBmW6ogvLf6KcOB/f7Fmkriwv4nFK3w/qDXQcXqfaBqU8/rIoqXBdb8kbhfRR7se7iKzUAZuufbmr+bISWWFYHEEKXgZnqUdD6Xl63VUXpbInqB/KFWh4MvyXEa/hV1ebta4hES7EHyW3n4l4w6eIzHV71XYHk2vRpQQUlgViJ/GJHaN0BbGJzHkcBUSdmu4wCXbb5rEUQeXIzid4/uqALk6rx8sSIQzj+hlMBegYF2GbpJwyzwKB1pvIBRdgj0T8VHEsM/8kWEFM/8oywGyhPxFpcUZGPvCugglvQlg0lQCrkqbBzFqu7N/wByktTaD0wD7iqnav8AUL/CItG3QvZDMCvpG0vbAE/EQmjKolFnGavfZcCac/GHKAVXxUJPhqQac3IlPzDk6PNksYV8qcjMlnBsVveZC29Syz4tIGmmn6gkSpRV3yM7zCuItaNqIIioXfG43wWsubU40hx7xMuzx/gOuaNQ+kI2pXlbiuLxBq2NGyq9ULQomqCtRKALmlCWxegnebhQaDm3RKPsaguFjrxrZe6gvJqsKUiXhHiAmG4SUtXV8dGrmJwEFvzv8TJ847/S8Z1LuwRCSv8AiIjTeAej/TFXKLW7T5zEhFVAE1gPqzD5ed88I6Eq/IebFcfxZCrGPclhdu4EUDpE9mXt8api/CwZGaKD1ez6Ru6bXT3Uj80o9V02U+8xgNHE/dRZ9GofuCA4ijottQ9pj3AqZq68TElLakeVglRGu0gfXmDIEGkdrTUCp5ZaTagWVfPgT4Zsib5F+FuNLYWoLS7HxHoYKDhZuuXx6wMCArCDvUt79qF3LDOePEfApdO1d6gqnvSv6gEBro/ILOpSNH0Iev0WdF04NGO4RavQDVML3Y/ImyUnAjMuzHerxEahZwC1LxwVnxUNkG1wqF4AWn84jjDoqE37cOJcHkHZVd4rA35ijZJQDCC5Phi5btXKBb4aG9ekKoNOPXAtEwnoRuP3JSnDazE49gDDQOHr2qGchw3ObGRdHvUbzOlKTQzrjTfUMrIVG6mGPTVS4QiVU1TyJXgvuGFgsFq6w1qNDJELD6gMNUZ8zFX3BZXtwuOrNsgVjTu13zUJCqCDafLf6gFA6AXyfuAavRaYb90QJetV7I5M48+ssJvsYF3OxGux2Z/inTdP8Q2BFjLd94rMYFtIACb/ADLijWAO6a/UojztC/JEaMO4lvFiXTbdJv7mR9BofhjWEFSTSBxfHiY2d0QxouaeFWjBwToTkI90GajWs/OQDfqRzrCUCnrhPmNZEsVs+lLBWL3aDAQPVeIkrCPgWrBPGbTqIbMiUvUK1birA1Giz0aYaeenx6IvQtFhbZ3r8lwYvdQgViIteeIHW6YUabDTuvjzHBWXhCslJjNPtLZXGVmx1sMdeIdKCnC2htp77mOsBQalW2UXs93qoCAHndnkBV4HOGV7TAhwE6lvfiCFWTFapkEa7WKqbLeOVAyqjUFBOw67NGl7zXpEyuewjRqgQa5bzqDQGwqmYWzapsb57aLSBxuBxXZKYfZhREuUm4YKrzLaUCrK4YKlUHG/aWF1ZXYyODPMBx6MZHhtnmn+pkEmbIBQiIC9/qXYJMU+3Gx7IRYsTDXixZgOS+SANkD2WaUygO/1KY06BfKnDWqhK31NbDnSpjzAtlh2ooGjCyUUX2STphyLKLA2QXycQ8NYp6Jz57ouEKjgvllWko45zEg5ChxC8eehNUv8TVrQg0pHNw3Fw7gTf3LKcounh/MamC/DDBpO5v8Ah2yY2FoCiaQSbXj7iHKjm2qOUApYF00BVpcPOY2VzYcTsrceV8ya2Gm9OTfcqCnAg4pPJCXYaLoCO0PUgh0r2KpWMZM1ySlwwveDwze9fMRZcNAWA8GHjiF/QHMWwe4rpgAMM1oCgWYmcQmmGGRa2PkiNhkGLCWwVjXZSYYJmiOAoSy5i7pdxzJpVU0KCKtg1eZeRjkLXDb5CcIQcdCyhB76CikOwrEBwOKP2QAZvIefMWgHQjyWSy2+L0wNuyVC2176GiuTcTj4it0BVd4S8pHy1sS1+awz3N3POkaLLvg/EC8Kjcqstzn8wcnFKwcYUvi44aTEHZarw359SFdn3RayDG0OQa1GRMBwhYbKttWGiEjOlAOaLwOkyYiWmG2/ahYbsdwgLfPITdIDynDkgjdtQienOf2PmUewhnPKpLFIuC6rLDogkEopQWd4L47jbDCpkauwbOZj9C1iYyUneUSMgFLI4Tum/wDVM0KEXblvae8POKohFWA/6i+8QlFfCD2adkLFVKKWpwnyUmEf4e81CUR2OaMQcKqPGI2w85I2gcOsQX9Q1xjS8pUqWlS/FGsZV0ykcOsti6KpvF5h9UGWBTcFlYrYgl6hswZSFKqVBgmbPCoFDdXEgEVC86xVxCwTC64VnZYrejVRjHXyiYhbFu1YKIrd2rtQRwg77lNe+12uOKpq8xwPbFMq0bArvjysBK9Vd1G8pArYoOkFDyqchJDsO3VcwB1DqZOQNAwYr0I5LBrYNcBnZdvO4ZNZtMtgleqrs7SoGeJjUWO1FbpwQNOMlLKKAshwMN9Q1/DRtrkFMFNj3BKIfrQ9pihrILtwmohdr88oLUMdtAtSlyk4RWja3CcFWIWUidCGzRbRyMTLpRbDYFYlrQ3WyULcgdjPOYMvZBQi4DK5aXnqK4tcc3CxeFwNJwQnAr19wPG1rvKu7g2IC5sCgpt4Wa6jRlJpaLVFeb025g0MhhDpxWshqk0ULHlLIwiuxa7N9ShmzRgnC4cPWnglwO+pTWU7KdMAFcgg5AoSzRrHFqLpI1LbLQiGNUVqF+R8MZsWgTm1B4AgsKu3io2AqYaMRLAgSiUtDFhTycXCaohQjNqsc18SumZtTcN5NBvdR9OkdQGxQRVXT5e2O25hQ9XNhIIAIL6NmBvnZxc3oMCBX/oDayoTqk6rSea3DFJw9COWtAnhQtW/EDhLVKGh9C02+QQZyXSloMIjdysV/DY8oiQyl/2SxYGVUFlS+O0GhKd2fCCoUl0G4+YxVyhw9FtzefSL+sK1GQk1biu7gU9XcmsC800qa4jbsFeiyqSAUOUwWRUJVLVRUAosmgsVANom2G7IFUvF1eL0VwIJgVWPa6O95hPJ6DjgtadKENkka3SdA4rDDZYQZOwAi1DJkqgoArpgmAYWIUB4JKMHlEUZtqhBltu+wohNVxCcImdUFA7mKLCoNWxuwY2sC3BikhCUCCrtWTLK5bxomCPZDo6vFrxPY5FVclmTCrCsjDXRgkp1QAld4vF1DHm71cKUDOqt1kmCXSJ5Zl8+XQRxFt/q3NMA0J+YOri3CgocNeNTKYViqPbmIKG0IPxFkW8Bt+I+Zttr+L/UrNKNH3KX9SrIsxZX81+JiNuO7S5e/IOMkqhjFcsFS1OsMWHo7XbHSTFAuh7lJqmmWihQRe7jBclgnOLdOB6q8yiNrKamhQOk2ZIrRM0nxolxUm/2Ex/RkvBVYQrpvMsgm6APamI6BGDR/BGwG3qflgaio3sFVLROIMA7BCIglXlb5aiRsW5F7gjlqq2BhCBnK/uDar3b+ZgyfJf1GtXvJTbVMHkULbG7h4SOWJ+EbE4RP4ZgxRI0Avq4oS3hyjxXcVQFSMgz08e4P+6aAqivcm8JIHPhWnnnceoFq7cymDp8S7VLOQRQaaXPmX3pAAGW0pPKvuxm7HFhddDo+CEE8TdJyWKYJUM2EGcvvh4ut6Xle2CFxp1ZH1GYsuxd+tuJcKyq7RftSlx1xyhIUyIAsGq3lxFlTouxX0/EXb125v4rKJ3kFwI1QiJel6nOWKgb0BdUXnHqS5czTViBaTsf3GfIKCHlUaaLRaPMqTFl5QBaAUbrOLgguNd02yzTQKLu9ChCqK2Cs5If73jkggFUoVa1Vl0tGYxUzDaQimBWAPUvAXqlkbU2VUKYu/LK2+UR9QRHxLgiMoaPYElY9bxAtct7mXnKjnMTDo8aiNrS1swYbxhgIANA8lXb1e8UfyFj5vCXQrdYqqWxKlNML8QXAo8OoJY0wGjBVo5VbxjMOg1OqNP+6IaVK1bPuIVzhuzQdkBT7lzAL0UX9SwLUds7RXUSuIg4EvcIaRr5uDYdZihq1I7bP3ANoqO/EAgS7EVz5iiy1uZi82VHxV1oJsBymREmvyCxE2J/CnYfsg4Jh9Aqur/xh9E+VlJk8ND7ygpaxJi3saFeCEMyFRRsKrwxHya88y+Lx3Etn3YlBvHiBFV/yJboPxLZMIU0qZ4OJYWuvEABi8R4gQ6gC31zAvPa4MqbWtGF+Y+hSSkcLTpp9LgKUhm19jK177gQcGqSi1PKC1VX2QLbUAUzxY/9bxHZRIV9g6C3wcAQQpXIQrWwLxZniuo+HRZSyk0YH5nLzqLlot4Pee/WWrh6UMX0bKeBac51s6xEzLosSshY457fEwZmrJ8KNON1KoO7UYxSWrty5YHV5leg0FV7ZgiA1aNG0lWSy+RSrRokw14ceNVqCIiG8TgfhxjLcEPq2Au6Eb298ELAML+rzbKEqFdVYW978X3LCzBKdgd4A9JBW2y+eo3DbYl0wGjLcVu2msT3zzEVhd7YlX7RFRelMzKT1hnd2xMF1XcSFd5ldtBWpe2wdlkJc45A7nT8KHGg/wAJVlazRxiHg6RBAU/MSEajOSv6CHvE4gPXIOPR+oSk761r/PqUb3NdxdlG+PM9INXxFYoGKbFHUGtU3moMNveHI5lZp5wjKtWL8wwsY3UUmz0uORRe2LirjEipBgOEfCP3CedN2gKOSm8k4kJjT0HES9mNtfKxCbVSY+Ia9jUfrmOmLQl7SqKcCVfrWB3UKWHSLHuwjXa4WO0FamcHRQqYyoPsxYtFPXow+EV9EAcIQq2eOYKeMWLlKBTyAruXm30uD3omFqtt1+toQ7yEFjwWe8rqc+TcQzrbRiysBWahdjEQJbVxC9GE34JyrL5PRB0EDcBLEmfZ4eZtkrT0iprr3lIBxh3LsnNesccvnEYya+oaZ9FTmN+Kg2At79IoAa2RZZ9zMQwZXuHGWvSywPCII9kFH2Mp1m5pfATkUK/gyFK9AXGgtqLXjUVFIYbAgvaL4lwPWQyf6dy7zEW6AAG3HPTBxKA6nKCCEs59JUKQc0KCMYrXHcSzRxGgTWdkZ0rWMsCJrO6jtavOZUz049YClueJZy4hXDb6x7E71HJRL7lDNWGhIVBQHFEUmFQ6KKnrA2UJat7sCeTtiGSiaPdMA8DUdxaeWXQvM83iAa4oE6wW83gjQpVlGyctw1iLIgWZC2ytfVjFoVxDhYh8S0zyNzwKlxhf0s7jYWSkywAWfDW5QTDaaqF4WqPQDiZA2CWr1Pm5cIGK7r3iCw8YB+Zr2MileC5ez4YLur1vvMVbMAW2ovb/AFK4SFWLjMSUECekObXMJ4Bs4L3Yc092Ws9R/eZ4RJAsLfU3B8GRECWJ3Lw3hBmdhEu0wttTLKAcsRrPWEnFB1Mtm8cQoK1stxALt8Fc3t8QleVUEUvrKL9kzcMn9BwI1TkGNVNMs3hPfA/wYLuSQuBOqTM6i3wW+Ff0MIcICuav5FCKRmNlMv4Q9pbLIAroXnQPSo1vzuI30JjEEpWXc3LzBKt16fUWwW4vLMq0AzeJYUGgFlx3hiBu4DVt2fcMqjWYiVh5YK/ItvCwzeGAeGG6+0AItawQgEVetIPtFzIEB5t7DHbVuM18xxchyi4tjD8r5CPBRwm6hKlhsF+EQOD5FfzAv9DcmJUUuCv5igl7E/SjQPcQ582Q0PUUfAY9b5q0PeyKohylzAbePfj5ZiHaf7pDJV8GZ0hV0vxGSW/G+iNyTu637hRXyK/cIdrhmwsuni68XEYOJC4YbcB4+4MLccXH3CjyFn9wYpW+XFKtIeQJclIESK4KLAusid2fMALFpNmaxbuWjfKxDst/yRVwHKXYYJSvyS54bFzWbfSLUVFLg2YARM0XcXsB7oZTDFhSpsSo4ijTwAWCtAXBx/BIQWAMg3Os/ZcovF6zRV+IA0diDSUjnWCCMjbglQeM3e0ONsjjRNVmPWLv6bd2nlH3IPZQrFKCLjvH/FMi+jGH8kRMN70uPvVYMJhszpuCoKp2fwTDGPb/AMhFErFk/cQUAVX7KLA0wqvtUR1WcDPpaUbdKsyC0cr8RooL1AYMhzyLlSsftjgKrtzGs7OIIqR+4tnN6xSXf3Nw33BaFNrDdeNwTzc215nAMzkd1KbEzxjEL2Gv3Cr9MQpWuIFbBReYIljbpgHDSLzVPXmWbBU8iHv/AOX4mYVMLbleBd4ZcBrliIdKVs3RWTde0UUkdxYenJ76hZSIqUSqrkFBWyXEQGYagrXzpqERKEzV/wBkZeoiDI8WWLjLQwCxscj3GuZXHH8EBi4ZvJh71LxFfbQpMx6j1JsH4Bh/UtlVAB+IC1jBQEAoLe7IdzWwQi8LU8MfQADNUYTBvqP0jRM3pvjExdo0b6oa1448zf4rgX47hYDFptzxbY2a1oliPpg/UCpp3in4j1r/AMdx/wCSX8y15Mt7l1qUviNveHXQlkXTUXOiIRDGeoutO/8AzCShKczOCmArS3DDdc+sN56hV3kzGDXrXMwn/YitnUzqJnHM83ne4WHUTklA0xzcpwnzUsGH1gasSR6qP3/+UiG7Iy5BqWRhrpyXjfccwiLUccmnXFQMuIFCy1sdKIdzOvPeYQJi9vuSwPAYoXZzh6pKFgshCUmzYfMPZJn8ltfcS6g5I2bthVepVpf4Npw8yiQVvM17V9wHCMTlKWp5uLA4a7ODiGoFLgA6e+5QpUM2pc6v9yMZm1bFenx9zoLKo9qwOM4lMZo0ta5v5mnCRbvln59gI5XMbmOv/UQImEY0BszBLw5X8oRegJ5oj8xUPCdkWG1lD36RoKL8wQ2qPmWcsCZzCWoPeJbY65zcoNeksyHMOJeDmW3m6htzhgOV+NxCwtuN3gqYvxL4X3hde7hb1qL/APOhV3zj/wASmoRIa4Sx9Y+iBVTVzGVcLeoqpVELFU29/wC3BW8e9rXNjVhBGZTbsXLzcISYNOgoYopR37xmLurQ1nGrCk3zAKm1K9j5m6quI5tLKVsa56RwljhluJzcPqO1eo5H+DNQ8ERmqO/QfITJkrnU/pXvDcEqiLB6vyQm0aLGBmD1lqBowe/H3EozrQOgee/yZVyMBTdH7G/mUTdHJ8QCk1tlOC78N+8HMRxUQMkYttO30iujoJ/+9hukr5hDcaOME4TcV5Vz+IhxfpGrtl2Va9S6z8TR1csi5aX3l1qDxKVinmL8y+D3lqruX4igqW3duP8A8OMQIlqgPj+7/wATSvdqazAIkwI7GrJXsRzh1lxDGiD2rFBxm03EGgJBRPjMuRtgmWa78EK1RhdpcwwRS0GZUWtmjI7ixdOmqjmrQkZ0X9TQgeEx6MolGkAj7G4eTpYucYcC5OE0jkRHX8GjuJVknxn+0Ym7ti6ici3pFzmYVxo+o9QdahFpZya+ohIzOGyEQHZayZ6alVcqCnGQqrgYgNBujC1F6Jb1gnGoBd6oJNO+ISVwwxrBIVla64iHDVCWl77iJsiebiV/+CDbAZ6q/wAwaKFwdsnLi5V8l6gXKXISnqJn/wAR68ShZtWswO5UtONf+N8j7Sy1UM6mehPtL2h/EQaX8SkwXpLl5VOeTB32eMx3yVuJqaygHmLTaAhkM/8AqFBYBQPFxVbWIk0W1SZjutOrqYD2lFi9Qqz/AH6yrjWxCwR6EgtE6cl8ghqcITAQDs25zAFCVLW2ZSimGGVRrWU4JYedQXwmHqrpX8Hj70S2j7Kr3i+nJGyFHVz6zRwSPFwS9agqiGmgYZ+I19IKQW85PEC8NG2m3cFjVDhvPqjoQVWNU3ZRzRRcSrRzAZ1rqn3lJaBNinN0OjSRGQNN27ZRnPpEWZCy81jqNXj/APCtTIaNauaLxACjURhvaORXi5eK0WWpkuENUXJXr0+IHYnyirk/UlC1hWsQFxR6kKRrWoq759oG3Z1f/EpbDARsjm1pmOhm+UoRBrxmfgKN1vHmAlFT0IEiY8DHePvFlrvUU2r6y3llv/r1lY1q0r8f+iAuDRx/5oGJsMFLQetxNqsZOubcVt9VthjsinSDc0Gxg/4lTQXGxW7cylrNt+L3Adk08DilzmCHAN1Y+WCquXrsLcHCfwbO6skKBQSlnmudxy28/wAEyMQpHkiAsC4WDe1rzlFpkMgh+whL3IaNUlkK0OVi6Y5AsuFHA5UBemdRXE7atvuZuAd2vMb+slBpCKMAYzFWHqhABRs5Krj/ANasdiMFhzvcZwVX/wDU/wDgsPJDjvGsDBNV5H/9Uymf/Gg+vgn/AMmaOfxBsUeuJ/uILxeolGEI7/mf6mtvwy3FP89ZgL+k2FK3X/yCqOvbDrdGW5f2s4KvLKO3eXEp0U8wBaBvJVSkgrxo/qA0GKwR9K33cs6zLyH7g9BS92N+IPWjIAv8TLZZyrPmo31eQpr7jIrdqt+YDfjlHiIKmR41AC9MqiiFUvTQ+5THH8FgVJpghh5MXnzC9S6JoZvyal2MVgK63VU1BSwmxQFuz0+5S9jJeY+Osstx63uMKQo88uI+xi23pfqYEfZq1xQUQecGW7mSAuqu2UsSzHiZSjXVv3HCJc1wIlRo9JS02c/6oEaRssYkZdZYNYMGOImbn1SpYodwg0Cy8yvcmsH8xTK87xB0oBjZF+yDzFBQBNwR14wxqRFfj3lo19sIgtbY2xB3ti3AfMWrJeNwE9lZ1M6LFeJQb0RRGxm4lMNFPmKbDxUVgPHrNRFObziCy01zFNh7lqqWAU/5X7i7xS9QPD6JcUC7FX1fcEXm4dhAZQw3qAGQD0hQ85mavG5jdfMywmJn00UdQRSrcrmq/gwYhOG7MK8upfVArEll5/BqFdAaeS4RMdRh6m9LzgCVxQ+C8efeOWwfKmWG91MbrHntiAPUtUiFlFXLAy3OMGGpgBL+qmpTWOsXBgAP1E2bxkj1QggWDyXLDgnEEV143LDeqvqeSuZUccRvaK1nUOQvcpWTxKLBp2cxaYbcX1B4G7oiysNYhqLruiXjSF55h0t+Y2jqyUYtz1BKUNnpCaaVFNCncZos8YlrtznqHaNwFuMcSg029dwvW0coI1mXZd+sFrnEtpoyamWxi8spujVQAO14mQAvWo7RfE1J8Dr9ETXK7NCibUNTnuL4JOTal5R/g9bdRCj5LnvCegTTdc9T4iJEKujmM2Fut8xSwZu5a2jwwvfExNEyuZGXPEpOYJwglt1xFrdXbmHEA7xiGLlqNK/+QLKeV7iFN2JVRQzQ4YJgErHEDu7o7lRsDRVToeZfUAJQ14lGy7mbAIX4J3UGtpmFBo6gK+ipRt2L5FGkF5p4lkpryQC+8CxgMf8A0jjhN3geOYpQXoX8Snljs/BMY0rtP6iKGjyP3ALtBnBM+8MpReP3GK/4G6hWD1x/SIEq8dWn6qUE0W8HbAJcZ5fFrGNhlrH9cU0XCYYvsRC6gxVARYWExygTQY+cqOuS9Fwl00upMrQ1ZHT4QKj4QFaqCxnn2/g2MDY1VE96kKzL8FD8mLaiakrDhqVJhVXS8xToitYV9HERoQ0Ipz/Y/qG0B/xqNL/FlNlmeQfll9yBtgc7gYtGqGn3DcMfB/EyAq72V8RW0T1EIpuR0ZvkiBV68JGliP8AO2AVa10UWKUcqD9soTN7D9QN3HpfqX7M7l17E942UjdYB1b/ALiugM8v8xUYZq7H7uGims4HxiGcH3X9Ust+UED8ReorvP8AZEG01dl/cS6SJnccRGnZcC0HnUBxiaMfMsLGSvmL2oPOIJTOYW7f1DQvOICq3KBTRXPcaMN4gFauqrJzFrQnVwMpF2AsAt7zLKdQsAZPHPiOqkOAx4Zk2HKlvQLliSkotZwJyQ+tQ/W8iRANJjMJmN2AhXGT/Bi5AXVcAv5CbvxpYU+bfBKIBS7ZwUbbi+UMAUKMEFJ6FY9KnWEcKOO4F5vO40LVe1GpYLwsWyi9tXEG6jrcRKYeqmGAwbgAvqUbUaVG/GJTvliFKoZXUWF1/rgGVT07gGjCwwH7gFSqqoBqQgIxTeoCquC/diA0ON5xABkcdRMof/kQVAJzb1lLTFuv7m83qAMVlMeYbPKEy2GvSAUOUWsJhcoDnMoYsF5Nxu6QCNm65uKGCXukluQNnDABusFbf/Ja86S8xsVlZYVMTREyMCKxFdLH2R8QNMUFoVrFunuKlzd0rHwQbZ77AdNhy3Dn5mL9vAeWJY2III2WSDmgODMo/g0tNXXdf3SvN13UQHVKumlADSUrKn13LeShDBMiOUgq0UVVNFkyARyFLMTFFjutyh3pxUCaTJxK815LsdiF9h+YUMDq4UFYB6zRtiELFezLQ7zqLBQ2RMkChQ4qiDZeyXhCrq27Yi/QwFN5rEBko7WJe7Woj2evicqLFoDQ9VKJYeItqLorGoo0NdgkbFvbcaCavOO4VdLZGEVzLe/75gsiReFxcVNU15hRz4zKWhq3HvFQWc9cRDDePWXWwLYKxkLxRFIi3tgrfkxANkMwhriLFK5fcm0uUVuNgKDQ+iZMN8ZlYZjChgq3i+vQla1AgsDTC3vn+F3dvztcD3moSZ581T/lF/KI6JJPTpdvuGCMoAa4vHOYA2k7WB/qKucdtYCJlF7iHygdL11uUowzmh+csUnuLHHrFpC7KMs2NX4jsJqv8QDAe8GoifJ5ghmvFQRzkzV1ELS7ziyUw3nlijmmrqCk08Z7JQtjisFxaPXMocVrfEUwCqzOxmDZqOHBVwVUj8wVMizXZFqqOKxLlApZdL+ago28YlKgV+OZq8JSyh1KhlYVX9y2gHVxpKKlWn+4gghpr/SFgVaXVPXURzJwDIviDHIaP7MQwQZQsP5lCcZQP6iGlw7YoevMBlGSo4DnwQBbUNYsbwwETKmA+9RCgEdqblYYQEDT7cR4sIKQEHiDivCO8Om1ontcFgBgUACj4/haqQWw3jrCBSC92Ff3D7rPnIo/cMplbZvNjrHpGFisCuglm6fmLSm63EpGneIlMgc4dxsUauULlhFrZQx3V+LlgWtaiOSr5gJZrPMwUsviNoBosVfaXVwqsjfvATQegiSCXjKRQBE6R9RTHJ1z7S5xd4GHSlHeHEEyMGKNvvEptgXVBFgHFxkuXlmVBt+IZVAGRa33DIDOssrgIMgmPzLVVCjTX+/EeHYbaM+NSwpLtE4zERWsl7VDeHcpW323KEVCMW8eOPzAqiCNYetZmatigHrSysJVkIpOs9VHLyrB1/cWcSsKIrDYTldjFS8HKBTAwOK6JYGYGHnFFNfmHi/hCHeQdrs6gZ9842wrVnQc1CKurjWOwuK3Fso6Gnk5QWrC+GAe5emQMdsRnCUW2rnHqBWFrxYNLL8dYeh1FBcuMm1Wt3S6Lt5MjXQJG0+CevkqSgZcZimHj7GkJJdgOSc64XnpgCTAnsB/C2wjtiOnmiMNiDXRX4jiInsEbH+7HQqIFRbqPfjErJlOA9sHtLt94jyByTTxeu4kd0A08YmrInsg2AhdeUYKDotyZYIeLvcSdYGUDfz6xNzg6HeCvTM1btuwrUrHsJQqyHjPEvjkkFj7jgqF5tuN9llGmN0yLjqNkW63mNYlalcTDkU/3UswsZU/fiLKgUN4jQGw77mFeOo4OwPLHFbWgXBsUtcPEqj1jd36So8pd1BLCqoAtXVJAF8ZyhgUQu0W4gjZjUI2aLzhPMx1arEaPQpTai3LDNADUVsDBkUU6CmGwawDrrdZXdwEcKBPLRLfeNQyyNxzb9QEaUzV9KsjFtb2PNp10LUqoFALlZf99CkoLVQA26/XgLuBlRoEZ3cQr2jkQKONtlm/Ct2TCMBAbcrMKcdMik0WSVavIkubeGFRrBWxoIezyoqGWeFJdCrYuYMR/q0m8I2BAld5U/IuxgVcBorYIWQuEaxIlaCM8nkBZms+kFbY3FQl8N/1MAeD+FCq1DzDfEWUQACEJH6RUxFM2ik+KB6McgVdOeSw0TNk+4YJ3mnpiRGqxXpmFCUZ5phq4ZF1xKKVMOfGocsAmquoD0KbeIixXPKssNqjmx5gAIDGXjMWXINaNf3CpHAQU3ZZIGvePabznuVXQVZxT93DbMlfUFWgTfIL8Sqolxy1FNgE4Vt9MQTbIHHOmWAFGtbhVH4jkJWOYYhIrnLO8rQK1Y3KpQ4JtbZZcl4l2jAW1WU2jz96CohTCbf+xGNAF11dMe8srPS/u7KpyRiYMIofeJinJ8LHYl0iDJlY8zgcQF2WuYhfmF1TYrk3DuiKAsp2ZhCIHSblIG9dfYarmOXNq2CsaPe/TqAjDbJeavULDH4Kq+mA+8u5KCJAp9esTEx4CyLuz92ekB9YsmDRBsppCqScbBERJlg2M6Yxmheh0F2u5OTTkJc2AdeizB/wIgrDQuhwB6SqwGlU+zqGXgQOX+GBn+mrHmoMr/dQivihdJRypD0FINd3O3FN69ZxVjdD1siRe9XBURUtxTAIpc23q2OEpFvq9wpwInTuv6g2NL3nUtVXPRT+pki2UpRQvNQtdHa33BYeacZC5YItGNQDInQiiikDUQZvI695aCtONRXvDyWXALLb4IXZQXVXxLOm9w4sI16eQGnmgdkKhKX7Atu1GirIBXssnovJmWFAsbMUGBOQUDcFFj7ShtWDjPEtkL2zqDcnLMGULhrrDvZIEvshmgRfv6wEYbUt5DSYx2BEtdXUnm0Dsa7yMzgix468r2rblYIoRRycTI8Y7gRS0LUmCpSma4BXg9pdF3TIvI1/UHFbM4vn+5c30zdSxJfOsFH3hKIO9GpgnsK0/bAWk1hWCPP+QIDY4CmqtjVU7VikWEGVwUOVeSGxIexIVqUvYPMsdiXr1AMARM2rQxiRshZ9CgCgsAwjyGHErZDXhS/X8NghSnrJ/cMJunCAPx8EQpoNVeP+owSmPe3FCr1TJ5yYiIZYhHOf7uak/FxQANa1qIJs8LJ6yspQcC9yytyqsqXqJNOIgA04HwesQVEjuoVdo7vr9TeQhKcetwgheVVCwKA5PPHMIJtMAUXENKoaWxIfG7df/k5YtGnAAHMqwRglfNtoeD8wk8Bqo5yE+xAQyWcJTx3oiQCLSWf5CVvT5mdLLYTzB9YOqFKRX53bLFKhUAuLs1uFS+YDrAQ/5omih8YjKlyxa8Fz5tFl1biRYDb6A8cTFgVxDLbds8MkFYVDDOwFdbOIF1KvI9dmVVQ4gLx/8ghkuG2O0qiYkpWC6rG6jgIO1wsNNAgzVwigNNymLQta7PAHcB4AWFb7Q+19WLBCXa5vwBwZjolIynoA5eAhoN65TrvKCcqV3DMtN0OrqLSZjoNkGs2WE0tJKXArlq+HuD2TeWaNEzszvDvgzd+2eNXjHmIIc+NCfgPqGv4W7XLPcP3KwTdMgNnl+IZdlCgcOt8/1GCLoTi4gvBmivXcMyOTVm3zB9VGzx1LBZVQCj1e4GwWOFqxhrhgyx0Iq8AsAFCz3ubfeo9u4UXXsFATygteybS/PXuyxxswr6FE6RL5XQ1AriFei1Mjn0lfB9q/Z9ygYLgvsohXZLAdVm695QCK2TWy6/aJzvg17iPmODnC31svtGaOsH5ii+2NyjkrcmrB+oxETlen6Phl+IGgD2Co0sCtUN7vg7u/MdDa2NOMtPvEV3knKM9FQEMAwBAexMymsdxntzluzPyt7FzKaElJeHHBAOKgtmG7YPUL6J0bheEgdWnDJjtjuwCja54WOweQMmvLMhXszXsy+dcRU8Bv+pVIAu90v4xg5vUMBqiZwrQ8aH1HF7Am0fmZMDvKJTPQPkptxgLC70qoWC9DXdEf4OVDx2Nn1bYCM/VvwyjlugKMtE0hrxh04DM8EGG08lnF6QezHJYiGx0594Q7ijI9yW931P8ADBLCIEVi9APtFCldxSyPoHxCYBobIVwbqGQZUP1f3BDaUa8bJRFwtrtzAGYzDCIUcvQPPnFoLhThEYx3ZfpHFyqaAJU0239SAtsX17hUsoj6Bn5ZYJ+BlFgYI9QMKi4xnFdPjdozSlqijvlqES+rDnwEvLYRRLQaWhaJStIVQNineG3rHOZQ4ENNu9FHJy1SsAM6chisx+OlFHzy0DFLGmNdCBBwxYvmHQM+VYvU5FqL9KSoYFpB7NRjtwbaXAy1oKbVlUMjdrR5Vv5hMVjrTiRbRDnHmiKacwYgehqVvW8ri1F4dbzAUlCyNTTdBACZaB+guWv9C0PgY+2Iwi7hA48H1GrzZVVYNjef8QzSJk6jsBi4E9Da8H1FowHN53oa4ssOSkPXcDi97i8Eso2r+4sx2gyDnwneg7zFo5DFqtC3b1cuKiNEy0iBu7Trh+9jwng7q9jB5cQVwR8asgdznDnMVhOhu0qpsOssM93WKy6OxIDhREa5rzWi5biIcAGuT+GGrlcjzgRX9L404qWzuIgNorWm9jGrYeF4o39bWUVHT1dZjZqLQcbzEALU8KXNKHhjwIxN2II9RmWtF4CAVZuVdrCP6u1aA2rREeY3BSlqSJdcJkR0ZqCE9Cx62+sVlFp6vd/5mIFA2L57kPXggu+thrkj8V9ojFGC0aO5xjALD2gCB/AcOsa6AAdEdgAoMpUlXkwwBgIre7xM6OI0IWBmx+7S4TjEMRmRtbH1YZhK0bZxQB8y7Oy7dPYGZjjqSIO4Sgqasvc1dsXaI2xMImkSKFUaNxR7Ye0okNFbQynWfgxp0XDqMiZojwhY91GIjrMAAHBRK4m4LW33/wAiTWXFKM2FckWm15cHoSziWju8RNES+BhNdLaYHa6D1lgN82081nwHyjwlbUHUUx4qvwS61GD6utry5jPW0Ay9wgGw0ig3Mbw8dWYqAGMoV4DYmsbXNmUolKgjJkVbdhxlOn5LJ9A+gZ3FsMQQ620HK0FDuOEctVYYug0XlW9qNR8RqvrYNLyD1HNFLV1Ic7ZwU8xpKRlqav3z8zMUBU3VnPr+LDX8Ld7Ti+Kf1GSXc5LQPmVQiCDhi137RIO9KcVX29/5majgXEqeS02Xj/Er03Yxt9Xgw8vbKuaqWlhUtV5iwk+GlQ3mVg5AoItmsY5gCVvSwJp+kpqLLYcrmJkDwQr+wZrTnV2faOwK5g6XiyG+PbiuhGjWAK8DcQeC/Cdgj2N6jP8A4aejr7QEXcCd9ykZXnfAVMCT7R8vem0GMuS/jkiYoMrvuGIbyZp0WwGrDHgmVboeZSEgqgCq+wx7oe22lNnK1TCukOK1KdAecRFYsuajTWqYP0zkBRX+Y07SaxZKszbd+0tpVvNvMtpg6joOAaq8AcxGuYKinFte+MtjGJbdv7P/AJB2Egz9A+cstTcwKl53K/DEAcpX/eI5131jgpy/e33mJHaUawNvFZ0W9w4KpNQxwg3tNsCUI6q9ry3dGjMLCvZR5XoqXoi4GcdqcajeWH8IZAGw2VHKOjuAYAgCR0ikAw08BDmShRLkXNB6a7gjBQLgAf71ilLW/Up9fuDf8K47QXqLvAk2hh8WntLf7VmVA/n5YmmrD4X884+KmY6sXVu5Tlci+8wK2Fk4dd7RTAXPUHATPXESqUHDBuClnKjkQRsBe18RyBAtlwuXUQtGUqgB3EZm4XggF04hXpDyx1uUofBjQmXbcbUDXzkHlqjyyswBBsxTQqyrBFWBACJ0l3rDZ52hVm7SFFVAxSsUbXu4Tec8aNGraiHDLfXNeh2BekxhYImuOK9RdByO2XcrqjaoWtFtAGajS3aD8DCiH0IJP/cgWrsF7qezogrBxzFGwN3qLu2RYTQCuAcAHEPl7oWP0IgZTDjqrbXUuqOpQVRM3QQHal2UH5lJmkCo9b/VqCZkS5WeR0fT5gqJ1kq97n4PmNYRDodBggPD9YnA1DavlP0cwVXBln1P0nnUe6h6IQAFDg14MykvhFDg0fTu24hBmilRl2U7fqCVW8esrLqp2t+RwFdwVstiUqpTzlQ4U7cZDx9z70Bs6jZqp22GaJ7D7ReRDDFZa5MC+79jAjv5Ynd+kPBX2p+u/vG+P4XVhF5eVKvBgtfjEF9ouLfgcKs6v+5YRBVZ1meaqg9GWi6iaNPVmdUi9sG+wOIKBiwIDYthEGik6gE2lyvLlvdA8q1yMX2KtKjoosSPdfeiPin5lsgA89Ld7lTz9K9yG+2EPoEziTFFC9f64Wxtu4V6aIQspyyK1CnQubbIM4M1A5A9Dt6wwMWvfav0Ahsp1Ei4whcXinuMMnimWDjJHl13YL3q4ljrQGZMFBdUXlDMQu0YN4qPjxyJ9sd7VIpW3RcujLEP65QbLyVa5hK8kPj7LlCuWNt7pJTlxQLcg8064hxa2C/EoiAul30BpnipR7j7Mh2vBcawqGLfJgfOXiNjwUPl+Dy0HUPgIBneWkZhWCaQjdbd44CLZ0ZBMxy0OiFW9RmgxUH2/wBMsBD1oFkr8SHymBnfJwc11uiLKm61FVearve6qPPOx0N6DRLAHhKzsQbAtFa26HLmIqfKgBxTNg2/LOIR1nlQFnIUnW3NRRhFcxpecsr2MZvR7gKjwFHwOoYYnB44P2+ViiBl2gYfJc2Jk4rHwFr7/hnPsArq1Y+yBhSixoD7MtFEWFRC+oDwkATAxsJm9yS6ijmwxMwBtNjeYYHeDhT4UKKERRKYERBt8R2uuFzgS0KBDvARvCDAqq5ER9RxqjUwI+0z7YH3Nh0rsbRiijRpaMN6oh7IlabqCqKOk8wyRMAVes2+pegTNZr2H3Gus4ILqwioUDgzVx8gxgnnOPqK3XpJs0MHxHaAXWo4Rs3SIb5h9UBPpNV47kcgYwrzmku7EJbY8B7JEBaNXGkig6bxxKkW35pMXxQsEEB0Gl8j+QAqW7QkkNaZYVmgbxClprHs9doyBiM0utFy8iZCuyehG7AXloOhT1tLdpui5NRUxTwhZbSJYwaGGmGajCdAaXIh3D8W2Sg5mQZo6VHTRX/Yaj9TLU1gidLPKaECMOZIKs9Z8vspUUQuDkTBM2p4rCu87JtahPVtK7S/byzzi0RaDaBXhD8uvxDIB/W6SAoVQAcRJSaSBbmAFZYUVe5n2Mm0ex/IFaibMKlbysbkRKtjb2zLkAnoLNOe9EXU1oi3F9EMBpY4h2fVZDbbtX1HwUvQveGa699r+5nVFGhFCuCrOizczzOPFB99h/xCAKVvBtfzD3YOZN08h61FUvK+f4Wl6Nl0VQOXBwfiECxK2+kyosotzviYeKsSdMHAc8ylXBwYV08uCfvk5u+EilgKt1HRKrAtfqWtPSqetEIB1lET3YL2TZQ05z/cyiMx99voLL1hYHPeUj3mSNCxsL0qpaWZ97jt8kBnrNYerXKpVgAD7qH5gW7q+9uD4jm3lgAc+H1BxbRUn3E0gbIw9+YdQBxPQDgG6LrMGHqJ26Q2SqALDfkQtM5YhHWhD8K7f5koCpYfcq1LBdYsGiqRIIKd7RQxa2G0g5F1hgI4HJUwopDgXYU2Yg0qLWAUBUQbq2i7oiMJOswJslcOFdw+mAkVEygUVooTUJVJ1JpLYOlm4CRTFFGLR4rle8KtbRQT/KqHrAa/DKvADBAORD3PuDj1WgF8rxHAgv3A85aeUMTJtazYTo+Dg5Zf5hHAfLwD6m4p1Vl3L5BAUtEx8kbJ4NdBgKJcGQv1HIrblPMpkptZev3PBmO0+Q0noXMOwX73NZ7W3C6cHTpuO3FFisx31oDEJCpgXKyMi0rb6RbypFv8br5gtEo6pz7twF3KfWeLS+1iIwjS9ZT8xKDCE2ID8B/C3g9XdpbutWn4mH85G36Blly/TJFAcbHxDBdcMpH0/UQ3DUnlp/5B2iqmC/Ep7w2wRntggrUEXxBEAPGfeasuKPo6p6Aj8Sh6VecPQfubxBfQG35uLYK0gOLHOCz4FJkPh7Y/nnNe3ikfcTGjWfbEAkg4xFcFNAv0Qvx4WV+TCBWzJkK4R/cx+6P7sGoUKr2u5mNd+HSpZdWNn4l2/Fs6Bo00IlueiWtbFotv1il6P/jELqesG/WoMVqtRH3GIgWdYS+4JrXW0ed2lVNrOHYN+LZgZrgbCyXqoXw1YuaBae4ig1chX5tPrX0jfLo03xLBU5DWYKuzbTA7Xgh3tgytvbPgMutbe5MjD8HxGWY51FFtaOV63HSNLaA0U4s0fph1QdI6QcyyLWfWZNBatcSmeQKjkusHzKz9fUl86F2+kJsW72qDl0yfdYMWlKwOtSea1VgOuuB6wFtp+05PGJQSKs4G2uAD6lkSqRmr50avvxiJvhVxeviJ7HN+w+yvuQlUUK0gm/mUGiz7yPvf8LdURkZUr494WjMbk9BwTTTFAA+lQx6rVReeoXjl+KV9RIW2XMVLGVqxWOp0tvsehH6uVsSvz/8AZgMFcQ1eWHvswi6erOGuG79wHLeq0zYk9rT2ibK9l1LVWlNC4gdoq43FVhHvEtFPmUzTqwP5jeluivgZUxBovxnDhPiL/CB/7CfQJYRB+oKroK2uZibmMn+4K9rw3fAxHZdL/qGc90BX8TcEgF+O9eqIiq1Z+9P0Q+pXabPkX1DYK7GfT4PpmOFfYyV7WA+IKE9hJa4mlye+2ORVXTYxef7eIpRQFFVat35HMHxClVwWct8uXMsMULyOHg8/ENXKg27Do8ufTUQOWrELoPSC7H1G15KwSvYtrR9pAXOvQW1+EmeOQUFhbYeXrBuXycK0ga6a9juF5d0usNnoM9EChYnCtvLYwhKEswLQeMM+PWJvSpKWXbyr9wcRXSvWha/wH5IR4QCONp7FHzGHNUi2K5/iU2HnkP7fwtvcBgZwAz69OYiVo5i0XZeOZtMRKyoVhlGCytl6v0LiMLkYO6zHYV+BQxzwRWuDy9+ksSeXJ+4hFm70gc7WLVwLtLebo+IVT6Bn5m+i7oPzctC54MXSoVmg/UCs6y3gBbfSAG1S2tWoGFl1qzuM7ThVQO4AoKNmdRZ04mCxoHI9QgTwtvRa6cwBR9IAHF91EKhn0iJx1qWlN9lTDaC+GWDKBsM+9DYF3lT7vEQ6A+lnL5Ze6uVg9OppADqVWrVM+GGQRc+gfuUdMWEw7Gj5iB2Li38h+RA+Rdcj4j4AGBRuvDGbxUzuDZnKsXXyfiA80Vb+PHiCgpznEwcr4jUzeKPqbp/2EXhQUKz8ksaesAcm6XllG8CcFrjrVBtggbE3qCDa8HnzKikEBT/kN3xAoxHbdv5WgPym4Xe9aj+vc9R4SlABbxKHj0uxfJ6/hHDFaLm9r8xlKlgY3aYSQPo4t/3/AAt9JamxNqhCH1LJIC1tC07YM3ySvzwQsuPtAgRM6RhCed9MM0Bgt0d1ANQky/EkFNRsfiJZGDZ0mzRNaWWjYzn2RgsGQPhPDAH+HMAQCJoJdIIgd9V5vTaJe8BklC9LDYtUNYwAa4MLSd0shyNtt5tvcba+PcYtJVnccn5GFuiScrtgqckgJ9SOdwgtRNIixGVlLBISaDYrIWlrOZdeFLQuqym86xC5i8eJYBXULsG/MNRTMwmJkAtn5lhVYqvwWBpULwwYmRRviHYlhkKhZc+Jx6Q8xgz4IoX3S8uJcCqyxdrb7YiGCwcgcquP1Cb/ALye+n/DByVhKSxNG9GPWW6oUCq7t53LWclbuAAAt8x/xZlcAHB5hUlNL9qq2HOy8QTLkYOm9ZymOvOSEgwMweqX/wDWbLSfIy3roiY57VxB3gH1cEZ2s4AGAOqffJntPZxtB9DLzXUuWxAeQ3T9vliKuAdO2/YS+/SgOuC+l/Mxexq0CjKvjUwOJli3InrHxBZ6h/X8LagL23kHkIUCAJ0T/c4nC0dYxHl5jqphByZ1eKMAkojbhqoeaJgGxFCtaYJLhBmVubLXNxL1QwtaW1JRaUc1FF0ChVkjgs3lwVf0gEWYTUeQHmDazPggOC4yeAYGmQlpeU7yqr5Yi8QWAAIykviBc7VSNrEilK3TWobWaNoQFrLNVmFYog0dc1QxahyIj5NutAKyhwdwxM7B1ostzWLlyb4EAqNZvLxKg7ml+4CgcKHo7i+6Yyt9Q2kKC7etZnToHPqBr3hytxrC/uKaV7D9wOXOVP6ItnGgTcJtRYrB4t+Y0lBg+2f4iwzVTO4tvBBd2vQFQNTMkAzVHB5hu8a4xbCyLcMJRYs5bo8ty8R2qZaLQPASlDGi35TBLeN00D5EMkwzl+DQV4iC4uBcYXgrfOju7GPmBda70vryyl13iV35/wDuWOXM2V+WjG8Bl48glxnTpDNCL6tcZXeibzqpA4BWURc+awOTaa1qJLs3ij8QMEjUAPSmHJKLxgaVf9Uqd/uZVBouAA91qaRS+gH6/hSpsER5ItltrVLkvtUOSTmkAc3GEUwFn4YwYWJRigfuKgBtLg+6yBHycRu57ILWgKbHM1R7+AMnB3uZvmCdcqIu5cLW2404A3ShScXV4RyCCQoSIvW4hHGyg2qpa9sZQV7UxHB8gm3zLNhnGV+2NcXmqD9ypInJ+CIeErcfhIdj1qlxhaocIeA2vBM0uZeJ3rPVtj5WtFf/ACU4JaNPAB+4QBqtbmmqv0Q1QGysr6rcpAO2kFxw0Wqam2Qd2T6jKChROzdFJ7jMVFI4Vjhp8nH3KMdWWA+Rv0Euad+PxgLXvMYYS4ukp2PHvAqA0sPQaEXFMbGrey1ikqlTa+YVi8pkxqYa7alVYBvVEcHJ6blFhRXiLbdNFbl2A14JS6wfq4OcxdYc+IKtVHFVZrUDi8y6ze81KB1V23cORzuENeHf9mWvFxcX/CupW2J/Oa/Fz3m0wysDqn7lRTi1wYV6ZkyLRUDleMOuIwEbWDguOIAARWsWdlV/swBq15XU2nswK/iO0EuQbRFMC7MM/MbVrvkf3C1TWc/8QLYK6pt/uBfsX8xNVNOzlL0QtfSB6KaoFQNoSinDDuWI7WqoBVc13uZKDjMouFo3xLLrgQWVl4MdmnPAbjVmFcMcAopb1mVRm/2kBwuscyywM7vEtvCjuo2sjPpBtgcxtJWJSAwWA4ziDZCzLiVbg1z8Qy07lYxMNXDoeYBwDERtKzf+ZZnlef1Uu0aS/Mu8Z/UFuVjK+00UZ79YF2QxUEZrXiFhhIwwPq/JQvn+GJmlK2DtvZ9xVllV54nEMyz2S8BQprZ5jRI6XrG1yKcxHIbrhgAvp8HUaqj1m6yF4b1CxXXDMObDzUAw3dmblU4wVF477lKNmvmKkeHCRWKLzofEB1jDn0i7EzqKraTQvDXxKZuHf6itW7T/AGZS7ceSKsuys1NOKQbAl4ys4Co5RbGkiAY97oi20c/cdVd47xE1as96luH/AC5yMPrBWRLeJhMvodXKGhl2ynL60QXLV1qOGMO9xQLSr8RHkO+YUwuPGfuCDGfSCLbGeZS4Nvi8TLp71DAI24cZmTKDharhjgF5Ap5lz6IuUUfP0kNfwwqXGKva3hp9ahK16sDUQhdjpr/kuKMRRljKskDalejKFsLzHLnBcbSgIji3T8SxdGvtiowh6w7HOCC81/2OXAvBONAJoiLw+ZWMMaPnzKM35RLVjMKNWC+oFnTuuYPIjj3mWnEA2u9VUZznrOGKDBtdVBq6qtwaPXZMkqrzjiZ0GJSlPrUtdX9wt5ru+YsjTsxDLV/3KFEo59YDBX3EWDNZ3EV2VfiIZ09hxNignBDFXt7mRaze5T6lVhVlrnvdRFs4QaRt53AXeFiJRc0Zi5QMEJrDRqiv/vP8PYxEhWboR7iPeUiPUOU/MQytPkJa6Fi/DUaocvbM0Z/5Ew6MYiHD6I7HGfEbWziOnZ5ZvmntloG6xuZ3fOLg94p6leK9a5mTXj2iFWt3zBQjdvN6lhw+JZGF96lUpYdQAwuiPBa3iJpEoiQV7xqDtRRKoBIBoiuItKAY63AjfhuVqq9VcSy7cOdS0TDiFFcYg2XVMakTPfiIsqhWmDmmscwAtNbvnjELHuNBtr3J/i5YtLngqBAlHZeZnlvnmIPiWa+IquKOKhm8CuZYWCq7lYI/PM3kIMkY+qj1/hxmEuekH8zbwLsSPpPFplnBwuhxkUfuNIMu48IldymkF+Y1XjTLgExKssbXjmKi0f8AcymGmS9TzY17zgNnFy5lpfEaGQe8Luhz3BU2eHM0aRMqPFsG6AH3xcKyPpqZBu/3KOKjTAu+GWoHcoghvPfH9Sx7LwyjndPMSWlAP+/cGjhc7KI3UFYyImL0cekQiN8f5qLLSeKzEh05LQicFk6WAsuerix2Sm+YEnRsdntLDRKVczJMMsEqjb5mhfvUQ1N8wUhm9cxrYmYbcTviWFWBbMGD/wBiVYoy9Sgxfpfv8RVBy0ADX4AeFcU12AiKEE2Ij/DPpcIOswMUv2fMuA0YW16vELlVRs9nuxWAlEfcwAoheHiPi7erlFLzOxtdtyhgbDmtzQM0cvEaRsHtKJeLcy1arxA1aPgioWOuOiF9Fd3uUojNqqUYt8EHVrWy0uovb0gf8iqRLebRxBnqxtABkw/3GWiV6II5NeIA1g4RFogvxPmKjsqmZjelswsJaXhLD37gh2H6lTbV9SfuMlH5MGHg5rbLLrGMxf0jYPY9E/cylT4H6iy1iOuhKJQUgjYKVjO4ol5obeZqtNdxaWGdJkx3quGJaJ4ptuKbL3hnQLNC0yvQ6fD9wTKvtCAIqKUaXD0Yy5QWHHI3FHbKl1+2mLmgu3+HPg9B1LyAi9vNsrvv7hHHU18mOOYpwIvXcLCopKcKlxHJSe3EavdI5TiYtvB0dxpcqvrERdtnpGVlcWkKdb3hibKxHDNV+GDkjWXVRgBPNAvSawxispyf1OEd82/Uz1fN0wHT7pS0Xvp/1CoU/QEVweLpp+peC97t/pmYSef7InQSDVHwHZLW5rgJSIV2y6HRDkSGmyA5vujSinyQylWLySK5i3mXVQveVh71OILhT0UhV4yOp9cTTj1lJhXl8w2WAdhgA6vHiYvEMZSIYQ1YXx4mCBC7VzKZgLEpfncAtQZIFAKE61TwykL44gsjC9w6C675liSnwC/IIYAKomzFvSuhjr+GzWJTAw/Lf53CIhEeHMVBIi8N6/cAJH1u7gmDusEDZcOmMKVqszoL6hg5ymYmaGr0+fEbKAxUAzR2XmDCALbg+/vBS0yaRYgLZckCW2ttBm3mP08HNNR8jCpEeRx8Mc967S+rLHrDvF4TAgvoTeD+mguUlO/NTc+uhcpa8o5Dcxb4mVqXp2S/yC+0fatEEw9gLgtW12r3LGxU9S13aPZM+strH3KUG3lmVAvxUotXWZYGVAHIaHyz1fHzZr5z7QzgKnLDM+xfBxDQF7QrsVJ1K8M7yr0ic6Q7rzLEMiJsJdWDiDQSvP03FnEsvTqbjAG8uVXp9bi1ygUASCRegAGxdfNqLb5FVf4Y1FBc6u7AE90xuGAguXdWvT6RizjZDtWg+gQmQtINO67ghsV6Iqg+cKmBoB1paPmGE9NLvxAP1MA8t2qVCxC7CetooWoaL1GJtLttsHXxAbMhezYMsgmxVkw7nQgaLaYIRuSWLfGpa1eeOIvLeIdwXYmOiUpfXEeAiilmNMshKjZpSg9ZWH1m/wAYLjtbZeKI837iO7DwX4IFYmuX+ovvsYJ+WWQP5f3RRVjs34GOPh7X6IoUNnofSBiqrGT0W4/qckU8tyrqZ8iz/fcQZCxsvF5g5oaMD3e2IDwrouYceTBALxoGpQrXHUwF7zGjAS8W6gxxUamRn6hOZc5Kgs4C+bL+P8QxAFHsq+6hI7I9YARDhu6/+RajgBuhv7g9qB2xdJZvuJ6u9xHHNQLKCFXqAXz6TNmWw71LVrDAEuAXcy35ImwjCwPC6zB1jiUIdXyesev9EfFwFldhAMVvF+i3lgAjGXdQ/Ao2/fF+kvA7el+5hipjK/lilsR0ozgxkov1Mu/0o+qj2VJz/bC6GVsjy3n3laufIz36yhQA3VRphXBMECviAlDWdkDg4gL59IOXD6TzVcSzgc3AbUovOoDldEE1XGvMzDXzHCO3aUxOrH2yyUOH+kqimAPL1QS8HAi18RdgYUL7U92ErKXn/hREWaoX72R+5a5Ux08Er2esrtljaV4hywXaXX8PeLlF9ywdmAIUljSlMt6IYWqslK8wbaysoKF2jFiOkpnDTWD1sZ5K9CLfEnaF6uFzRcstvncG29osBVdrlZ+dOYcoVYimQ9lPmANBpxrBBmWQsh/qlcQeisxo44eWYJWDyQso77uU0DzfUXQUQww+S5avPUQzbniBoQqsyl13FXk58QgIBebuDhesDH3K0BF0AV+IfAwE190msx4D4BMvIwBx61UQSLvLj2hGqBfBxq/Cy9CpUBylAvuQfYudZ7xxgtYhrmnA+UfSH0NsS+hSjO3N0z0qJdqIWs9ABPaUNlVp31XuJF0q34pgAgah95C9j6EqVehR/wDis3CjB/FUdxG364WB3pAq4IJwrlQl8lPYORxF9g8RlvlhqaKK+I3htjBuNKocwSyk/qNYcGYAw+4LWWuck8R71HKV5K2QmX7SFc0L9QgceSk7wpacSlyF5R7MrZ2PqpFj7JgImWsD1r/cYlJo36tHi9FFO5tOV+Q6/wBzerVwBB7zRO6fvMMbBbLtdLPgI5SyvpBR8hcoFntvl2ZbFawPdg3DAaFBRfBCqB0Ffz9OLc+kYD4BJQMQtsFUQBMNTo86UUeLBrYMFWZrHtD8LE1b6HKD8Zl0TIMej+DKsvVYD1nTRoiJ5LLF+G4YFw3cyuSiuxPhsYi8nEB2dij7kGmxj8qrBxvQSdAQQGkDgP8A2s3/AP026/8Ayajr/wD3M//Z;" vertex="1" parent="1">
          <mxGeometry x="200" y="-1780" width="520" height="470" as="geometry" />
        </mxCell>
      </root>
    </mxGraphModel>
  </diagram>
</mxfile>
